<svg width="17" height="17" viewBox="0 0 17 17" fill="none" xmlns="http://www.w3.org/2000/svg">
<path d="M13.0405 12.8105L11.043 14.808" stroke="white" stroke-linecap="round" stroke-linejoin="round"/>
<path d="M13.0405 14.808L11.043 12.8105" stroke="white" stroke-linecap="round" stroke-linejoin="round"/>
<path d="M8.60992 7.69698C8.53909 7.6899 8.45409 7.6899 8.37617 7.69698C6.69031 7.64031 5.35156 6.25906 5.35156 4.55906C5.35156 2.82365 6.75406 1.41406 8.49659 1.41406C10.232 1.41406 11.6416 2.82365 11.6416 4.55906C11.6345 6.25906 10.2958 7.64031 8.60992 7.69698Z" stroke="white" stroke-linecap="round" stroke-linejoin="round"/>
<path d="M8.4984 15.4449C7.20924 15.4449 5.92719 15.1191 4.94969 14.4674C3.23552 13.3199 3.23552 11.4499 4.94969 10.3095C6.8976 9.0062 10.0922 9.0062 12.0401 10.3095" stroke="white" stroke-linecap="round" stroke-linejoin="round"/>
</svg>
