<svg width="89" height="79" viewBox="0 0 89 79" fill="none" xmlns="http://www.w3.org/2000/svg">
<path d="M67.9501 23.9842V17.6289C67.9501 11.5538 63.0252 6.62891 56.9501 6.62891H13C6.92488 6.62891 2 11.5538 2 17.6289V66.2071C2 72.2822 6.92487 77.2071 13 77.2071H48.2808" stroke="white" stroke-width="3" stroke-linecap="round"/>
<path d="M23.4062 2L23.4062 11.2562" stroke="white" stroke-width="3" stroke-linecap="round"/>
<path d="M33.8164 2L33.8164 11.2562" stroke="white" stroke-width="3" stroke-linecap="round"/>
<path d="M44.2305 2L44.2305 11.2562" stroke="white" stroke-width="3" stroke-linecap="round"/>
<path d="M67.3806 61.5238C67.1779 61.5238 66.9851 61.4319 66.8522 61.2754L62.5484 56.1646C62.4387 56.0353 62.3789 55.8686 62.3789 55.6984V51.7888C62.3789 51.3941 62.6913 51.0742 63.0768 51.0742C63.4623 51.0742 63.7747 51.3941 63.7747 51.7888V55.433L67.3806 59.7136L70.9865 55.433V51.7888C70.9865 51.3941 71.2989 51.0742 71.6844 51.0742C72.0699 51.0742 72.3823 51.3941 72.3823 51.7888V55.6984C72.3823 55.8686 72.3225 56.0353 72.2128 56.1646L67.909 61.2754C67.7761 61.4319 67.5833 61.5238 67.3806 61.5238Z" fill="white" stroke="white"/>
<path d="M77.3558 41.7115C76.9703 41.7115 76.6579 41.3917 76.6579 40.997V37.2302C76.6579 32.014 72.5137 27.7538 67.4156 27.7334C67.4056 27.7334 67.3923 27.7334 67.3823 27.7334C64.943 27.7334 62.6332 28.7202 60.8785 30.51C59.0905 32.3338 58.1068 34.7497 58.1068 37.3085V40.997C58.1068 41.3917 57.7944 41.7115 57.4088 41.7115C57.0233 41.7115 56.7109 41.3917 56.7109 40.997V37.3085C56.7109 35.8249 57.0001 34.3788 57.5684 33.0143C58.1167 31.6975 58.9011 30.5134 59.8947 29.496C60.8785 28.4922 62.0184 27.7028 63.2846 27.155C64.6007 26.5833 65.9932 26.2941 67.4222 26.3009C70.2637 26.3111 72.9357 27.4544 74.943 29.5164C76.9504 31.5784 78.0571 34.3176 78.0571 37.2302V40.997C78.0537 41.3917 77.7413 41.7115 77.3558 41.7115Z" fill="white" stroke="white"/>
<path d="M67.3779 53.8709C65.1878 53.8709 63.1273 52.9964 61.5786 51.4108C60.0299 49.8252 59.1758 47.7155 59.1758 45.4731V38.5181C59.1758 38.3242 59.2522 38.1404 59.3885 38.0043C59.5247 37.8682 59.7075 37.7967 59.897 37.8036C59.9933 37.807 67.9329 38.0009 71.3327 34.5166C71.469 34.3771 71.6551 34.3022 71.8445 34.309C72.0373 34.3158 72.2168 34.4009 72.3464 34.5472L75.4039 38.0451C75.5202 38.1778 75.5833 38.3446 75.5833 38.5215V45.4766C75.5833 47.7189 74.7292 49.8286 73.1805 51.4142C71.6285 52.9998 69.568 53.8709 67.3779 53.8709ZM60.5716 39.2327V45.4731C60.5716 49.3148 63.6258 52.4418 67.3779 52.4418C71.13 52.4418 74.1842 49.3148 74.1842 45.4731V38.7903L71.7714 36.0342C70.9373 36.7385 69.8937 37.3374 68.6574 37.8206C67.4676 38.2833 66.0984 38.6406 64.5796 38.8856C62.888 39.1544 61.4058 39.2191 60.5716 39.2327Z" fill="white" stroke="white"/>
<path d="M54.651 78.3643C54.2655 78.3643 53.9531 78.0444 53.9531 77.6497V68.1189C53.9531 67.7241 54.2655 67.4043 54.651 67.4043C55.0365 67.4043 55.3489 67.7241 55.3489 68.1189V77.6497C55.3489 78.0444 55.0365 78.3643 54.651 78.3643Z" fill="white" stroke="white"/>
<path d="M80.1198 78.3643C79.7343 78.3643 79.4219 78.0444 79.4219 77.6497V68.1189C79.4219 67.7241 79.7343 67.4043 80.1198 67.4043C80.5053 67.4043 80.8177 67.7241 80.8177 68.1189V77.6497C80.8177 78.0444 80.5053 78.3643 80.1198 78.3643Z" fill="white" stroke="white"/>
<path d="M71.602 64.5121C71.4624 64.5121 71.3229 64.4678 71.2065 64.3862L67.3913 61.6845L63.576 64.3862C63.4165 64.4985 63.2138 64.5393 63.0244 64.4951C62.8349 64.4508 62.6688 64.3283 62.5724 64.1548L58.9798 57.734C58.787 57.3903 58.9034 56.9548 59.239 56.7574C59.5747 56.5601 60.0001 56.6792 60.1928 57.0228L63.4066 62.7699L66.9958 60.2281C67.2351 60.058 67.5508 60.058 67.7901 60.2281L71.3794 62.7699L74.5931 57.0228C74.7858 56.6792 75.2112 56.5635 75.5469 56.7574C75.8826 56.9548 75.9956 57.3903 75.8061 57.734L72.2069 64.1514C72.1105 64.3249 71.9477 64.4474 71.7549 64.4917C71.7051 64.5053 71.6519 64.5121 71.602 64.5121Z" fill="white" stroke="white"/>
<path d="M70.719 78.3674C70.39 78.3674 70.0942 78.1258 70.0344 77.7822L68.1699 67.3632H66.608L64.7435 77.7822C64.6737 78.1701 64.3115 78.4287 63.9326 78.3572C63.5538 78.2858 63.3012 77.9149 63.371 77.527L65.3384 66.5228C65.3982 66.1825 65.6874 65.9375 66.0264 65.9375H68.7515C69.0872 65.9375 69.3763 66.1825 69.4395 66.5228L71.4069 77.527C71.4767 77.9149 71.2241 78.2892 70.8453 78.3572C70.8021 78.364 70.7622 78.3674 70.719 78.3674Z" fill="white" stroke="white"/>
<path d="M68.7502 67.362H66.025C65.7192 67.362 65.45 67.1578 65.357 66.8584L64.1406 62.8534C64.0276 62.4757 64.2304 62.0776 64.5992 61.9585C64.9681 61.8428 65.357 62.0504 65.4733 62.4281L66.5368 65.9294H68.235L69.2985 62.4247C69.4115 62.047 69.8037 61.836 70.1726 61.9551C70.5415 62.0708 70.7475 62.4723 70.6312 62.85L69.4148 66.855C69.3251 67.1578 69.0559 67.362 68.7502 67.362Z" fill="white" stroke="white"/>
<path d="M75.9733 46.7036H74.8932C74.5077 46.7036 74.1953 46.3837 74.1953 45.989V40.572C74.1953 40.1773 74.5077 39.8574 74.8932 39.8574H75.9733C77.7945 39.8574 79.2768 41.375 79.2768 43.2397V43.3213C79.2768 45.186 77.7945 46.7036 75.9733 46.7036ZM75.5878 45.2745H75.97C77.0235 45.2745 77.8776 44.3966 77.8776 43.3213V43.2397C77.8776 42.161 77.0202 41.2865 75.97 41.2865H75.5878V45.2745Z" fill="white" stroke="white"/>
<path d="M59.8796 46.7036H58.7995C56.9783 46.7036 55.4961 45.186 55.4961 43.3213V43.2397C55.4961 41.375 56.9783 39.8574 58.7995 39.8574H59.8796C60.2652 39.8574 60.5776 40.1773 60.5776 40.572V45.9924C60.5776 46.3837 60.2652 46.7036 59.8796 46.7036ZM58.7962 41.2865C57.7427 41.2865 56.8886 42.1644 56.8886 43.2397V43.3213C56.8886 44.4 57.746 45.2745 58.7962 45.2745H59.1784V41.2865H58.7962Z" fill="white" stroke="white"/>
<path d="M47.819 78.3632C47.4335 78.3632 47.1211 78.0433 47.1211 77.6486V64.579C47.1211 63.092 47.5997 61.6459 48.4704 60.5128C49.8895 58.6618 51.7207 58.2568 53.492 57.8689C53.9507 57.7669 54.4226 57.6648 54.8879 57.5355C57.7227 56.7563 60.3249 55.9362 62.8474 55.0277C63.2096 54.895 63.6084 55.0924 63.738 55.4633C63.8676 55.8341 63.6749 56.2425 63.3126 56.3752C60.757 57.2973 58.1182 58.1275 55.2534 58.917C54.7516 59.0531 54.2631 59.1619 53.7878 59.2674C52.1195 59.6349 50.6804 59.9514 49.5704 61.3975C48.8925 62.2822 48.5169 63.4119 48.5169 64.5824V77.6486C48.5169 78.0433 48.2045 78.3632 47.819 78.3632Z" fill="white" stroke="white"/>
<path d="M86.9477 78.3646C86.5622 78.3646 86.2498 78.0448 86.2498 77.6501V64.5804C86.2498 63.4133 85.8776 62.2802 85.1963 61.3955C84.0863 59.9494 82.6473 59.633 80.9789 59.2655C80.5037 59.16 80.0151 59.0545 79.5133 58.915C76.6452 58.1256 74.0098 57.2953 71.4541 56.3732C71.0918 56.2405 70.8991 55.8356 71.0287 55.4613C71.1583 55.0904 71.5538 54.8931 71.9194 55.0258C74.4418 55.9343 77.044 56.7543 79.8789 57.5335C80.3442 57.6628 80.8194 57.7649 81.2747 57.867C83.0461 58.2549 84.8773 58.6598 86.2963 60.5109C87.1671 61.6473 87.6456 63.0901 87.6456 64.577V77.6501C87.6456 78.0448 87.3332 78.3646 86.9477 78.3646Z" fill="white" stroke="white"/>
<path d="M86.9486 78.3627H47.819C47.4335 78.3627 47.1211 78.0429 47.1211 77.6482C47.1211 77.2534 47.4335 76.9336 47.819 76.9336H86.9486C87.3341 76.9336 87.6465 77.2534 87.6465 77.6482C87.6465 78.0429 87.3341 78.3627 86.9486 78.3627Z" fill="white" stroke="white"/>
<path d="M11.2578 28.6113H51.7535" stroke="white" stroke-width="3" stroke-linecap="round"/>
<path d="M11.2578 43.6523H41.3403" stroke="white" stroke-width="3" stroke-linecap="round"/>
<path d="M11.2578 58.6934H34.3982" stroke="white" stroke-width="3" stroke-linecap="round"/>
</svg>
