<svg width="87" height="87" viewBox="0 0 87 87" fill="none" xmlns="http://www.w3.org/2000/svg">
<path fill-rule="evenodd" clip-rule="evenodd" d="M14.5 76.125H58C60.0021 76.125 61.625 74.5021 61.625 72.5V14.5C61.625 12.498 60.0021 10.875 58 10.875H14.5C12.498 10.875 10.875 12.498 10.875 14.5V72.5C10.875 74.5021 12.498 76.125 14.5 76.125ZM58 79.75H14.5C10.4959 79.75 7.25 76.504 7.25 72.5V14.5C7.25 10.4959 10.4959 7.25 14.5 7.25H58C62.004 7.25 65.25 10.4959 65.25 14.5V72.5C65.25 76.504 62.004 79.75 58 79.75Z" fill="white"/>
<path fill-rule="evenodd" clip-rule="evenodd" d="M32.625 23.5625C32.625 22.5615 33.4365 21.75 34.4375 21.75H56.1875C57.1885 21.75 58 22.5615 58 23.5625C58 24.5635 57.1885 25.375 56.1875 25.375H34.4375C33.4365 25.375 32.625 24.5635 32.625 23.5625Z" fill="white"/>
<path fill-rule="evenodd" clip-rule="evenodd" d="M32.625 30.8125C32.625 29.8115 33.4365 29 34.4375 29H56.1875C57.1885 29 58 29.8115 58 30.8125C58 31.8135 57.1885 32.625 56.1875 32.625H34.4375C33.4365 32.625 32.625 31.8135 32.625 30.8125Z" fill="white"/>
<path fill-rule="evenodd" clip-rule="evenodd" d="M32.625 45.3125C32.625 44.3115 33.4365 43.5 34.4375 43.5H56.1875C57.1885 43.5 58 44.3115 58 45.3125C58 46.3135 57.1885 47.125 56.1875 47.125H34.4375C33.4365 47.125 32.625 46.3135 32.625 45.3125Z" fill="white"/>
<path fill-rule="evenodd" clip-rule="evenodd" d="M32.625 52.5625C32.625 51.5615 33.4365 50.75 34.4375 50.75H56.1875C57.1885 50.75 58 51.5615 58 52.5625C58 53.5635 57.1885 54.375 56.1875 54.375H34.4375C33.4365 54.375 32.625 53.5635 32.625 52.5625Z" fill="white"/>
<path fill-rule="evenodd" clip-rule="evenodd" d="M18.125 47.125V52.5625H23.5625V47.125H18.125ZM16.3125 43.5H25.375C26.376 43.5 27.1875 44.3115 27.1875 45.3125V54.375C27.1875 55.376 26.376 56.1875 25.375 56.1875H16.3125C15.3115 56.1875 14.5 55.376 14.5 54.375V45.3125C14.5 44.3115 15.3115 43.5 16.3125 43.5Z" fill="white"/>
<path fill-rule="evenodd" clip-rule="evenodd" d="M28.4691 22.2808C29.1769 22.9886 29.1769 24.1363 28.4691 24.8441L19.9375 33.3757L15.0309 28.4691C14.323 27.7613 14.323 26.6136 15.0309 25.9058C15.7387 25.1981 16.8863 25.1981 17.5941 25.9058L19.9375 28.2492L25.9059 22.2808C26.6137 21.5731 27.7613 21.5731 28.4691 22.2808Z" fill="white"/>
<path fill-rule="evenodd" clip-rule="evenodd" d="M76.125 43.5H72.5V71.2916L74.3125 73.7084L76.125 71.2916V43.5ZM79.75 72.5L74.3125 79.75L68.875 72.5V39.875H79.75V72.5Z" fill="white"/>
<path fill-rule="evenodd" clip-rule="evenodd" d="M76.125 30.8125H72.5V34.4375H76.125V30.8125ZM72.5 27.1875H76.125C78.1271 27.1875 79.75 28.8104 79.75 30.8125V38.0625H68.875V30.8125C68.875 28.8104 70.4979 27.1875 72.5 27.1875Z" fill="white"/>
</svg>
