<svg width="14" height="14" viewBox="0 0 14 14" fill="none" xmlns="http://www.w3.org/2000/svg">
<path d="M11.957 5.94156H10.2712C8.8887 5.94156 7.76286 4.81573 7.76286 3.43323V1.7474C7.76286 1.42656 7.50036 1.16406 7.17953 1.16406H4.7062C2.90953 1.16406 1.45703 2.33073 1.45703 4.41323V9.58156C1.45703 11.6641 2.90953 12.8307 4.7062 12.8307H9.2912C11.0879 12.8307 12.5404 11.6641 12.5404 9.58156V6.5249C12.5404 6.20406 12.2779 5.94156 11.957 5.94156ZM7.16203 9.2024L5.99536 10.3691C5.95453 10.4099 5.90203 10.4449 5.84953 10.4624C5.79703 10.4857 5.74453 10.4974 5.6862 10.4974C5.62786 10.4974 5.57536 10.4857 5.52286 10.4624C5.4762 10.4449 5.42953 10.4099 5.39453 10.3749C5.3887 10.3691 5.38286 10.3691 5.38286 10.3632L4.2162 9.19656C4.04703 9.0274 4.04703 8.7474 4.2162 8.57823C4.38536 8.40906 4.66536 8.40906 4.83453 8.57823L5.2487 9.00406V6.5599C5.2487 6.32073 5.44703 6.1224 5.6862 6.1224C5.92536 6.1224 6.1237 6.32073 6.1237 6.5599V9.00406L6.5437 8.58406C6.71286 8.4149 6.99286 8.4149 7.16203 8.58406C7.3312 8.75323 7.3312 9.03323 7.16203 9.2024Z" fill="#E6A935"/>
<path d="M10.1667 5.13554C10.7208 5.14137 11.4908 5.14137 12.15 5.14137C12.4825 5.14137 12.6575 4.75054 12.4242 4.51721C11.5842 3.67137 10.0792 2.14887 9.21583 1.28554C8.97667 1.04637 8.5625 1.20971 8.5625 1.54221V3.57804C8.5625 4.42971 9.28583 5.13554 10.1667 5.13554Z" fill="#E6A935"/>
</svg>
