<svg width="63" height="60" viewBox="0 0 63 60" fill="none" xmlns="http://www.w3.org/2000/svg">
<g clip-path="url(#clip0_4533_14185)">
<path d="M41.4027 22.5074C39.9021 21.8508 38.7653 20.6779 38.2025 19.2049C37.6396 17.7319 37.7187 16.1377 38.4251 14.7159C38.6432 14.2773 38.4464 13.7532 37.9857 13.5456C37.5252 13.3381 36.9748 13.5252 36.7569 13.9641C35.8378 15.8136 35.7353 17.8884 36.4682 19.8062C37.2011 21.724 38.68 23.2505 40.6323 24.1048C40.7572 24.1594 40.888 24.1853 41.017 24.1853C41.3664 24.1853 41.7006 23.9953 41.8562 23.6731C42.0689 23.232 41.8659 22.7101 41.4027 22.5074Z" fill="white"/>
<path d="M10.5127 43.2266C9.32542 43.2266 8.35938 44.1466 8.35938 45.2773V46.3462C8.35938 47.477 9.32542 48.397 10.5127 48.397H25.9681C27.1554 48.397 28.1214 47.477 28.1214 46.3462V45.2773C28.1214 44.1466 27.1554 43.2266 25.9681 43.2266H10.5127ZM26.2757 45.2773V46.3462C26.2757 46.5077 26.1378 46.6392 25.9681 46.6392H10.5127C10.343 46.6392 10.2051 46.5077 10.2051 46.3462V45.2773C10.2051 45.1159 10.343 44.9844 10.5127 44.9844H25.9681C26.1379 44.9844 26.2757 45.1159 26.2757 45.2773Z" fill="white"/>
<path d="M37.6769 39.5524V38.4149C37.6769 37.303 36.7271 36.3984 35.5596 36.3984H10.4766C9.30917 36.3984 8.35938 37.303 8.35938 38.4149V39.5524C8.35938 40.6643 9.30917 41.5689 10.4766 41.5689H20.0688C20.5785 41.5689 20.9916 41.1754 20.9916 40.69C20.9916 40.2046 20.5785 39.8111 20.0688 39.8111H10.4766C10.3269 39.8111 10.2051 39.695 10.2051 39.5524V38.4149C10.2051 38.2723 10.3269 38.1563 10.4766 38.1563H35.5595C35.7092 38.1563 35.8311 38.2723 35.8311 38.4149V39.5524C35.8311 39.695 35.7092 39.8111 35.5595 39.8111H23.5327C23.0229 39.8111 22.6098 40.2046 22.6098 40.69C22.6098 41.1754 23.0229 41.5689 23.5327 41.5689H35.5595C36.7271 41.5689 37.6769 40.6643 37.6769 39.5524Z" fill="white"/>
<path d="M62.9488 55.5574C62.6035 53.5152 61.9583 51.2249 61.0828 48.9339C60.0341 46.1898 58.7294 43.648 57.3878 41.7285C57.4078 41.6926 57.4271 41.6563 57.4453 41.6195C57.7523 41.0016 57.7866 40.3089 57.5421 39.6693L57.4983 39.5542C57.0933 38.4947 56.0173 37.8495 54.8851 37.8859L51.8058 29.8716C58.2167 26.3559 61.2725 18.8925 58.6803 12.1092C57.274 8.42953 54.4276 5.4948 50.6654 3.84563C49.1786 3.19395 47.6211 2.77441 46.0393 2.58891V2.01645C46.0393 0.90457 45.0895 0 43.9221 0H5.70052C5.25779 0 4.84632 0.130078 4.5061 0.352266C4.16587 0.130078 3.75453 0 3.31168 0H2.11727C0.949799 0 0 0.90457 0 2.01645V57.9836C0 59.0954 0.949799 60 2.11727 60H42.7277C43.8951 60 44.8449 59.0954 44.8449 57.9836V53.8829C45.5512 53.5557 46.0393 52.8653 46.0393 52.0683V34.5498C46.0393 34.0644 45.6263 33.6709 45.1165 33.6709C44.6067 33.6709 44.1936 34.0644 44.1936 34.5498V52.0684C44.1936 52.211 44.0718 52.327 43.9221 52.327H5.70052C5.55077 52.327 5.42895 52.211 5.42895 52.0684V8.65219C5.42895 8.1668 5.01588 7.77328 4.5061 7.77328C3.99632 7.77328 3.58325 8.1668 3.58325 8.65219V52.0683C3.58325 52.2109 3.46143 52.3269 3.31168 52.3269H2.11727C1.96752 52.3269 1.8457 52.2109 1.8457 52.0683V2.01645C1.8457 1.87383 1.96752 1.75781 2.11727 1.75781H3.31168C3.46143 1.75781 3.58325 1.87383 3.58325 2.01645V5.42918C3.58325 5.91457 3.99632 6.30809 4.5061 6.30809C5.01588 6.30809 5.42895 5.91457 5.42895 5.42918V2.01656C5.42895 1.87395 5.55077 1.75793 5.70052 1.75793H43.9219C44.0717 1.75793 44.1935 1.87395 44.1935 2.01656V2.47875C42.3736 2.47535 40.5519 2.77535 38.7932 3.38496C34.8966 4.73578 31.7771 7.44211 30.0097 11.0057C28.2406 14.5721 28.0409 18.5629 29.4472 22.2424C30.8535 25.9221 33.7 28.8568 37.4621 30.506C40.3879 31.7885 43.5901 32.172 46.7035 31.642L49.7657 39.6545C48.8638 40.3158 48.4688 41.4768 48.8757 42.5415L48.9194 42.656C49.1641 43.2963 49.6583 43.8062 50.311 44.0918C50.3498 44.1088 50.3888 44.1248 50.4281 44.14C50.6958 46.432 51.4118 49.1775 52.4609 51.9226C52.7727 52.738 53.1096 53.5432 53.4625 54.3157C53.6658 54.7609 54.2093 54.9646 54.6769 54.771C55.1442 54.5773 55.3582 54.0594 55.1549 53.6143C54.817 52.8746 54.4941 52.1032 54.1954 51.3213C53.2325 48.8021 52.5659 46.2983 52.2931 44.1932C52.3162 44.1858 52.3392 44.178 52.3624 44.1701L55.9278 42.9341C55.9504 42.9264 55.9725 42.9183 55.9948 42.91C57.2066 44.6897 58.3861 47.0166 59.3486 49.535C60.1849 51.7234 60.7998 53.9025 61.1269 55.8369C61.2921 56.8147 60.6962 57.7727 59.7094 58.1148C58.7228 58.4566 57.6196 58.0879 57.0862 57.2374C56.9137 56.9623 56.7401 56.673 56.5701 56.3779C56.3251 55.9522 55.764 55.7964 55.3172 56.0297C54.8703 56.263 54.7066 56.7973 54.9516 57.2229C55.1324 57.537 55.3176 57.8452 55.5016 58.1388C56.4884 59.7121 58.5232 60.3963 60.3407 59.7666C62.1581 59.1366 63.2549 57.3663 62.9488 55.5574ZM2.11714 54.0847H3.31156C3.75441 54.0847 4.16575 53.9546 4.50598 53.7325C4.8462 53.9546 5.25755 54.0847 5.70039 54.0847H42.9991V55.285H23.1391C22.6293 55.285 22.2162 55.6785 22.2162 56.1639C22.2162 56.6493 22.6293 57.0428 23.1391 57.0428H42.9992V57.9834C42.9992 58.1261 42.8774 58.2421 42.7277 58.2421H2.11727C1.96752 58.2421 1.8457 58.1261 1.8457 57.9834V57.0428H10.0005C10.5103 57.0428 10.9234 56.6493 10.9234 56.1639C10.9234 55.6785 10.5103 55.285 10.0005 55.285H1.8457V54.0682C1.93467 54.0792 2.02511 54.0847 2.11714 54.0847ZM38.234 28.9091C34.9227 27.4576 32.4182 24.8764 31.1818 21.6411C29.9453 18.4058 30.1217 14.8954 31.6787 11.7564C33.237 8.61445 35.9879 6.22805 39.4247 5.03672C40.9645 4.50305 42.5608 4.23727 44.1519 4.23727C46.1121 4.23727 48.0643 4.64039 49.8937 5.44231C53.205 6.89379 55.7095 9.47496 56.9458 12.7103C59.504 19.4038 55.8062 26.8526 48.7029 29.3147C45.2662 30.506 41.5484 30.362 38.234 28.9091ZM48.51 31.2285C48.7861 31.1486 49.0611 31.0612 49.3344 30.9666C49.6088 30.8714 49.8788 30.7697 50.1442 30.6616L53.1055 38.3693L51.4572 38.9407L48.51 31.2285ZM55.777 40.8675C55.6809 41.061 55.5103 41.2083 55.2965 41.2823L51.731 42.5183C51.5171 42.5926 51.2864 42.5842 51.0816 42.4945C50.8805 42.4065 50.7285 42.2504 50.6537 42.0546L50.61 41.9401C50.4546 41.5335 50.6839 41.0794 51.1212 40.9279L54.6868 39.6919C55.125 39.5398 55.6081 39.7481 55.7639 40.1551L55.8077 40.2702C55.8824 40.4653 55.8715 40.6775 55.777 40.8675Z" fill="white"/>
<path d="M54.8718 21.9039C56.2364 19.1641 56.3934 16.0995 55.3138 13.2746C54.2343 10.4496 52.0457 8.19805 49.1511 6.93465C46.2606 5.67301 43.0177 5.55078 40.0197 6.59C33.8169 8.74004 30.5849 15.2374 32.8152 21.0734C34.5558 25.6278 39.116 28.4541 43.9833 28.454C45.3529 28.4539 46.7473 28.2301 48.1094 27.7579C51.1076 26.7186 53.5092 24.6396 54.8718 21.9039ZM47.4782 26.1061C47.0022 26.2709 46.5217 26.4002 46.0401 26.4951V10.0343C46.0401 9.54887 45.6271 9.15535 45.1173 9.15535C44.6075 9.15535 44.1944 9.54887 44.1944 10.0343V26.694C40.0001 26.7806 36.0429 24.3795 34.5496 20.4723C32.6674 15.547 35.4044 10.0605 40.651 8.24188C41.7924 7.84625 42.9751 7.64926 44.1539 7.64926C45.5976 7.64926 47.0354 7.94481 48.3822 8.53274C50.8242 9.59856 52.6699 11.4962 53.5793 13.8758C54.4888 16.2554 54.3555 18.8389 53.2042 21.1504C52.0508 23.4659 50.0174 25.2259 47.4782 26.1061Z" fill="white"/>
</g>
<defs>
<clipPath id="clip0_4533_14185">
<rect width="63" height="60" fill="white"/>
</clipPath>
</defs>
</svg>
