<svg width="58" height="59" viewBox="0 0 58 59" fill="none" xmlns="http://www.w3.org/2000/svg">
<path d="M45.4341 0H12.5674C8.83225 0.00491667 5.80561 3.08373 5.80078 6.88333V52.1167C5.80561 55.9163 8.83225 58.9951 12.5674 59H49.3008C50.9025 59 52.2008 57.6794 52.2008 56.05V14.75C52.2008 13.1206 50.9025 11.8 49.3008 11.8H48.3341V2.95C48.3341 1.32062 47.0359 0 45.4341 0ZM9.15511 3.40627C10.056 2.47898 11.2856 1.96077 12.5674 1.96667H45.4341C45.9677 1.96667 46.4008 2.4072 46.4008 2.95V11.8H44.4674V5.9C44.4674 4.81342 43.6023 3.93333 42.5341 3.93333H12.5674C10.9657 3.93333 9.66745 5.25395 9.66745 6.88333V10.7911C8.54611 9.9415 7.84431 8.63662 7.74571 7.21865C7.64711 5.7997 8.16235 4.4073 9.15511 3.40627ZM12.5674 11.8C12.2426 11.8 11.9188 11.7675 11.6008 11.7017V6.88333C11.6008 6.34053 12.0338 5.9 12.5674 5.9H42.5341V11.8H12.5674ZM7.73411 52.1167V11.7017C8.08888 12.037 8.56351 12.4264 9.16865 12.7882C9.70708 13.1108 10.2117 13.3291 10.6341 13.4785V56.6164C8.87478 55.8356 7.73701 54.0696 7.73411 52.1167ZM50.2674 14.75V56.05C50.2674 56.5928 49.8344 57.0333 49.3008 57.0333H12.5674V13.7667H49.3008C49.8344 13.7667 50.2674 14.2072 50.2674 14.75Z" fill="white"/>
<path d="M43.7639 16.8473C41.1172 16.2593 38.4221 17.6143 37.2737 20.111C36.1253 22.6077 36.829 25.5803 38.9683 27.2707C39.3869 27.6237 39.6305 28.1478 39.6324 28.7004C38.4753 29.1115 37.701 30.2216 37.701 31.4685C37.701 32.7154 38.4753 33.8256 39.6324 34.2366V35.4009C39.6324 37.0302 40.9306 38.3509 42.5324 38.3509C44.1342 38.3509 45.4324 37.0302 45.4324 35.4009V34.2366C46.5885 33.8256 47.3638 32.7164 47.3648 31.4705C47.3657 30.2246 46.5934 29.1134 45.4382 28.7004C45.4614 28.1114 45.7369 27.5617 46.1912 27.1949C47.9235 25.7652 48.6959 23.4514 48.1777 21.2438C47.6606 19.0372 45.9437 17.3272 43.7639 16.8473ZM43.4991 35.4009C43.4991 35.9437 43.066 36.3842 42.5324 36.3842C41.9988 36.3842 41.5657 35.9437 41.5657 35.4009V34.4175H43.4991V35.4009ZM44.4657 32.4509H40.5991C40.0655 32.4509 39.6324 32.0103 39.6324 31.4675C39.6324 30.9247 40.0655 30.4842 40.5991 30.4842H44.4657C44.9993 30.4842 45.4324 30.9247 45.4324 31.4675C45.4324 32.0103 44.9993 32.4509 44.4657 32.4509ZM44.9684 25.6718C44.1119 26.3709 43.5812 27.4024 43.5058 28.5175H41.559C41.5048 27.427 40.9964 26.4112 40.1612 25.7249C38.862 24.6992 38.3429 22.9489 38.8668 21.3628C39.3917 19.7767 40.8446 18.7019 42.4899 18.6842C44.1351 18.6665 45.6103 19.7088 46.169 21.2822C46.7277 22.8565 46.2454 24.6176 44.9684 25.6718Z" fill="white"/>
<path d="M34.8 41.2995V35.1261C35.41 34.5725 35.7618 33.7829 35.7667 32.951V28.5161C35.7667 26.8868 34.4684 25.5661 32.8667 25.5661H30.9333V24.5828C30.9333 22.9534 29.6351 21.6328 28.0333 21.6328H22.2333C20.6316 21.6328 19.3333 22.9534 19.3333 24.5828V25.5661H17.4C15.7982 25.5661 14.5 26.8868 14.5 28.5161V32.951C14.5048 33.7839 14.8557 34.5745 15.4667 35.1291V41.2995C15.4667 42.9289 16.7649 44.2495 18.3667 44.2495H31.9C33.5018 44.2495 34.8 42.9289 34.8 41.2995ZM21.2667 24.5828C21.2667 24.04 21.6997 23.5995 22.2333 23.5995H28.0333C28.5669 23.5995 29 24.04 29 24.5828V25.5661H21.2667V24.5828ZM16.4333 28.5161C16.4333 27.9733 16.8664 27.5328 17.4 27.5328H32.8667C33.4003 27.5328 33.8333 27.9733 33.8333 28.5161V32.951C33.8333 33.3119 33.639 33.6432 33.3268 33.8153C33.2678 33.8488 33.205 33.8763 33.1402 33.8969L27.8236 35.5175C27.5007 34.8478 26.8337 34.4211 26.1 34.4161H24.1667C23.432 34.4191 22.7621 34.8459 22.4392 35.5175L17.1545 33.9058C17.0704 33.8802 16.9901 33.8448 16.9147 33.7996C16.6141 33.6265 16.4295 33.302 16.4314 32.951L16.4333 28.5161ZM26.1 38.3495H24.1667V36.3828H26.1V38.3495ZM17.4 41.2995V36.0337L22.2333 37.5087V38.3495C22.2333 39.4361 23.0985 40.3161 24.1667 40.3161H26.1C27.1682 40.3161 28.0333 39.4361 28.0333 38.3495V37.5077L32.8667 36.0327V41.2995C32.8667 41.8423 32.4336 42.2828 31.9 42.2828H18.3667C17.8331 42.2828 17.4 41.8423 17.4 41.2995Z" fill="white"/>
<path d="M33.8333 7.86719H15.4667C14.9331 7.86719 14.5 8.30772 14.5 8.85052C14.5 9.39332 14.9331 9.83385 15.4667 9.83385H33.8333C34.3669 9.83385 34.8 9.39332 34.8 8.85052C34.8 8.30772 34.3669 7.86719 33.8333 7.86719Z" fill="white"/>
<path d="M38.6638 7.86719H37.6971C37.1635 7.86719 36.7305 8.30772 36.7305 8.85052C36.7305 9.39332 37.1635 9.83385 37.6971 9.83385H38.6638C39.1974 9.83385 39.6305 9.39332 39.6305 8.85052C39.6305 8.30772 39.1974 7.86719 38.6638 7.86719Z" fill="white"/>
<path d="M41.5654 48.1797H20.2987C19.7651 48.1797 19.332 48.6202 19.332 49.163C19.332 49.7058 19.7651 50.1464 20.2987 50.1464H41.5654C42.099 50.1464 42.532 49.7058 42.532 49.163C42.532 48.6202 42.099 48.1797 41.5654 48.1797Z" fill="white"/>
<path d="M35.7654 52.1172H20.2987C19.7651 52.1172 19.332 52.5577 19.332 53.1005C19.332 53.6433 19.7651 54.0839 20.2987 54.0839H35.7654C36.299 54.0839 36.732 53.6433 36.732 53.1005C36.732 52.5577 36.299 52.1172 35.7654 52.1172Z" fill="white"/>
<path d="M41.568 52.1172H39.6346C39.101 52.1172 38.668 52.5577 38.668 53.1005C38.668 53.6433 39.101 54.0839 39.6346 54.0839H41.568C42.1016 54.0839 42.5346 53.6433 42.5346 53.1005C42.5346 52.5577 42.1016 52.1172 41.568 52.1172Z" fill="white"/>
</svg>
