<svg width="62" height="62" viewBox="0 0 62 62" fill="none" xmlns="http://www.w3.org/2000/svg">
<g clip-path="url(#clip0_4533_11013)">
<path fill-rule="evenodd" clip-rule="evenodd" d="M48.4913 56.478H23.5508C23.1472 56.478 22.8243 56.1503 22.8243 55.7514V51.291H15.2963V55.7514C15.2963 56.15 14.9734 56.478 14.5697 56.478H8.64134C5.35654 56.478 2.6875 53.809 2.6875 50.5242C2.6875 47.2394 5.35654 44.5703 8.64134 44.5703H48.4963C48.8949 44.5703 49.2229 44.8984 49.2229 45.2969V55.7514C49.2178 56.15 48.8949 56.478 48.4913 56.478ZM24.2774 55.0249H47.7647V46.0234H8.64134C6.15903 46.0234 4.14063 48.0418 4.14063 50.5242C4.14063 53.0065 6.15867 55.0249 8.64134 55.0249H13.8483V50.5645C13.8483 50.166 14.1712 49.8379 14.5748 49.8379L23.5559 49.8383C23.9595 49.8383 24.2825 50.1663 24.2825 50.5648L24.2821 55.0249H24.277H24.2774Z" fill="white"/>
<path fill-rule="evenodd" clip-rule="evenodd" d="M3.41407 51.2784C3.01046 51.2784 2.6875 50.9504 2.6875 50.5519V5.46958C2.6875 2.45216 5.13966 0 8.15708 0H48.4963C48.8949 0 49.2229 0.322958 49.2229 0.726565V11.3021C49.2229 12.2586 47.7698 12.259 47.7698 11.3021V1.45313H8.16181C5.94687 1.45313 4.14572 3.25429 4.14572 5.46958V50.5519C4.14063 50.9504 3.81767 51.2784 3.41407 51.2784ZM48.4913 46.0261C48.0927 46.0261 47.7647 45.6981 47.7647 45.2995V34.724C47.7647 33.7686 49.2178 33.7686 49.2178 34.724V45.2995C49.2175 45.6981 48.8949 46.0261 48.4913 46.0261Z" fill="white"/>
<path fill-rule="evenodd" clip-rule="evenodd" d="M44.2926 51.293H9.27612C8.3196 51.293 8.31924 49.8398 9.27612 49.8398L44.2926 49.8402C45.2455 49.8402 45.2516 51.2933 44.2926 51.2933V51.293Z" fill="white"/>
<path fill-rule="evenodd" clip-rule="evenodd" d="M14.5703 61.9996C14.1787 61.9996 13.8438 61.6749 13.8438 61.2731V50.5664C13.8438 50.1679 14.1667 49.8398 14.5703 49.8398H23.5514C23.955 49.8398 24.278 50.1679 24.278 50.5664V61.2731C24.278 61.9557 23.4199 62.2507 22.9916 61.7374L19.0609 57.0499L15.1301 61.7374C14.9888 61.9088 14.7821 61.9996 14.57 61.9996H14.5703ZM19.0609 55.1932C19.2781 55.1932 19.4797 55.2891 19.6159 55.4507L22.8201 59.2754V51.2933L15.2972 51.293V59.275L18.501 55.4504C18.6424 55.2891 18.8491 55.1932 19.0612 55.1932H19.0609Z" fill="white"/>
<path fill-rule="evenodd" clip-rule="evenodd" d="M11.8945 46.0253C11.4909 46.0253 11.168 45.6973 11.168 45.2988V0.726159C11.168 -0.231455 12.6211 -0.231818 12.6211 0.726159V45.2988C12.6207 45.6973 12.2981 46.0253 11.8945 46.0253Z" fill="white"/>
<path fill-rule="evenodd" clip-rule="evenodd" d="M48.4922 35.4516C48.4115 35.4516 48.3309 35.4367 48.2549 35.4113C36.1504 31.1983 37.6289 17.0201 37.8356 15.4206C37.881 15.0773 38.1637 14.7798 38.507 14.7547C46.2892 14.1814 47.5011 10.582 48.4972 10.582C48.7294 10.582 48.9463 10.6932 49.0825 10.8796C49.1028 10.9097 51.6509 14.2501 58.4773 14.7547C58.8355 14.7798 59.1233 15.0675 59.1483 15.4257C59.3554 17.0201 60.8438 31.1983 48.7294 35.4113C48.6538 35.4367 48.5732 35.4516 48.4925 35.4516H48.4922ZM39.2183 16.1472C38.9509 19.0382 38.5724 30.3152 48.4922 33.948C58.4218 30.3152 58.0385 19.0382 57.766 16.1472C52.4378 15.6175 49.6176 13.4832 48.4922 12.3832C47.3671 13.4832 44.5465 15.6171 39.2183 16.1472Z" fill="white"/>
<path fill-rule="evenodd" clip-rule="evenodd" d="M47.1258 25.9466C46.5965 25.9466 45.5695 24.6926 44.9312 24.0546C44.2599 23.3833 45.2738 22.3447 45.9604 23.0255L47.1262 24.1912L51.0264 20.291C51.6999 19.6175 52.7327 20.6372 52.0555 21.3202L47.6406 25.7352C47.4989 25.8765 47.3125 25.947 47.1258 25.947V25.9466Z" fill="white"/>
<path fill-rule="evenodd" clip-rule="evenodd" d="M32.619 25.9102H15.8121C14.8545 25.9102 14.8541 24.457 15.8121 24.457H32.619C33.5755 24.457 33.5755 25.9102 32.619 25.9102Z" fill="white"/>
<path fill-rule="evenodd" clip-rule="evenodd" d="M35.8384 32.8164H15.8074C14.8508 32.8164 14.8505 31.3633 15.8074 31.3633L35.8384 31.3636C36.7913 31.3636 36.7975 32.8168 35.8384 32.8168V32.8164Z" fill="white"/>
<path fill-rule="evenodd" clip-rule="evenodd" d="M40.329 39.7188H15.8074C14.8508 39.7188 14.8505 38.2656 15.8074 38.2656H40.329C41.2822 38.2656 41.288 39.7188 40.329 39.7188Z" fill="white"/>
</g>
<defs>
<clipPath id="clip0_4533_11013">
<rect width="62" height="62" fill="white"/>
</clipPath>
</defs>
</svg>
