<svg width="17" height="17" viewBox="0 0 17 17" fill="none" xmlns="http://www.w3.org/2000/svg">
<path d="M8.60992 7.69637C8.53909 7.68929 8.45409 7.68929 8.37617 7.69637C6.69031 7.63971 5.35156 6.25859 5.35156 4.55876C5.35156 2.82351 6.75406 1.41406 8.49659 1.41406C10.232 1.41406 11.6416 2.82351 11.6416 4.55876C11.6345 6.25859 10.2958 7.63971 8.60992 7.69637Z" stroke="white" stroke-linecap="round" stroke-linejoin="round"/>
<path d="M8.4984 15.4424C7.20924 15.4424 5.92719 15.1166 4.94969 14.465C3.23552 13.3176 3.23552 11.4478 4.94969 10.3075C6.8976 9.00428 10.0922 9.00428 12.0401 10.3075" stroke="white" stroke-linecap="round" stroke-linejoin="round"/>
<path d="M12.1787 16.1372C11.872 16.0711 11.5889 15.9235 11.359 15.7101C11.1291 15.4967 10.961 15.2253 10.8724 14.9244C10.7837 14.6236 10.7778 14.3044 10.8552 14.0004C10.9327 13.6965 11.0906 13.419 11.3124 13.1972C11.5342 12.9754 11.8117 12.8175 12.1157 12.7401C12.4197 12.6627 12.7389 12.6686 13.0398 12.7572C13.3407 12.8459 13.6121 13.014 13.8255 13.2438C14.039 13.4737 14.1865 13.7568 14.2526 14.0634C14.264 14.1167 14.2961 14.1632 14.3419 14.1928C14.3876 14.2224 14.4432 14.2326 14.4965 14.2212C14.5497 14.2098 14.5963 14.1777 14.6259 14.1319C14.6555 14.0862 14.6657 14.0306 14.6543 13.9774C14.5727 13.5985 14.3905 13.2487 14.1269 12.9647C13.8632 12.6807 13.5279 12.4729 13.1562 12.3634C12.7845 12.2538 12.3901 12.2464 12.0145 12.3421C11.639 12.4377 11.2962 12.6328 11.0221 12.9068C10.7481 13.1808 10.553 13.5236 10.4573 13.8991C10.3617 14.2746 10.369 14.6689 10.4786 15.0406C10.5881 15.4123 10.7959 15.7476 11.0799 16.0112C11.364 16.2748 11.7138 16.457 12.0927 16.5386C12.1192 16.5446 12.1466 16.5453 12.1734 16.5407C12.2002 16.536 12.2257 16.5261 12.2487 16.5115C12.2716 16.4969 12.2914 16.4778 12.3069 16.4555C12.3224 16.4332 12.3333 16.408 12.339 16.3814C12.3447 16.3549 12.345 16.3274 12.34 16.3007C12.335 16.274 12.3248 16.2485 12.3099 16.2258C12.295 16.2031 12.2757 16.1835 12.2532 16.1683C12.2306 16.1531 12.2053 16.1425 12.1787 16.1372Z" fill="white"/>
<path d="M12.3407 13.1994V14.2258H11.7248C11.6704 14.2258 11.6182 14.2475 11.5797 14.286C11.5412 14.3245 11.5195 14.3767 11.5195 14.4311C11.5195 14.4856 11.5412 14.5378 11.5797 14.5763C11.6182 14.6148 11.6704 14.6364 11.7248 14.6364H12.5461C12.6005 14.6364 12.6527 14.6148 12.6912 14.5763C12.7297 14.5378 12.7514 14.4856 12.7514 14.4311V13.1994C12.7514 13.145 12.7297 13.0928 12.6912 13.0543C12.6527 13.0158 12.6005 12.9941 12.5461 12.9941C12.4916 12.9941 12.4394 13.0158 12.4009 13.0543C12.3624 13.0928 12.3407 13.145 12.3407 13.1994Z" fill="white"/>
<path d="M13.7798 14.3301C13.5159 14.3301 13.2579 14.4083 13.0384 14.555C12.8189 14.7016 12.6479 14.91 12.5469 15.1538C12.4459 15.3976 12.4195 15.6659 12.471 15.9247C12.5224 16.1836 12.6495 16.4213 12.8362 16.608C13.0228 16.7946 13.2606 16.9217 13.5194 16.9731C13.7783 17.0246 14.0466 16.9982 14.2905 16.8972C14.5343 16.7962 14.7427 16.6252 14.8894 16.4058C15.036 16.1863 15.1143 15.9283 15.1143 15.6644C15.1139 15.3106 14.9732 14.9715 14.723 14.7213C14.4728 14.4711 14.1336 14.3304 13.7798 14.3301ZM13.7798 16.5882C13.5971 16.5882 13.4184 16.534 13.2665 16.4325C13.1146 16.331 12.9962 16.1867 12.9262 16.0179C12.8563 15.8491 12.838 15.6634 12.8737 15.4842C12.9093 15.305 12.9973 15.1404 13.1265 15.0112C13.2557 14.882 13.4203 14.794 13.5996 14.7584C13.7788 14.7228 13.9645 14.741 14.1333 14.811C14.3022 14.8809 14.4464 14.9993 14.548 15.1512C14.6495 15.3031 14.7037 15.4817 14.7037 15.6644C14.7034 15.9093 14.6059 16.1441 14.4327 16.3173C14.2596 16.4905 14.0247 16.5879 13.7798 16.5882Z" fill="white"/>
<path d="M13.7795 14.9434C13.7251 14.9434 13.6729 14.965 13.6344 15.0035C13.5958 15.042 13.5742 15.0942 13.5742 15.1486V15.6619C13.5742 15.7163 13.5958 15.7685 13.6344 15.807C13.6729 15.8455 13.7251 15.8671 13.7795 15.8671C13.834 15.8671 13.8862 15.8455 13.9247 15.807C13.9632 15.7685 13.9848 15.7163 13.9848 15.6619V15.1486C13.9848 15.0942 13.9632 15.042 13.9247 15.0035C13.8862 14.965 13.834 14.9434 13.7795 14.9434Z" fill="white"/>
<path d="M13.7795 16.3813C13.8929 16.3813 13.9848 16.2894 13.9848 16.176C13.9848 16.0626 13.8929 15.9707 13.7795 15.9707C13.6661 15.9707 13.5742 16.0626 13.5742 16.176C13.5742 16.2894 13.6661 16.3813 13.7795 16.3813Z" fill="white"/>
</svg>
