<svg width="20" height="20" viewBox="0 0 20 20" fill="none" xmlns="http://www.w3.org/2000/svg">
<path d="M17.082 8.49102H14.6737C12.6987 8.49102 11.0904 6.88268 11.0904 4.90768V2.49935C11.0904 2.04102 10.7154 1.66602 10.257 1.66602H6.7237C4.15703 1.66602 2.08203 3.33268 2.08203 6.30768V13.691C2.08203 16.666 4.15703 18.3327 6.7237 18.3327H13.2737C15.8404 18.3327 17.9154 16.666 17.9154 13.691V9.32435C17.9154 8.86602 17.5404 8.49102 17.082 8.49102ZM10.232 13.1493L8.56536 14.816C8.50703 14.8744 8.43203 14.9243 8.35703 14.9494C8.28203 14.9827 8.20703 14.9993 8.1237 14.9993C8.04036 14.9993 7.96536 14.9827 7.89036 14.9494C7.8237 14.9243 7.75703 14.8744 7.70703 14.8244C7.6987 14.816 7.69036 14.816 7.69036 14.8077L6.0237 13.141C5.78203 12.8994 5.78203 12.4993 6.0237 12.2577C6.26536 12.016 6.66536 12.016 6.90703 12.2577L7.4987 12.866V9.37435C7.4987 9.03268 7.78203 8.74935 8.1237 8.74935C8.46536 8.74935 8.7487 9.03268 8.7487 9.37435V12.866L9.3487 12.266C9.59036 12.0243 9.99036 12.0243 10.232 12.266C10.4737 12.5077 10.4737 12.9077 10.232 13.1493Z" fill="white"/>
<path d="M14.5221 7.34207C15.3138 7.3504 16.4138 7.3504 17.3555 7.3504C17.8305 7.3504 18.0805 6.79207 17.7471 6.45873C16.5471 5.2504 14.3971 3.0754 13.1638 1.84207C12.8221 1.5004 12.2305 1.73373 12.2305 2.20873V5.11707C12.2305 6.33373 13.2638 7.34207 14.5221 7.34207Z" fill="white"/>
</svg>
