<svg width="27" height="27" viewBox="0 0 27 27" fill="none" xmlns="http://www.w3.org/2000/svg">
<path d="M23.0625 11.4637H19.8113C17.145 11.4637 14.9738 9.2925 14.9738 6.62625V3.375C14.9738 2.75625 14.4675 2.25 13.8488 2.25H9.07875C5.61375 2.25 2.8125 4.5 2.8125 8.51625V18.4837C2.8125 22.5 5.61375 24.75 9.07875 24.75H17.9213C21.3862 24.75 24.1875 22.5 24.1875 18.4837V12.5887C24.1875 11.97 23.6812 11.4637 23.0625 11.4637ZM13.815 17.7525L11.565 20.0025C11.4862 20.0813 11.385 20.1488 11.2837 20.1825C11.1825 20.2275 11.0813 20.25 10.9688 20.25C10.8562 20.25 10.755 20.2275 10.6538 20.1825C10.5638 20.1488 10.4738 20.0813 10.4062 20.0138C10.395 20.0025 10.3837 20.0025 10.3837 19.9913L8.13375 17.7413C7.8075 17.415 7.8075 16.875 8.13375 16.5487C8.46 16.2225 9 16.2225 9.32625 16.5487L10.125 17.37V12.6562C10.125 12.195 10.5075 11.8125 10.9688 11.8125C11.43 11.8125 11.8125 12.195 11.8125 12.6562V17.37L12.6225 16.56C12.9488 16.2338 13.4887 16.2338 13.815 16.56C14.1412 16.8863 14.1412 17.4262 13.815 17.7525Z" fill="#0A3A81"/>
<path d="M19.6094 9.90984C20.6781 9.92109 22.1631 9.92109 23.4344 9.92109C24.0756 9.92109 24.4131 9.16734 23.9631 8.71734C22.3431 7.08609 19.4406 4.14984 17.7756 2.48484C17.3144 2.02359 16.5156 2.33859 16.5156 2.97984V6.90609C16.5156 8.54859 17.9106 9.90984 19.6094 9.90984Z" fill="#0A3A81"/>
</svg>
