<svg width="22" height="22" viewBox="0 0 22 22" fill="none" xmlns="http://www.w3.org/2000/svg">
<g clip-path="url(#clip0_5310_34658)">
<path d="M11.4283 5.12809e-08C8.78355 -0.000309759 6.42885 1.40318 5.09045 3.53686H4.98303C2.20025 3.53686 0 5.83627 0 8.64343C0 11.4506 2.22304 13.7487 4.98303 13.7487H7.56116C8.47872 13.7487 8.47872 12.3723 7.56116 12.3723H4.98303C2.98209 12.3723 1.375 10.7331 1.375 8.64343C1.375 6.56447 2.98209 4.91321 4.98303 4.91321H5.4812C5.7306 4.91321 5.95818 4.77495 6.08008 4.55737C7.18748 2.58085 9.25009 1.375 11.4283 1.375C14.5242 1.375 17.1666 3.75497 17.5594 6.95825C17.6018 7.3036 17.8936 7.56116 18.2443 7.56116C19.7225 7.56116 20.625 8.75434 20.625 9.96741C20.625 11.3092 19.5928 12.3723 18.306 12.3723H14.4388C13.5213 12.3723 13.5213 13.7487 14.4388 13.7487H18.306C20.3519 13.7487 22 12.0696 22 9.96741C22 8.0515 20.6629 6.45953 18.8337 6.22778C18.1942 2.80034 15.1942 0.000441186 11.4283 5.12809e-08ZM12.1346 3.02527C11.2358 3.02527 11.1982 4.37246 12.1346 4.40027C13.2742 4.40027 14.1572 5.22637 14.271 6.18079C14.3891 7.09117 15.7548 6.91392 15.6366 6.00355C15.3791 4.14837 13.7698 3.01767 12.1346 3.02527ZM11 8.25C10.6127 8.25 10.3125 8.56421 10.3125 8.9375V16.9042L8.73205 15.3224C8.07756 14.6674 7.10291 15.6376 7.76525 16.2999L10.5139 19.0486C10.7829 19.3175 11.2185 19.3175 11.4874 19.0486L14.2414 16.2946C14.9143 15.6447 13.9061 14.6556 13.2666 15.3251L11.6875 16.9042C11.6875 16.9042 11.6875 11.5931 11.6875 8.9375C11.6875 8.55883 11.3873 8.25 11 8.25ZM7.56115 22H14.4388C15.3586 22 15.3586 20.625 14.4388 20.625H7.56115C6.64404 20.625 6.64404 22 7.56115 22Z" fill="white"/>
</g>
<defs>
<clipPath id="clip0_5310_34658">
<rect width="22" height="22" fill="white"/>
</clipPath>
</defs>
</svg>
