<svg width="28" height="28" viewBox="0 0 28 28" fill="none" xmlns="http://www.w3.org/2000/svg">
<path d="M23.916 11.888H20.5443C17.7793 11.888 15.5277 9.63634 15.5277 6.87134V3.49967C15.5277 2.85801 15.0027 2.33301 14.361 2.33301H9.41435C5.82102 2.33301 2.91602 4.66634 2.91602 8.83134V19.168C2.91602 23.333 5.82102 25.6663 9.41435 25.6663H18.5843C22.1777 25.6663 25.0827 23.333 25.0827 19.168V13.0547C25.0827 12.413 24.5577 11.888 23.916 11.888ZM14.326 18.4097L11.9927 20.743C11.911 20.8247 11.806 20.8947 11.701 20.9297C11.596 20.9763 11.491 20.9997 11.3743 20.9997C11.2577 20.9997 11.1527 20.9763 11.0477 20.9297C10.9543 20.8947 10.861 20.8247 10.791 20.7547C10.7793 20.743 10.7677 20.743 10.7677 20.7313L8.43435 18.398C8.09602 18.0597 8.09602 17.4997 8.43435 17.1613C8.77268 16.823 9.33268 16.823 9.67102 17.1613L10.4993 18.013V13.1247C10.4993 12.6463 10.896 12.2497 11.3743 12.2497C11.8527 12.2497 12.2493 12.6463 12.2493 13.1247V18.013L13.0893 17.173C13.4277 16.8347 13.9877 16.8347 14.326 17.173C14.6643 17.5113 14.6643 18.0713 14.326 18.4097Z" fill="#0A3A81"/>
<path d="M20.3333 10.2789C21.4417 10.2906 22.9817 10.2906 24.3 10.2906C24.965 10.2906 25.315 9.50889 24.8483 9.04223C23.1683 7.35056 20.1583 4.30556 18.4317 2.57889C17.9533 2.10056 17.125 2.42723 17.125 3.09223V7.16389C17.125 8.86723 18.5717 10.2789 20.3333 10.2789Z" fill="#0A3A81"/>
</svg>
