<svg width="14" height="16" viewBox="0 0 14 16" fill="none" xmlns="http://www.w3.org/2000/svg">
<path d="M13.5438 4.60078C12.9639 5.21929 11.983 5.22219 11.3995 4.60711L10.3441 3.49456C9.75081 2.86916 9.74791 1.88967 10.3375 1.26078C10.625 0.954115 10.9783 0.800781 11.3973 0.800781C11.8158 0.800781 12.1687 0.954115 12.4562 1.26078L13.5062 2.38078C13.7937 2.68745 13.9437 3.05758 13.9562 3.49118C13.9688 3.92425 13.8313 4.29411 13.5438 4.60078ZM9.89647 5.33034C10.735 6.22483 10.735 7.61673 9.89647 8.51122L4.09648 14.6979C3.67604 15.1463 3.08873 15.4008 2.47399 15.4008C1.24572 15.4008 0.25 14.4051 0.25 13.1768V12.9643C0.25 12.3453 0.485611 11.7495 0.908981 11.2979L6.50353 5.33035C7.42224 4.35039 8.97776 4.35039 9.89647 5.33034Z" fill="white"/>
</svg>
