<svg width="77" height="77" viewBox="0 0 77 77" fill="none" xmlns="http://www.w3.org/2000/svg">
<path d="M59.7591 4.8125H23.5931C22.6138 4.81353 21.675 5.20298 20.9826 5.89539C20.2902 6.58781 19.9007 7.52664 19.8997 8.50588V11.2852H17.3372C16.3307 11.2878 15.3664 11.6896 14.6558 12.4024C13.9452 13.1151 13.5464 14.0807 13.5469 15.0872V68.3978C13.5481 69.4026 13.9478 70.3659 14.6584 71.0764C15.369 71.7869 16.3324 72.1865 17.3372 72.1875H37.5377C37.8539 72.1833 38.1559 72.0546 38.378 71.8295C38.6002 71.6043 38.7247 71.3007 38.7247 70.9844C38.7247 70.6681 38.6002 70.3645 38.378 70.1393C38.1559 69.9141 37.8539 69.7855 37.5377 69.7812H17.3372C16.9703 69.781 16.6185 69.6351 16.359 69.3757C16.0996 69.1164 15.9536 68.7647 15.9531 68.3978V15.0872C15.952 14.7187 16.0971 14.3648 16.3566 14.1031C16.616 13.8415 16.9687 13.6934 17.3372 13.6914H21.1028C21.4219 13.6914 21.7279 13.5646 21.9535 13.339C22.1791 13.1134 22.3059 12.8073 22.3059 12.4882V8.50588C22.3063 8.16463 22.4421 7.83747 22.6834 7.59618C22.9247 7.35488 23.2518 7.21915 23.5931 7.21875H59.7591C60.1004 7.21914 60.4276 7.35485 60.669 7.59613C60.9104 7.83741 61.0463 8.16457 61.0468 8.50588V62.0091C61.0463 62.3504 60.9104 62.6775 60.669 62.9188C60.4276 63.1601 60.1004 63.2958 59.7591 63.2962H23.5931C23.4235 63.2981 23.2553 63.2661 23.0983 63.202C22.9413 63.138 22.7986 63.0433 22.6787 62.9234C22.5588 62.8035 22.4641 62.6609 22.4001 62.5038C22.336 62.3468 22.304 62.1786 22.3059 62.0091V17.3008C22.3059 16.9817 22.1791 16.6757 21.9535 16.4501C21.7279 16.2244 21.4219 16.0977 21.1028 16.0977C20.7837 16.0977 20.4777 16.2244 20.252 16.4501C20.0264 16.6757 19.8997 16.9817 19.8997 17.3008V62.0091C19.9007 62.9883 20.2901 63.9271 20.9826 64.6195C21.675 65.3119 22.6138 65.7014 23.593 65.7024H54.694V68.3978C54.6937 68.7647 54.5477 69.1165 54.2882 69.3759C54.0287 69.6353 53.6768 69.7811 53.3099 69.7812H42.3502C42.0311 69.7812 41.7251 69.908 41.4995 70.1336C41.2738 70.3593 41.1471 70.6653 41.1471 70.9844C41.1471 71.3035 41.2738 71.6095 41.4995 71.8351C41.7251 72.0607 42.0311 72.1875 42.3502 72.1875H53.3099C54.3148 72.1865 55.2782 71.7869 55.9888 71.0764C56.6993 70.366 57.0991 69.4026 57.1003 68.3978V65.7025H59.7592C60.7385 65.7015 61.6774 65.3121 62.3699 64.6197C63.0625 63.9273 63.452 62.9884 63.4531 62.0091V8.50588C63.452 7.52656 63.0624 6.58767 62.3699 5.89524C61.6774 5.20282 60.7384 4.81342 59.7591 4.8125Z" fill="white"/>
<path d="M34.0595 13.2422C33.8284 13.2421 33.6023 13.3086 33.4081 13.4338C33.2139 13.5589 33.0598 13.7373 32.9644 13.9477L28.7611 23.1968C28.6343 23.4864 28.6267 23.8142 28.7398 24.1095C28.8529 24.4047 29.0776 24.6435 29.3654 24.7743C29.6533 24.9051 29.981 24.9173 30.2778 24.8083C30.5745 24.6993 30.8164 24.4779 30.9512 24.1919L31.9236 22.0524H36.1952L37.1677 24.1919C37.3035 24.4763 37.5454 24.696 37.8415 24.8039C38.1376 24.9118 38.4642 24.8992 38.751 24.7688C39.0379 24.6385 39.2622 24.4007 39.3757 24.1067C39.4891 23.8128 39.4827 23.486 39.3577 23.1967L35.1545 13.9477C35.0591 13.7373 34.905 13.5589 34.7108 13.4338C34.5166 13.3086 34.2905 13.2421 34.0595 13.2422ZM33.0173 19.6461L34.0595 17.3533L35.1016 19.6461H33.0173Z" fill="white"/>
<path d="M41.6765 9.24219H26.4453C26.1262 9.24219 25.8202 9.36894 25.5946 9.59457C25.3689 9.8202 25.2422 10.1262 25.2422 10.4453V27.7097C25.2422 28.0288 25.369 28.3348 25.5946 28.5604C25.8202 28.786 26.1262 28.9128 26.4453 28.9128H41.6765C41.8345 28.9129 41.9909 28.8818 42.1369 28.8213C42.2829 28.7609 42.4156 28.6722 42.5273 28.5605C42.639 28.4488 42.7276 28.3161 42.7881 28.1702C42.8485 28.0242 42.8796 27.8677 42.8796 27.7097V22.1153C42.8751 21.7991 42.7464 21.4974 42.5212 21.2755C42.2961 21.0535 41.9926 20.929 41.6765 20.929C41.3603 20.929 41.0568 21.0535 40.8317 21.2755C40.6065 21.4974 40.4778 21.7991 40.4733 22.1153V26.5065H27.6484V11.6484H40.4733V17.3028C40.478 17.6188 40.6068 17.9202 40.832 18.142C41.0571 18.3638 41.3604 18.4882 41.6765 18.4882C41.9925 18.4882 42.2958 18.3638 42.521 18.142C42.7461 17.9202 42.8749 17.6188 42.8796 17.3028V10.4453C42.8796 10.2873 42.8485 10.1308 42.7881 9.98485C42.7276 9.83886 42.639 9.70621 42.5273 9.59448C42.4156 9.48275 42.2829 9.39413 42.1369 9.33369C41.9909 9.27324 41.8345 9.24215 41.6765 9.24219Z" fill="white"/>
<path d="M56.627 47.2188H35.4284C35.1123 47.2232 34.8106 47.3519 34.5886 47.5771C34.3666 47.8022 34.2422 48.1057 34.2422 48.4219C34.2422 48.738 34.3666 49.0415 34.5886 49.2667C34.8106 49.4918 35.1123 49.6205 35.4284 49.625H56.627C56.943 49.6203 57.2445 49.4915 57.4663 49.2664C57.6881 49.0413 57.8124 48.7379 57.8124 48.4219C57.8124 48.1058 57.6881 47.8025 57.4663 47.5774C57.2445 47.3523 56.943 47.2234 56.627 47.2188Z" fill="white"/>
<path d="M56.6262 56.7188H35.4276C35.1116 56.7234 34.8101 56.8523 34.5883 57.0774C34.3665 57.3025 34.2422 57.6058 34.2422 57.9219C34.2422 58.2379 34.3665 58.5413 34.5883 58.7664C34.8101 58.9915 35.1116 59.1203 35.4276 59.125H56.6262C56.9422 59.1203 57.2437 58.9915 57.4655 58.7664C57.6873 58.5413 57.8116 58.2379 57.8116 57.9219C57.8116 57.6058 57.6873 57.3025 57.4655 57.0774C57.2437 56.8523 56.9422 56.7234 56.6262 56.7188Z" fill="white"/>
<path d="M34.2266 38.9219C34.2266 39.241 34.3533 39.547 34.579 39.7726C34.8046 39.9982 35.1106 40.125 35.4297 40.125H56.6283C56.9474 40.125 57.2534 39.9982 57.479 39.7726C57.7047 39.547 57.8314 39.241 57.8314 38.9219C57.8314 38.6028 57.7047 38.2968 57.479 38.0711C57.2534 37.8455 56.9474 37.7188 56.6283 37.7188H35.4297C35.1106 37.7188 34.8046 37.8455 34.579 38.0711C34.3533 38.2968 34.2266 38.6028 34.2266 38.9219Z" fill="white"/>
<path d="M33.0545 33.834C32.9352 33.7303 32.7966 33.6512 32.6467 33.6011C32.4968 33.551 32.3384 33.5309 32.1808 33.542C32.0231 33.5532 31.8692 33.5953 31.7278 33.6659C31.5864 33.7366 31.4603 33.8344 31.3567 33.9539L28.7443 36.9641L27.708 35.4766C27.5228 35.2217 27.2451 35.0496 26.9344 34.9973C26.6237 34.945 26.3049 35.0166 26.0464 35.1967C25.788 35.3769 25.6105 35.6512 25.5521 35.9608C25.4937 36.2704 25.5591 36.5906 25.7342 36.8525L27.6534 39.6071C27.759 39.756 27.8969 39.8791 28.0568 39.9672C28.2168 40.0552 28.3945 40.106 28.5768 40.1158C28.7591 40.1255 28.9413 40.0939 29.1096 40.0233C29.278 39.9527 29.4282 39.845 29.5491 39.7081L33.1743 35.5319C33.3835 35.2908 33.4883 34.9765 33.4658 34.6581C33.4434 34.3398 33.2954 34.0434 33.0545 33.834Z" fill="white"/>
<path d="M28.607 45.0312C28.162 45.0376 27.7374 45.2189 27.425 45.5358C27.1126 45.8528 26.9375 46.2799 26.9375 46.7249C26.9375 47.1699 27.1127 47.5971 27.4251 47.914C27.7375 48.2309 28.1621 48.4121 28.607 48.4185C29.052 48.4121 29.4766 48.2308 29.789 47.9139C30.1014 47.597 30.2765 47.1698 30.2765 46.7248C30.2765 46.2798 30.1013 45.8527 29.7889 45.5358C29.4765 45.2189 29.0519 45.0376 28.607 45.0312Z" fill="white"/>
<path d="M28.6069 54.5312C28.162 54.5376 27.7374 54.7189 27.425 55.0358C27.1126 55.3527 26.9375 55.7799 26.9375 56.2249C26.9375 56.6699 27.1126 57.097 27.4251 57.4139C27.7375 57.7308 28.162 57.912 28.607 57.9184C29.0519 57.912 29.4765 57.7308 29.7889 57.4139C30.1013 57.0969 30.2764 56.6698 30.2764 56.2248C30.2764 55.7798 30.1013 55.3527 29.7888 55.0358C29.4764 54.7189 29.0519 54.5376 28.6069 54.5312Z" fill="white"/>
<path d="M45.5838 18.9062H58.3412C58.6573 18.9018 58.959 18.7731 59.181 18.5479C59.403 18.3228 59.5274 18.0193 59.5274 17.7031C59.5274 17.387 59.403 17.0835 59.181 16.8583C58.959 16.6332 58.6573 16.5045 58.3412 16.5H45.5838C45.2678 16.5047 44.9664 16.6335 44.7446 16.8586C44.5228 17.0837 44.3984 17.3871 44.3984 17.7031C44.3984 18.0192 44.5228 18.3225 44.7446 18.5476C44.9664 18.7727 45.2678 18.9016 45.5838 18.9062Z" fill="white"/>
<path d="M45.5847 13.6953H52.4157C52.7318 13.6908 53.0335 13.5621 53.2555 13.337C53.4775 13.1118 53.6019 12.8084 53.6019 12.4922C53.6019 12.176 53.4775 11.8725 53.2555 11.6474C53.0335 11.4223 52.7318 11.2935 52.4157 11.2891H45.5847C45.2685 11.2935 44.9668 11.4223 44.7449 11.6474C44.5229 11.8725 44.3984 12.176 44.3984 12.4922C44.3984 12.8084 44.5229 13.1118 44.7449 13.337C44.9668 13.5621 45.2685 13.6908 45.5847 13.6953Z" fill="white"/>
</svg>
