<svg width="55" height="63" viewBox="0 0 55 63" fill="none" xmlns="http://www.w3.org/2000/svg">
<g clip-path="url(#clip0_7412_26153)">
<path fill-rule="evenodd" clip-rule="evenodd" d="M30.9741 58.7493H6.85793C5.39401 58.7493 4.23828 57.5392 4.23828 56.0558V2.65445C4.23828 1.21012 5.39401 0 6.85793 0H44.7658C46.1912 0 47.3854 1.21012 47.3854 2.65445V40.012C47.3854 41.066 45.8445 41.066 45.8445 40.012V2.65445C45.8445 2.06891 45.3436 1.56144 44.7658 1.56144H6.85793C6.24154 1.56144 5.77925 2.06891 5.77925 2.65445V56.0558C5.77925 56.6804 6.24154 57.1879 6.85793 57.1879H30.9741C31.9757 57.1879 31.9757 58.7493 30.9741 58.7493Z" fill="white"/>
<path fill-rule="evenodd" clip-rule="evenodd" d="M20.5012 55.3145L8.39939 55.3145C7.97562 55.3145 7.62891 54.9632 7.62891 54.5338V4.21627C7.62891 3.78687 7.97562 3.43555 8.39939 3.43555H43.2253C43.6491 3.43555 43.9958 3.78687 43.9958 4.21627V30.2882C43.9958 31.3031 42.4548 31.3031 42.4548 30.2882V4.99699H9.16988V53.7531L20.5012 53.7531C21.5028 53.7531 21.5028 55.3145 20.5012 55.3145Z" fill="white"/>
<path fill-rule="evenodd" clip-rule="evenodd" d="M39.2963 18.3095H12.3293C11.3277 18.3095 11.3277 16.748 12.3293 16.748H39.2963C40.2979 16.748 40.2979 18.3095 39.2963 18.3095Z" fill="white"/>
<path fill-rule="evenodd" clip-rule="evenodd" d="M39.2963 22.7587H12.3293C11.3277 22.7587 11.3277 21.1973 12.3293 21.1973H39.2963C40.2979 21.1973 40.2979 22.7587 39.2963 22.7587Z" fill="white"/>
<path fill-rule="evenodd" clip-rule="evenodd" d="M39.2963 27.2079H12.3293C11.3277 27.2079 11.3277 25.6465 12.3293 25.6465H39.2963C40.2979 25.6465 40.2979 27.2079 39.2963 27.2079Z" fill="white"/>
<path fill-rule="evenodd" clip-rule="evenodd" d="M37.2934 14.0504H14.333C13.9092 14.0504 13.5625 13.6991 13.5625 13.2697V8.54635C13.5625 8.11695 13.9092 7.76562 14.333 7.76562H37.2934C37.7172 7.76562 38.0639 8.11695 38.0639 8.54635V13.2697C38.0639 13.6991 37.7172 14.0504 37.2934 14.0504ZM15.1035 12.489H36.5229V9.32707H15.1035V12.489Z" fill="white"/>
<path fill-rule="evenodd" clip-rule="evenodd" d="M35.2391 31.8519H12.588C11.7467 31.8519 11.7467 30.2891 12.588 30.2891H35.2391C36.0804 30.2891 36.0804 31.8519 35.2391 31.8519Z" fill="white"/>
<path fill-rule="evenodd" clip-rule="evenodd" d="M28.5514 36.56H12.4486C11.8505 36.56 11.8505 35 12.4486 35H28.5514C29.1495 35 29.1495 36.56 28.5514 36.56Z" fill="white"/>
<path fill-rule="evenodd" clip-rule="evenodd" d="M25.4394 40.56H12.5606C11.8131 40.56 11.8131 39 12.5606 39H25.4394C26.1869 39 26.1869 40.56 25.4394 40.56Z" fill="white"/>
<path fill-rule="evenodd" clip-rule="evenodd" d="M18.994 44.9677H12.3293C11.3277 44.9677 11.3277 43.4062 12.3293 43.4062H18.994C20.0342 43.4062 19.9957 44.9677 18.994 44.9677Z" fill="white"/>
<path d="M35 46C35.4103 45 35.8205 45 36.3333 45H36.8462H39" stroke="white" stroke-width="1.5" stroke-miterlimit="10" stroke-linecap="round" stroke-linejoin="round"/>
<path d="M43.0417 44.916H44.8664H45.091C47.2477 44.916 49 47.0135 49 49.5413C49 51.1548 47.8767 52.4994 46.5288 52.4994H39.25" stroke="white" stroke-width="1.5" stroke-miterlimit="10" stroke-linecap="round" stroke-linejoin="round"/>
<path d="M42.8518 43.4434V44.5314C42.8518 45.0755 42.6342 45.5107 42.3077 45.8371C41.9813 46.1635 41.4917 46.3811 41.0021 46.3811C39.9684 46.3811 39.1523 45.5651 39.1523 44.477V43.4434C39.7508 43.8242 40.458 44.0418 41.2197 43.9874C41.8181 43.9874 42.3621 43.7698 42.8518 43.4434Z" stroke="white" stroke-miterlimit="10" stroke-linecap="round" stroke-linejoin="round"/>
<path d="M44.4831 39.3096V40.3976C44.4831 42.2473 43.0143 43.8794 41.1645 43.9883C39.1516 44.0971 37.5195 42.465 37.5195 40.5064V39.3096C37.5739 39.364 37.6283 39.364 37.6827 39.364C37.7915 39.364 37.9004 39.2552 37.9548 39.1464L38.2812 37.7863C38.3356 37.5143 38.662 37.3511 38.934 37.4599C39.6413 37.8407 41.1645 38.3847 43.3407 37.9495C43.6127 37.8951 43.8303 38.0583 43.8847 38.3303L43.9935 39.092C43.9935 39.2552 44.1567 39.3096 44.2655 39.3096H44.3743C44.4287 39.364 44.4287 39.364 44.4831 39.3096Z" stroke="white" stroke-miterlimit="10" stroke-linecap="round" stroke-linejoin="round"/>
<path d="M37.9576 39.1476L38.2841 37.7875C38.3385 37.5155 38.6649 37.3523 38.9369 37.4611C39.6441 37.8419 41.1674 38.3859 43.3436 37.9507C43.6156 37.8963 43.8332 38.0595 43.8876 38.3315L43.9964 39.0932C43.9964 39.2564 44.1596 39.3108 44.2684 39.3108H44.3772C44.486 39.3108 44.5948 39.2564 44.6492 39.1476C44.8125 38.8211 44.9757 38.4947 45.0845 38.1683C45.6829 36.3186 44.9213 34.2513 43.1804 33.3808C42.6363 33.1088 42.0923 33 41.6027 33C40.297 33 39.1545 33.7616 38.5017 34.2513C38.2297 34.4689 37.9032 34.6865 37.5768 34.8497C36.2167 35.4481 36.9784 37.8963 37.468 39.1476C37.5224 39.2564 37.6312 39.3108 37.74 39.3108C37.7944 39.3652 37.9576 39.2564 37.9576 39.1476Z" stroke="white" stroke-miterlimit="10" stroke-linecap="round" stroke-linejoin="round"/>
<path d="M39 54.8798C39 56.5817 37.6441 58 36.0169 58H25.9831C24.3559 58 23 56.5817 23 54.8798C23 53.5183 23.5424 52.2703 24.3559 51.4193C25.2237 50.5116 26.3627 50.0011 27.6644 50.0011H29.1288V50.0578C29.1288 51.1357 29.9424 51.9866 31.0271 51.9866C31.5153 51.9866 32.0034 51.7597 32.3288 51.4193C32.6542 51.0789 32.8712 50.5684 32.8712 50.0578V50.0011H34.2814C36.8847 49.9443 39 52.1568 39 54.8798Z" stroke="white" stroke-width="1.5" stroke-miterlimit="10" stroke-linecap="round" stroke-linejoin="round"/>
<path d="M32.9569 48.9082V49.9963C32.9569 50.5403 32.7393 50.9755 32.4129 51.3019C32.0865 51.6284 31.5969 51.846 31.1072 51.846C30.0736 51.846 29.2031 51.0299 29.2031 49.9963V48.9082C29.8016 49.289 30.5088 49.5066 31.2704 49.4522C31.8689 49.4522 32.4673 49.2346 32.9569 48.9082Z" stroke="white" stroke-miterlimit="10" stroke-linecap="round" stroke-linejoin="round"/>
<path d="M34.5339 44.7742V45.8623C34.5339 47.7664 33.065 49.3441 31.2153 49.4529C29.2024 49.5617 27.5703 47.9296 27.5703 45.9711V44.7198C27.6247 44.7742 27.6791 44.7742 27.7335 44.7742C27.8423 44.7742 27.9511 44.6654 28.0055 44.5566L28.332 43.1965C28.3864 42.9245 28.7128 42.7613 28.9848 42.9245C29.692 43.3053 31.2153 43.8493 33.3915 43.4141C33.6635 43.3597 33.8811 43.5229 33.9355 43.7949L34.0443 44.5566C34.0443 44.7198 34.2075 44.7742 34.3163 44.7742H34.4251H34.5339Z" stroke="white" stroke-miterlimit="10" stroke-linecap="round" stroke-linejoin="round"/>
<path d="M28.0045 44.6105L28.3309 43.2504C28.3853 42.9784 28.7118 42.8152 28.9838 42.924C29.691 43.3048 31.2143 43.8488 33.3904 43.4136C33.6625 43.3592 33.8801 43.5224 33.9345 43.7944L34.0433 44.5561C34.0433 44.7193 34.2065 44.7737 34.3153 44.7737H34.4241C34.5329 44.7737 34.6417 44.7193 34.6961 44.6105C34.8593 44.284 35.0225 43.9576 35.1314 43.6312C35.7298 41.7815 34.9681 39.7142 33.2272 38.8437C32.6832 38.5717 32.1392 38.4629 31.6495 38.4629C30.3439 38.4629 29.2014 39.2245 28.5486 39.7142C28.2765 39.9318 27.9501 40.1494 27.6237 40.3126C26.2636 40.911 27.0253 43.3592 27.5149 44.6105C27.5693 44.7193 27.6781 44.7737 27.7869 44.7737C27.8957 44.7737 28.0045 44.7193 28.0045 44.6105Z" stroke="white" stroke-miterlimit="10" stroke-linecap="round" stroke-linejoin="round"/>
</g>
<defs>
<clipPath id="clip0_7412_26153">
<rect width="55" height="63" fill="white"/>
</clipPath>
</defs>
</svg>
