<svg width="45" height="58" viewBox="0 0 45 58" fill="none" xmlns="http://www.w3.org/2000/svg">
<path d="M30 45C30.4103 44 30.8205 44 31.3333 44H31.8462H34" stroke="white" stroke-miterlimit="10" stroke-linecap="round" stroke-linejoin="round"/>
<path d="M38.0417 43.916H39.8664H40.091C42.2477 43.916 44 46.0135 44 48.5413C44 50.1548 42.8767 51.4994 41.5288 51.4994H34.25" stroke="white" stroke-miterlimit="10" stroke-linecap="round" stroke-linejoin="round"/>
<path d="M37.8518 42.4434V43.5314C37.8518 44.0755 37.6342 44.5107 37.3077 44.8371C36.9813 45.1635 36.4917 45.3811 36.0021 45.3811C34.9684 45.3811 34.1523 44.5651 34.1523 43.477V42.4434C34.7508 42.8242 35.458 43.0418 36.2197 42.9874C36.8181 42.9874 37.3621 42.7698 37.8518 42.4434Z" stroke="white" stroke-miterlimit="10" stroke-linecap="round" stroke-linejoin="round"/>
<path d="M39.4831 38.3096V39.3976C39.4831 41.2473 38.0143 42.8794 36.1645 42.9883C34.1516 43.0971 32.5195 41.465 32.5195 39.5064V38.3096C32.5739 38.364 32.6283 38.364 32.6827 38.364C32.7915 38.364 32.9004 38.2552 32.9548 38.1464L33.2812 36.7863C33.3356 36.5143 33.662 36.3511 33.934 36.4599C34.6413 36.8407 36.1645 37.3847 38.3407 36.9495C38.6127 36.8951 38.8303 37.0583 38.8847 37.3303L38.9935 38.092C38.9935 38.2552 39.1567 38.3096 39.2655 38.3096H39.3743C39.4287 38.364 39.4287 38.364 39.4831 38.3096Z" stroke="white" stroke-miterlimit="10" stroke-linecap="round" stroke-linejoin="round"/>
<path d="M32.9576 38.1476L33.2841 36.7875C33.3385 36.5155 33.6649 36.3523 33.9369 36.4611C34.6441 36.8419 36.1674 37.3859 38.3436 36.9507C38.6156 36.8963 38.8332 37.0595 38.8876 37.3315L38.9964 38.0932C38.9964 38.2564 39.1596 38.3108 39.2684 38.3108H39.3772C39.486 38.3108 39.5948 38.2564 39.6492 38.1476C39.8125 37.8211 39.9757 37.4947 40.0845 37.1683C40.6829 35.3186 39.9213 33.2513 38.1804 32.3808C37.6363 32.1088 37.0923 32 36.6027 32C35.297 32 34.1545 32.7616 33.5017 33.2513C33.2297 33.4689 32.9032 33.6865 32.5768 33.8497C31.2167 34.4481 31.9784 36.8963 32.468 38.1476C32.5224 38.2564 32.6312 38.3108 32.74 38.3108C32.7944 38.3652 32.9576 38.2564 32.9576 38.1476Z" stroke="white" stroke-miterlimit="10" stroke-linecap="round" stroke-linejoin="round"/>
<path d="M34 53.8798C34 55.5817 32.6441 57 31.0169 57H20.9831C19.3559 57 18 55.5817 18 53.8798C18 52.5183 18.5424 51.2703 19.3559 50.4193C20.2237 49.5116 21.3627 49.0011 22.6644 49.0011H24.1288V49.0578C24.1288 50.1357 24.9424 50.9866 26.0271 50.9866C26.5153 50.9866 27.0034 50.7597 27.3288 50.4193C27.6542 50.0789 27.8712 49.5684 27.8712 49.0578V49.0011H29.2814C31.8847 48.9443 34 51.1568 34 53.8798Z" stroke="white" stroke-miterlimit="10" stroke-linecap="round" stroke-linejoin="round"/>
<path d="M27.9569 47.9082V48.9963C27.9569 49.5403 27.7393 49.9755 27.4129 50.3019C27.0865 50.6284 26.5969 50.846 26.1072 50.846C25.0736 50.846 24.2031 50.0299 24.2031 48.9963V47.9082C24.8016 48.289 25.5088 48.5066 26.2704 48.4522C26.8689 48.4522 27.4673 48.2346 27.9569 47.9082Z" stroke="white" stroke-miterlimit="10" stroke-linecap="round" stroke-linejoin="round"/>
<path d="M29.5339 43.7742V44.8623C29.5339 46.7664 28.065 48.3441 26.2153 48.4529C24.2024 48.5617 22.5703 46.9296 22.5703 44.9711V43.7198C22.6247 43.7742 22.6791 43.7742 22.7335 43.7742C22.8423 43.7742 22.9511 43.6654 23.0055 43.5566L23.332 42.1965C23.3864 41.9245 23.7128 41.7613 23.9848 41.9245C24.692 42.3053 26.2153 42.8493 28.3915 42.4141C28.6635 42.3597 28.8811 42.5229 28.9355 42.7949L29.0443 43.5566C29.0443 43.7198 29.2075 43.7742 29.3163 43.7742H29.4251H29.5339Z" stroke="white" stroke-miterlimit="10" stroke-linecap="round" stroke-linejoin="round"/>
<path d="M23.0045 43.6105L23.3309 42.2504C23.3853 41.9784 23.7118 41.8152 23.9838 41.924C24.691 42.3048 26.2143 42.8488 28.3904 42.4136C28.6625 42.3592 28.8801 42.5224 28.9345 42.7944L29.0433 43.5561C29.0433 43.7193 29.2065 43.7737 29.3153 43.7737H29.4241C29.5329 43.7737 29.6417 43.7193 29.6961 43.6105C29.8593 43.284 30.0225 42.9576 30.1314 42.6312C30.7298 40.7815 29.9681 38.7142 28.2272 37.8437C27.6832 37.5717 27.1392 37.4629 26.6495 37.4629C25.3439 37.4629 24.2014 38.2245 23.5486 38.7142C23.2765 38.9318 22.9501 39.1494 22.6237 39.3126C21.2636 39.911 22.0253 42.3592 22.5149 43.6105C22.5693 43.7193 22.6781 43.7737 22.7869 43.7737C22.8957 43.7737 23.0045 43.7193 23.0045 43.6105Z" stroke="white" stroke-miterlimit="10" stroke-linecap="round" stroke-linejoin="round"/>
<path d="M24.8734 57H3C1.89543 57 1 56.1046 1 55V3C1 1.89543 1.89543 1 3 1H40C41.1046 1 42 1.89543 42 3V39.1593" stroke="white" stroke-linecap="round" stroke-linejoin="round"/>
<path d="M18 54H6C4.89543 54 4 53.1046 4 52V6C4 4.89543 4.89543 4 6 4H37C38.1046 4 39 4.89543 39 6V33" stroke="white" stroke-linecap="round" stroke-linejoin="round"/>
<rect x="8.5" y="10.5" width="23" height="5" rx="0.5" stroke="white"/>
<path d="M8 19H35" stroke="white" stroke-linecap="round"/>
<path d="M8 23.5H35" stroke="white" stroke-linecap="round"/>
<path d="M8 28H35" stroke="white" stroke-linecap="round"/>
<path d="M8 32.5H30" stroke="white" stroke-linecap="round"/>
<path d="M8 37.5H21" stroke="white" stroke-linecap="round"/>
<path d="M8 42.5H19" stroke="white" stroke-linecap="round"/>
<path d="M8 47.5H14" stroke="white" stroke-linecap="round"/>
</svg>
