<svg width="15" height="17" viewBox="0 0 15 17" fill="none" xmlns="http://www.w3.org/2000/svg">
<path d="M6.49391 15.6909H2.89315C2.25064 15.6909 1.72848 15.0415 1.72848 14.243V3.86794C1.72848 3.06949 2.25113 2.4195 2.89315 2.4195H3.77102C3.75937 2.69108 3.81178 2.96387 3.93795 3.19563C4.12721 3.54325 4.44167 3.75026 4.77894 3.75026H8.35349C8.69076 3.75026 9.00522 3.54265 9.19447 3.19563C9.32065 2.96387 9.37306 2.69108 9.36141 2.4195H10.2407C10.8832 2.4195 11.4054 3.06949 11.4054 3.86794V7.44077C11.4054 7.74072 11.601 7.98393 11.8421 7.98393C12.0833 7.98393 12.2789 7.74072 12.2789 7.44077V3.86794C12.2789 2.4702 11.3646 1.33317 10.2407 1.33317H9.07752L8.90476 0.794833C8.74948 0.312019 8.37921 0 7.96138 0H5.17153C4.75322 0 4.38295 0.312622 4.22815 0.795436L4.0549 1.33377H2.89363C1.76973 1.33377 0.855469 2.4708 0.855469 3.86855V14.243C0.855469 15.6402 1.76973 16.7778 2.89363 16.7778H6.49439C6.73557 16.7778 6.93114 16.5346 6.93114 16.2346C6.93114 15.9347 6.73557 15.6909 6.49391 15.6909ZM4.64646 2.42071L5.03904 1.19798C5.06088 1.13039 5.11281 1.08633 5.17104 1.08633H7.9609C8.01962 1.08633 8.07154 1.13039 8.0929 1.19798L8.48548 2.42071C8.50975 2.49675 8.48694 2.5571 8.47093 2.58607C8.4554 2.61504 8.419 2.66393 8.353 2.66393H4.77845C4.71245 2.66393 4.67654 2.61504 4.66053 2.58607C4.645 2.5571 4.62219 2.49675 4.64646 2.42071Z" fill="white"/>
<path d="M9.7288 8.07442C9.7288 7.77447 9.53323 7.53125 9.29205 7.53125H6.0305C5.78932 7.53125 5.59375 7.77447 5.59375 8.07442C5.59375 8.37436 5.78932 8.61758 6.0305 8.61758H9.29205C9.53372 8.61758 9.7288 8.37497 9.7288 8.07442Z" fill="white"/>
<path d="M4.28118 7.53125H3.83909C3.59791 7.53125 3.40234 7.77447 3.40234 8.07442C3.40234 8.37436 3.59791 8.61758 3.83909 8.61758H4.28167C4.52285 8.61758 4.71842 8.37436 4.71842 8.07442C4.71842 7.77447 4.52236 7.53125 4.28118 7.53125Z" fill="white"/>
<path d="M6.0305 10.8281C5.78932 10.8281 5.59375 11.0713 5.59375 11.3713C5.59375 11.6712 5.78932 11.9145 6.0305 11.9145H8.18998C8.43117 11.9145 8.62673 11.6712 8.62673 11.3713C8.62673 11.0713 8.43117 10.8281 8.18998 10.8281H6.0305Z" fill="white"/>
<path d="M4.28118 10.8281H3.83909C3.59791 10.8281 3.40234 11.0713 3.40234 11.3713C3.40234 11.6712 3.59791 11.9145 3.83909 11.9145H4.28167C4.52285 11.9145 4.71842 11.6712 4.71842 11.3713C4.71842 11.0713 4.52236 10.8281 4.28118 10.8281Z" fill="white"/>
<path d="M13.6763 9.67759C13.1425 9.01372 12.2112 9.01372 11.6774 9.67759L8.37948 13.7791C8.26349 13.9233 8.18779 14.1062 8.16062 14.3072L7.97961 15.6367C7.93739 15.9487 8.01989 16.2674 8.19944 16.4907C8.34793 16.6742 8.54835 16.7756 8.75411 16.7756C8.79779 16.7756 8.84146 16.7707 8.88514 16.7623L9.95323 16.5378C10.1158 16.504 10.2628 16.4098 10.3783 16.2656L13.6763 12.1641C14.2276 11.4779 14.2276 10.3626 13.6763 9.67759ZM9.78096 15.4714L8.86233 15.6645L9.01713 14.522L11.3154 11.6638L12.0787 12.6131L9.78096 15.4714ZM13.059 11.3946L12.697 11.8448L11.9336 10.8955L12.2957 10.4453C12.5 10.1906 12.8552 10.1912 13.059 10.4447C13.2691 10.7072 13.2691 11.1333 13.059 11.3946Z" fill="white"/>
</svg>
