<svg width="15" height="15" viewBox="0 0 15 15" fill="none" xmlns="http://www.w3.org/2000/svg">
<path d="M7.49922 9.30117C8.49333 9.30117 9.29922 8.49528 9.29922 7.50117C9.29922 6.50706 8.49333 5.70117 7.49922 5.70117C6.50511 5.70117 5.69922 6.50706 5.69922 7.50117C5.69922 8.49528 6.50511 9.30117 7.49922 9.30117Z" fill="#E6A935"/>
<path fill-rule="evenodd" clip-rule="evenodd" d="M13.7992 7.50039C12.1492 10.7254 9.52422 11.8504 7.49922 11.8504C5.17422 11.8504 2.62422 10.4254 1.19922 7.50039C2.69922 4.72539 4.87422 3.15039 7.49922 3.15039C10.2742 3.15039 12.4492 4.87539 13.7992 7.50039ZM10.2659 7.50039C10.2659 9.02837 9.02719 10.267 7.49922 10.267C5.97124 10.267 4.73257 9.02837 4.73257 7.50039C4.73257 5.97242 5.97124 4.73375 7.49922 4.73375C9.02719 4.73375 10.2659 5.97242 10.2659 7.50039Z" fill="#E6A935"/>
</svg>
