<svg width="63" height="63" viewBox="0 0 63 63" fill="none" xmlns="http://www.w3.org/2000/svg">
<path d="M56.7016 0H3.15156C2.5717 0 2.10156 0.470137 2.10156 1.05V61.95C2.10156 62.5299 2.5717 63 3.15156 63H59.8516C60.4314 63 60.9016 62.5299 60.9016 61.95V4.2C60.9016 1.88042 59.0211 0 56.7016 0ZM50.4016 27.3V60.9H4.20156V2.1H50.4016C51.5614 2.1 52.5016 3.04014 52.5016 4.2V24.7653L50.7103 26.5566C50.5135 26.7541 50.4026 27.0212 50.4016 27.3ZM58.8016 60.9H56.7016V33.6C56.7016 33.0201 56.2314 32.55 55.6516 32.55C55.0717 32.55 54.6016 33.0201 54.6016 33.6V60.9H52.5016V27.7347L54.2939 25.9424C54.4908 25.7455 54.6016 25.4785 54.6016 25.2V4.2C54.5972 3.46054 54.3956 2.73564 54.0178 2.1H56.7016C57.8614 2.1 58.8016 3.04014 58.8016 4.2V60.9Z" fill="white"/>
<path d="M43.05 6.30078H11.55C10.9701 6.30078 10.5 6.77092 10.5 7.35078V15.7508C10.5 16.3306 10.9701 16.8008 11.55 16.8008H43.05C43.6299 16.8008 44.1 16.3306 44.1 15.7508V7.35078C44.1 6.77092 43.6299 6.30078 43.05 6.30078ZM42 14.7008H12.6V8.40078H42V14.7008Z" fill="white"/>
<path d="M11.5484 50.3984H9.44844C8.86858 50.3984 8.39844 50.8686 8.39844 51.4484C8.39844 52.0283 8.86858 52.4984 9.44844 52.4984H11.5484C12.1283 52.4984 12.5984 52.0283 12.5984 51.4484C12.5984 50.8686 12.1283 50.3984 11.5484 50.3984Z" fill="white"/>
<path d="M26.2492 50.3984H15.7492C15.1694 50.3984 14.6992 50.8686 14.6992 51.4484C14.6992 52.0283 15.1694 52.4984 15.7492 52.4984H26.2492C26.8291 52.4984 27.2992 52.0283 27.2992 51.4484C27.2992 50.8686 26.8291 50.3984 26.2492 50.3984Z" fill="white"/>
<path d="M11.5484 54.6016H9.44844C8.86858 54.6016 8.39844 55.0717 8.39844 55.6516C8.39844 56.2314 8.86858 56.7016 9.44844 56.7016H11.5484C12.1283 56.7016 12.5984 56.2314 12.5984 55.6516C12.5984 55.0717 12.1283 54.6016 11.5484 54.6016Z" fill="white"/>
<path d="M26.2492 54.6016H15.7492C15.1694 54.6016 14.6992 55.0717 14.6992 55.6516C14.6992 56.2314 15.1694 56.7016 15.7492 56.7016H26.2492C26.8291 56.7016 27.2992 56.2314 27.2992 55.6516C27.2992 55.0717 26.8291 54.6016 26.2492 54.6016Z" fill="white"/>
</svg>
