<svg width="66" height="66" viewBox="0 0 66 66" fill="none" xmlns="http://www.w3.org/2000/svg">
<path d="M58.6153 1.03125H13.5703C11.6558 1.03125 9.81966 1.79179 8.46589 3.14557C7.11211 4.49935 6.35156 6.33547 6.35156 8.25V56.2031C6.35429 58.5271 7.27869 60.7551 8.92197 62.3983C10.5653 64.0416 12.7932 64.966 15.1172 64.9688H58.6153C58.8888 64.9688 59.1511 64.8601 59.3445 64.6667C59.5379 64.4733 59.6466 64.211 59.6466 63.9375V2.0625C59.6466 1.789 59.5379 1.52669 59.3445 1.3333C59.1511 1.1399 58.8888 1.03125 58.6153 1.03125ZM57.5841 47.4169H19.3721V3.09375H57.5841V47.4169ZM8.41406 8.25C8.41406 6.88248 8.95731 5.57097 9.92429 4.60398C10.8913 3.637 12.2028 3.09375 13.5703 3.09375H17.3096V47.4169H15.1172C13.9672 47.4153 12.8283 47.6417 11.7663 48.0827C10.7043 48.5238 9.7402 49.171 8.92969 49.9868C8.73787 50.1786 8.59144 50.3993 8.42025 50.6055L8.41406 8.25ZM8.41406 56.2031C8.41271 55.3215 8.58501 54.4482 8.92114 53.6332C9.25727 52.8182 9.75065 52.0773 10.3731 51.453C10.9955 50.8286 11.7349 50.333 12.5489 49.9944C13.3628 49.6557 14.2356 49.4807 15.1172 49.4794H57.5841V51.7832H18.3409C18.0674 51.7832 17.8051 51.8918 17.6117 52.0852C17.4183 52.2786 17.3096 52.5409 17.3096 52.8144C17.3096 53.0879 17.4183 53.3502 17.6117 53.5436C17.8051 53.737 18.0674 53.8457 18.3409 53.8457H57.5841V57.4179H18.3409C18.0674 57.4179 17.8051 57.5266 17.6117 57.72C17.4183 57.9134 17.3096 58.1757 17.3096 58.4492C17.3096 58.7227 17.4183 58.985 17.6117 59.1784C17.8051 59.3718 18.0674 59.4804 18.3409 59.4804H57.5841V62.9062H15.1172C13.3401 62.9041 11.6364 62.1971 10.3798 60.9405C9.12317 59.6839 8.41625 57.9802 8.41406 56.2031Z" fill="white"/>
<path d="M44.6448 33.5816C44.82 33.7074 45.0303 33.775 45.246 33.775C45.4617 33.775 45.672 33.7074 45.8472 33.5816L53.7466 27.9345C53.8798 27.8392 53.9883 27.7135 54.0633 27.5679C54.1383 27.4223 54.1775 27.2609 54.1777 27.0971V10.3125C54.1777 10.039 54.069 9.77669 53.8756 9.5833C53.6822 9.3899 53.4199 9.28125 53.1464 9.28125H37.3477C37.0742 9.28125 36.8118 9.3899 36.6185 9.5833C36.4251 9.77669 36.3164 10.039 36.3164 10.3125V27.0971C36.3166 27.2609 36.3558 27.4223 36.4308 27.5679C36.5057 27.7135 36.6143 27.8392 36.7475 27.9345L44.6448 33.5816ZM38.3789 11.3438H52.1152V26.565L45.247 31.4738L38.3789 26.565V11.3438Z" fill="white"/>
<path d="M45.375 24.6978C45.5231 24.6799 45.6656 24.6306 45.7929 24.553C45.9203 24.4754 46.0296 24.3715 46.1134 24.2481L50.9438 17.0603C51.0239 16.9481 51.0808 16.8209 51.1109 16.6862C51.1411 16.5516 51.1439 16.4123 51.1192 16.2766C51.0946 16.1408 51.0429 16.0114 50.9673 15.896C50.8917 15.7806 50.7938 15.6815 50.6792 15.6046C50.5647 15.5278 50.4359 15.4747 50.3004 15.4485C50.165 15.4223 50.0256 15.4235 49.8907 15.4521C49.7557 15.4807 49.6279 15.5361 49.5147 15.615C49.4016 15.694 49.3054 15.7948 49.2319 15.9115L45.0739 22.099L41.9141 19.1785C41.8151 19.0843 41.6984 19.0107 41.5707 18.962C41.443 18.9133 41.307 18.8904 41.1704 18.8947C41.0338 18.8991 40.8994 18.9305 40.7751 18.9873C40.6507 19.044 40.5389 19.1249 40.4461 19.2252C40.3533 19.3255 40.2814 19.4433 40.2345 19.5716C40.1876 19.7 40.1667 19.8364 40.173 19.9729C40.1793 20.1094 40.2126 20.2433 40.2711 20.3669C40.3296 20.4904 40.4121 20.601 40.5137 20.6924L44.55 24.4296C44.7408 24.6062 44.9913 24.7042 45.2513 24.7039C45.2926 24.7042 45.3339 24.7022 45.375 24.6978Z" fill="white"/>
<path d="M41.2109 41.4531H22.9805C22.707 41.4531 22.4447 41.5618 22.2513 41.7552C22.0579 41.9486 21.9492 42.2109 21.9492 42.4844C21.9492 42.7579 22.0579 43.0202 22.2513 43.2136C22.4447 43.407 22.707 43.5156 22.9805 43.5156H41.2109C41.4844 43.5156 41.7467 43.407 41.9401 43.2136C42.1335 43.0202 42.2422 42.7579 42.2422 42.4844C42.2422 42.2109 42.1335 41.9486 41.9401 41.7552C41.7467 41.5618 41.4844 41.4531 41.2109 41.4531Z" fill="white"/>
<path d="M22.9805 37.5547H41.2109C41.4844 37.5547 41.7467 37.446 41.9401 37.2526C42.1335 37.0592 42.2422 36.7969 42.2422 36.5234C42.2422 36.2499 42.1335 35.9876 41.9401 35.7942C41.7467 35.6008 41.4844 35.4922 41.2109 35.4922H22.9805C22.707 35.4922 22.4447 35.6008 22.2513 35.7942C22.0579 35.9876 21.9492 36.2499 21.9492 36.5234C21.9492 36.7969 22.0579 37.0592 22.2513 37.2526C22.4447 37.446 22.707 37.5547 22.9805 37.5547Z" fill="white"/>
</svg>
