<svg width="62" height="62" viewBox="0 0 62 62" fill="none" xmlns="http://www.w3.org/2000/svg">
<path d="M42.8555 54.25H15.7305C15.4735 54.25 15.2271 54.3521 15.0455 54.5337C14.8638 54.7154 14.7617 54.9618 14.7617 55.2188C14.7617 55.4757 14.8638 55.7221 15.0455 55.9038C15.2271 56.0854 15.4735 56.1875 15.7305 56.1875H42.8555C43.1124 56.1875 43.3588 56.0854 43.5405 55.9038C43.7222 55.7221 43.8242 55.4757 43.8242 55.2188C43.8242 54.9618 43.7222 54.7154 43.5405 54.5337C43.3588 54.3521 43.1124 54.25 42.8555 54.25Z" fill="white"/>
<path d="M47.6992 54.25H45.7617C45.5048 54.25 45.2584 54.3521 45.0767 54.5337C44.895 54.7154 44.793 54.9618 44.793 55.2188C44.793 55.4757 44.895 55.7221 45.0767 55.9038C45.2584 56.0854 45.5048 56.1875 45.7617 56.1875H47.6992C47.9561 56.1875 48.2026 56.0854 48.3842 55.9038C48.5659 55.7221 48.668 55.4757 48.668 55.2188C48.668 54.9618 48.5659 54.7154 48.3842 54.5337C48.2026 54.3521 47.9561 54.25 47.6992 54.25Z" fill="white"/>
<path d="M52.543 21.1962V1.9375C52.543 1.68057 52.4409 1.43417 52.2592 1.25249C52.0776 1.07081 51.8311 0.96875 51.5742 0.96875H13.793C12.2519 0.970385 10.7744 1.5833 9.68472 2.673C8.59501 3.7627 7.9821 5.24018 7.98047 6.78125V55.2188C7.9821 56.7598 8.59501 58.2373 9.68472 59.327C10.7744 60.4167 12.2519 61.0296 13.793 61.0312H51.5742C51.8311 61.0312 52.0776 60.9292 52.2592 60.7475C52.4409 60.5658 52.543 60.3194 52.543 60.0625V44.6787C54.6046 43.4893 56.3167 41.778 57.5071 39.7169C58.6975 37.6558 59.3242 35.3176 59.3242 32.9375C59.3242 30.5574 58.6975 28.2192 57.5071 26.1581C56.3167 24.097 54.6046 22.3857 52.543 21.1962ZM9.91797 6.78125C9.91931 5.75395 10.328 4.76911 11.0544 4.0427C11.7808 3.31629 12.7657 2.9076 13.793 2.90625H14.7617V49.4062H13.793C12.3622 49.4052 10.9818 49.9341 9.91797 50.8909V6.78125ZM50.6055 59.0938H13.793C12.7653 59.0938 11.7796 58.6855 11.0529 57.9588C10.3262 57.2321 9.91797 56.2465 9.91797 55.2188C9.91797 54.191 10.3262 53.2054 11.0529 52.4787C11.7796 51.752 12.7653 51.3438 13.793 51.3438H50.6055V59.0938ZM50.6055 49.4062H16.6992V2.90625H50.6055V20.2699C49.9752 20.028 49.3275 19.8341 48.668 19.6898V8.71875C48.668 8.46182 48.5659 8.21542 48.3842 8.03374C48.2026 7.85206 47.9561 7.75 47.6992 7.75H19.6055C19.3485 7.75 19.1021 7.85206 18.9205 8.03374C18.7388 8.21542 18.6367 8.46182 18.6367 8.71875V25.1875C18.6367 25.4444 18.7388 25.6908 18.9205 25.8725C19.1021 26.0542 19.3485 26.1562 19.6055 26.1562H34.0193C32.6176 28.5824 32.0019 31.3833 32.2569 34.1736C32.5119 36.964 33.6249 39.6069 35.4431 41.7388C37.2613 43.8708 39.6953 45.3872 42.4104 46.0796C45.1255 46.7719 47.9884 46.6061 50.6055 45.6051V49.4062ZM46.7305 9.6875V19.4101C46.4108 19.3871 46.0879 19.3754 45.7617 19.375C43.7827 19.3746 41.8276 19.8082 40.0342 20.645C38.2407 21.4819 36.6526 22.7018 35.3816 24.2188H20.5742V9.6875H46.7305ZM45.7617 44.5625C43.4625 44.5625 41.2149 43.8807 39.3032 42.6033C37.3915 41.326 35.9015 39.5104 35.0216 37.3862C34.1418 35.262 33.9115 32.9246 34.3601 30.6696C34.8086 28.4145 35.9158 26.3432 37.5416 24.7174C39.1674 23.0916 41.2388 21.9844 43.4938 21.5359C45.7488 21.0873 48.0862 21.3175 50.2104 22.1974C52.3346 23.0773 54.1502 24.5673 55.4276 26.479C56.7049 28.3907 57.3867 30.6383 57.3867 32.9375C57.383 36.0195 56.1571 38.9742 53.9778 41.1535C51.7985 43.3329 48.8437 44.5588 45.7617 44.5625Z" fill="white"/>
<path d="M45.7617 22.2812C43.6541 22.2812 41.5938 22.9062 39.8414 24.0772C38.089 25.2481 36.7232 26.9124 35.9166 28.8595C35.1101 30.8067 34.8991 32.9493 35.3102 35.0164C35.7214 37.0835 36.7363 38.9823 38.2266 40.4726C39.7169 41.9629 41.6157 42.9778 43.6828 43.389C45.7499 43.8002 47.8925 43.5891 49.8397 42.7826C51.7869 41.976 53.4511 40.6102 54.6221 38.8578C55.793 37.1054 56.418 35.0451 56.418 32.9375C56.4148 30.1123 55.291 27.4037 53.2933 25.4059C51.2956 23.4082 48.587 22.2845 45.7617 22.2812ZM45.7617 41.6562C44.0373 41.6562 42.3516 41.1449 40.9178 40.1869C39.4841 39.2288 38.3666 37.8672 37.7067 36.274C37.0467 34.6809 36.8741 32.9278 37.2105 31.2366C37.5469 29.5453 38.3773 27.9918 39.5966 26.7724C40.816 25.5531 42.3695 24.7227 44.0608 24.3863C45.7521 24.0499 47.5051 24.2225 49.0982 24.8824C50.6914 25.5423 52.0531 26.6598 53.0111 28.0936C53.9691 29.5274 54.4805 31.2131 54.4805 32.9375C54.4779 35.2491 53.5585 37.4652 51.9239 39.0997C50.2894 40.7342 48.0733 41.6537 45.7617 41.6562Z" fill="white"/>
<path d="M47.6992 31H43.8242C43.5673 31 43.3209 31.1021 43.1392 31.2837C42.9575 31.4654 42.8555 31.7118 42.8555 31.9688V38.75C42.8555 39.0069 42.9575 39.2533 43.1392 39.435C43.3209 39.6167 43.5673 39.7188 43.8242 39.7188H47.6992C47.9561 39.7188 48.2026 39.6167 48.3842 39.435C48.5659 39.2533 48.668 39.0069 48.668 38.75V31.9688C48.668 31.7118 48.5659 31.4654 48.3842 31.2837C48.2026 31.1021 47.9561 31 47.6992 31ZM46.7305 37.7812H44.793V32.9375H46.7305V37.7812Z" fill="white"/>
<path d="M47.6992 25.1875H43.8242C43.5673 25.1875 43.3209 25.2896 43.1392 25.4712C42.9575 25.6529 42.8555 25.8993 42.8555 26.1562V29.0625C42.8555 29.3194 42.9575 29.5658 43.1392 29.7475C43.3209 29.9292 43.5673 30.0312 43.8242 30.0312H47.6992C47.9561 30.0312 48.2026 29.9292 48.3842 29.7475C48.5659 29.5658 48.668 29.3194 48.668 29.0625V26.1562C48.668 25.8993 48.5659 25.6529 48.3842 25.4712C48.2026 25.2896 47.9561 25.1875 47.6992 25.1875ZM46.7305 28.0938H44.793V27.125H46.7305V28.0938Z" fill="white"/>
</svg>
