<svg width="15" height="15" viewBox="0 0 15 15" fill="none" xmlns="http://www.w3.org/2000/svg">
<path d="M7.5 0C11.6423 0 15 3.35775 15 7.5C15 11.6423 11.6423 15 7.5 15C3.35775 15 0 11.6423 0 7.5C0 3.35775 3.35775 0 7.5 0ZM7.4925 6H6.75C6.55884 6.00021 6.37498 6.07341 6.23597 6.20464C6.09697 6.33586 6.01332 6.51521 6.00212 6.70605C5.99092 6.89688 6.05301 7.08478 6.1757 7.23137C6.29839 7.37796 6.47243 7.47217 6.66225 7.49475L6.75 7.5V11.2425C6.75 11.6325 7.0455 11.955 7.425 11.9955L7.5075 12H7.875C8.03273 12 8.18645 11.9503 8.3143 11.8579C8.44215 11.7655 8.53761 11.6352 8.58712 11.4854C8.63662 11.3356 8.63765 11.1741 8.59006 11.0237C8.54246 10.8733 8.44866 10.7418 8.322 10.6478L8.25 10.6005V6.7575C8.25 6.3675 7.9545 6.045 7.575 6.0045L7.4925 6ZM7.5 3.75C7.30109 3.75 7.11032 3.82902 6.96967 3.96967C6.82902 4.11032 6.75 4.30109 6.75 4.5C6.75 4.69891 6.82902 4.88968 6.96967 5.03033C7.11032 5.17098 7.30109 5.25 7.5 5.25C7.69891 5.25 7.88968 5.17098 8.03033 5.03033C8.17098 4.88968 8.25 4.69891 8.25 4.5C8.25 4.30109 8.17098 4.11032 8.03033 3.96967C7.88968 3.82902 7.69891 3.75 7.5 3.75Z" fill="#999999"/>
</svg>
