<svg width="65" height="65" viewBox="0 0 65 65" fill="none" xmlns="http://www.w3.org/2000/svg">
<path fill-rule="evenodd" clip-rule="evenodd" d="M50.4031 5.15925C50.402 4.33 50.072 3.53505 49.4857 2.94868C48.8993 2.36231 48.1043 2.03239 47.2751 2.03125H10.8274C7.65606 2.03125 5.07422 4.45961 5.07422 7.44415V53.259C5.07422 56.2612 7.69783 58.4674 10.6072 58.4674H15.6488V62.1578C15.6488 62.3249 15.7004 62.488 15.7967 62.6247C15.8929 62.7613 16.029 62.8649 16.1864 62.9213C16.3437 62.9776 16.5147 62.984 16.6758 62.9395C16.8369 62.8949 16.9803 62.8017 17.0864 62.6726L19.6382 59.5513L22.1772 62.658C22.2813 62.7908 22.4243 62.8878 22.5861 62.9355C22.748 62.9832 22.9207 62.9793 23.0802 62.9242C23.2397 62.8692 23.3781 62.7657 23.476 62.6283C23.574 62.4909 23.6266 62.3264 23.6266 62.1576V58.4675H49.5922C49.8073 58.4675 50.0136 58.382 50.1656 58.2299C50.3177 58.0779 50.4032 57.8716 50.4032 57.6565C50.4032 54.7249 50.4032 51.7933 50.4032 48.8617V42.0469H51.0634C51.6583 42.0461 52.2287 41.8094 52.6493 41.3886C53.07 40.9679 53.3067 40.3975 53.3074 39.8026V39.3923C53.7694 39.2533 54.1744 38.9692 54.4625 38.5822C54.7506 38.1951 54.9065 37.7256 54.907 37.2431C54.9216 36.9282 54.9119 36.6127 54.8781 36.2993C55.2884 36.0126 55.6236 35.631 55.855 35.1871C56.0865 34.7432 56.2074 34.25 56.2075 33.7493C56.2075 30.5448 57.0596 29.3898 57.9619 28.1673C62.7273 21.71 58.2912 12.584 50.4031 11.7479V5.15925ZM22.0058 59.8849L20.2666 57.7571C20.1901 57.6646 20.0942 57.5901 19.9857 57.539C19.8771 57.4879 19.7586 57.4614 19.6387 57.4614C19.5187 57.4614 19.4002 57.4879 19.2917 57.539C19.1831 57.5901 19.0872 57.6646 19.0108 57.7571L17.2715 59.8851V54.0706H22.0061L22.0058 59.8849ZM48.7813 56.8458H23.6277V54.0702H45.7486C45.9619 54.0676 46.1656 53.9809 46.3156 53.8291C46.4655 53.6773 46.5496 53.4725 46.5496 53.2592C46.5496 53.0458 46.4655 52.8411 46.3156 52.6892C46.1656 52.5374 45.9619 52.4508 45.7486 52.4481H9.72896C9.51387 52.4481 9.3076 52.5336 9.15551 52.6857C9.00342 52.8378 8.91798 53.044 8.91798 53.2591C8.91798 53.4742 9.00342 53.6805 9.15551 53.8326C9.3076 53.9847 9.51387 54.0701 9.72896 54.0701H15.6489V56.8454H10.6077C8.45117 56.8454 6.69668 55.2367 6.69668 53.259C6.69668 51.2813 8.45117 49.6727 10.6077 49.6727H48.7813V56.8458ZM48.7813 48.051H10.6077C9.15723 48.0442 7.75866 48.5905 6.69668 49.5785V7.44415C6.69668 5.35387 8.5502 3.6532 10.8274 3.6532H47.2756C47.6748 3.65374 48.0575 3.8126 48.3398 4.09493C48.6221 4.37726 48.7808 4.76002 48.7813 5.15925V11.703C46.5306 11.8107 44.3737 12.637 42.6272 14.0608H13.4483C13.2333 14.0609 13.027 14.1464 12.875 14.2984C12.7229 14.4505 12.6375 14.6567 12.6375 14.8718V23.4157C12.6375 23.6308 12.7229 23.837 12.875 23.9891C13.0271 24.1412 13.2334 24.2266 13.4484 24.2266H38.842C39.146 26.1469 39.9005 27.1706 40.6361 28.1673C41.5382 29.3899 42.3903 30.5453 42.3903 33.7495C42.3905 34.2501 42.5114 34.7433 42.7428 35.1872C42.9743 35.6311 43.3094 36.0126 43.7198 36.2993C43.6859 36.6127 43.6762 36.9281 43.691 37.243C43.6917 37.7253 43.8477 38.1947 44.1357 38.5816C44.4238 38.9685 44.8287 39.2525 45.2906 39.3917V39.803C45.2914 40.3979 45.5281 40.9682 45.9488 41.3888C46.3695 41.8095 46.9398 42.0461 47.5347 42.0469H48.7809L48.7813 48.051ZM38.7052 22.605H14.2593V15.6832H41.0176C39.4492 17.6426 38.6295 20.0963 38.7052 22.605ZM47.5346 40.4258C46.944 40.425 46.9125 39.918 46.9125 39.4875H51.6851C51.6851 39.9176 51.6536 40.4247 51.063 40.4257L47.5346 40.4258ZM53.2856 37.2435C53.2853 37.4084 53.2197 37.5665 53.1031 37.6831C52.9865 37.7997 52.8284 37.8653 52.6635 37.8655H45.9351C45.7702 37.8653 45.6121 37.7997 45.4955 37.6831C45.3789 37.5665 45.3133 37.4084 45.313 37.2435V36.8568C47.9686 37.0013 50.6301 37.0013 53.2857 36.8568L53.2856 37.2435ZM47.1451 25.3443H46.5268C46.3629 25.3443 46.2056 25.2791 46.0897 25.1632C45.9737 25.0473 45.9086 24.89 45.9086 24.726C45.9086 24.5621 45.9737 24.4048 46.0897 24.2888C46.2056 24.1729 46.3629 24.1078 46.5268 24.1078C47.2364 24.1078 47.1451 24.8723 47.1451 25.3443ZM50.1092 35.2414H48.7662V26.9661H50.1092V35.2414ZM56.6579 27.2053C55.6871 28.5208 54.5868 30.012 54.5868 33.7502C54.5864 34.1457 54.4291 34.5248 54.1495 34.8045C53.8698 35.0841 53.4907 35.2414 53.0953 35.2418H51.7304V26.9661H52.3488C52.94 26.9617 53.5055 26.7237 53.9219 26.3041C54.3384 25.8844 54.5721 25.3172 54.5721 24.726C54.5721 24.1347 54.3384 23.5675 53.9219 23.1479C53.5055 22.7282 52.94 22.4903 52.3488 22.4858C50.5284 22.4858 50.1086 23.9126 50.1086 25.3442H48.7662C48.7662 23.9125 48.3465 22.4857 46.5261 22.4857C45.9349 22.4901 45.3694 22.7281 44.9529 23.1477C44.5364 23.5674 44.3027 24.1346 44.3027 24.7258C44.3027 25.3171 44.5364 25.8843 44.9529 26.3039C45.3694 26.7236 45.9349 26.9615 46.5261 26.966H47.1442V35.2413H45.5038C45.1084 35.2408 44.7292 35.0835 44.4496 34.8038C44.1699 34.5241 44.0127 34.145 44.0123 33.7495C44.0123 30.0112 42.912 28.5205 41.941 27.2045C37.7215 21.4845 42.5512 13.3114 49.3063 13.3114C56.5338 13.3114 60.82 21.5626 56.6569 27.2047L56.6579 27.2053ZM51.7304 25.3443C51.7304 24.8723 51.6392 24.1078 52.3488 24.1078C52.5127 24.1078 52.67 24.1729 52.7859 24.2888C52.9019 24.4048 52.967 24.5621 52.967 24.726C52.967 24.89 52.9019 25.0473 52.7859 25.1632C52.67 25.2791 52.5127 25.3443 52.3488 25.3443H51.7304ZM27.2843 32.3256C27.2126 32.4543 27.1234 32.5724 27.0193 32.6767L26.8707 32.8256C27.1113 33.279 27.3082 33.7542 27.459 34.2448H27.6691C28.1 34.2452 28.5131 34.4165 28.8178 34.7212C29.1224 35.0258 29.2937 35.439 29.2941 35.8698V36.3312H36.1733C36.3884 36.3312 36.5947 36.4166 36.7467 36.5687C36.8988 36.7208 36.9843 36.9271 36.9843 37.1422C36.9843 37.3573 36.8988 37.5635 36.7467 37.7156C36.5947 37.8677 36.3884 37.9531 36.1733 37.9531H29.2081C29.0997 38.2756 28.8929 38.5559 28.6168 38.7546C28.3407 38.9534 28.0093 39.0605 27.6691 39.0611H27.4587C27.3081 39.5517 27.1112 40.0268 26.8708 40.4803L27.0195 40.6291C27.3238 40.934 27.4947 41.3472 27.4947 41.778C27.4947 42.2088 27.3238 42.622 27.0195 42.9269L25.9118 44.0347C25.6067 44.3387 25.1936 44.5093 24.7629 44.5093C24.3322 44.5093 23.9191 44.3387 23.6139 44.0347L23.4653 43.886C23.0118 44.126 22.5367 44.3228 22.0463 44.4737V44.6838C22.046 45.1147 21.8746 45.5278 21.57 45.8325C21.2653 46.1371 20.8522 46.3084 20.4213 46.3088H18.8547C18.4239 46.3083 18.0108 46.137 17.7062 45.8323C17.4016 45.5277 17.2302 45.1147 17.2297 44.6838V44.4736C16.7393 44.3229 16.2643 44.126 15.811 43.8855L15.6625 44.0345C15.3575 44.3386 14.9443 44.5093 14.5136 44.5093C14.0828 44.5093 13.6697 44.3386 13.3646 44.0345L12.257 42.9267C11.9528 42.6216 11.782 42.2085 11.782 41.7777C11.782 41.347 11.9528 40.9338 12.257 40.6288L12.4058 40.4801C12.1654 40.0268 11.9685 39.5517 11.8176 39.0613H11.6082C11.1774 39.061 10.7643 38.8896 10.4596 38.585C10.1549 38.2803 9.98361 37.8672 9.98324 37.4363V35.8691C9.98358 35.4382 10.1549 35.0251 10.4596 34.7204C10.7642 34.4157 11.1774 34.2444 11.6082 34.2441H11.8186C11.9693 33.7535 12.1662 33.2783 12.4065 32.8249L12.2577 32.6761C11.9534 32.3712 11.7824 31.958 11.7824 31.5272C11.7824 31.0963 11.9534 30.6831 12.2577 30.3782L13.3655 29.2706C13.6705 28.9664 14.0837 28.7955 14.5145 28.7955C14.9452 28.7955 15.3584 28.9664 15.6634 29.2706L15.8119 29.4192C16.2651 29.1786 16.7401 28.9816 17.2306 28.8308V28.6207C17.231 28.1898 17.4023 27.7767 17.7069 27.472C18.0116 27.1673 18.4247 26.996 18.8556 26.9957H20.4231C20.8539 26.9963 21.2669 27.1677 21.5715 27.4723C21.8761 27.7769 22.0475 28.1899 22.0481 28.6207V28.8308C22.5385 28.9815 23.0135 29.1784 23.4668 29.4187L23.6155 29.2699C23.9205 28.9658 24.3336 28.7949 24.7644 28.7949C25.1951 28.7949 25.6083 28.9658 25.9133 29.2699L27.0209 30.3776C27.1174 30.4749 27.2012 30.584 27.2702 30.7025H36.1739C36.2813 30.7011 36.3878 30.7211 36.4874 30.7613C36.5869 30.8014 36.6775 30.8609 36.7539 30.9364C36.8303 31.0118 36.891 31.1016 36.9323 31.2007C36.9737 31.2997 36.9951 31.406 36.9951 31.5134C36.9951 31.6207 36.9737 31.727 36.9323 31.8261C36.891 31.9251 36.8303 32.015 36.7539 32.0904C36.6775 32.1658 36.5869 32.2254 36.4874 32.2655C36.3878 32.3057 36.2813 32.3256 36.1739 32.3243L27.2843 32.3256ZM27.672 35.8691L27.6692 37.4383H26.8347C26.6501 37.4384 26.471 37.5014 26.3271 37.6171C26.1831 37.7327 26.0829 37.894 26.0431 38.0743C25.8783 38.8203 25.5835 39.5315 25.172 40.1753C25.0728 40.3312 25.0297 40.5162 25.0498 40.6998C25.0699 40.8835 25.1521 41.0548 25.2827 41.1854L25.873 41.7793L24.7615 42.8872L24.1713 42.2968C24.0407 42.1662 23.8693 42.084 23.6856 42.064C23.502 42.0439 23.317 42.0872 23.1612 42.1866C22.5175 42.5977 21.8065 42.8925 21.0607 43.0575C20.8803 43.0972 20.7188 43.1972 20.6031 43.3412C20.4873 43.4851 20.4242 43.6643 20.4242 43.849L20.4215 44.6861L18.8523 44.6833V43.8496C18.8523 43.6649 18.7892 43.4858 18.6736 43.3419C18.5579 43.1979 18.3966 43.0977 18.2163 43.0579C17.4705 42.893 16.7595 42.5983 16.1156 42.1874C15.9598 42.0879 15.7748 42.0446 15.5911 42.0646C15.4073 42.0846 15.236 42.1668 15.1053 42.2975L14.5113 42.8878L13.4037 41.7762L13.9938 41.186C14.1246 41.0554 14.2068 40.8841 14.2268 40.7004C14.2468 40.5167 14.2035 40.3317 14.104 40.176C13.6923 39.5323 13.3975 38.821 13.2332 38.0748C13.1935 37.8945 13.0935 37.7332 12.9496 37.6175C12.8058 37.5018 12.6268 37.4386 12.4422 37.4385L11.6051 37.4358L11.6079 35.8667H12.4422C12.6269 35.8667 12.806 35.8036 12.95 35.688C13.094 35.5724 13.1942 35.4111 13.2341 35.2308C13.3988 34.4847 13.6936 33.7735 14.105 33.1297C14.2044 32.9739 14.2475 32.7889 14.2274 32.6052C14.2073 32.4216 14.1251 32.2503 13.9945 32.1196L13.4043 31.5255L14.5157 30.4178L15.1061 31.0082C15.2367 31.1388 15.408 31.2209 15.5917 31.2409C15.7754 31.2609 15.9604 31.2177 16.1161 31.1182C16.7598 30.7071 17.4709 30.4124 18.2168 30.2477C18.3971 30.2079 18.5585 30.1076 18.6741 29.9636C18.7898 29.8196 18.8528 29.6405 18.8528 29.4558L18.8551 28.6188L20.4248 28.6216V29.4559C20.4247 29.6406 20.4878 29.8198 20.6034 29.9638C20.719 30.1078 20.8803 30.208 21.0607 30.2479C21.8065 30.4127 22.5176 30.7074 23.1614 31.1186C23.3172 31.2179 23.5023 31.261 23.686 31.241C23.8696 31.2209 24.041 31.1388 24.1718 31.0083L24.7655 30.418L25.7873 31.4432C25.7852 31.4667 25.7836 31.4906 25.7836 31.5146C25.7838 31.5474 25.786 31.5801 25.7902 31.6126L25.2824 32.1204C25.1517 32.251 25.0696 32.4223 25.0496 32.606C25.0296 32.7896 25.0729 32.9746 25.1723 33.1303C25.5833 33.7741 25.8781 34.4851 26.0432 35.2309C26.0829 35.4113 26.1829 35.5727 26.3269 35.6884C26.4708 35.8041 26.6499 35.8672 26.8346 35.8672L27.6719 35.8701L27.672 35.8691ZM19.6385 31.6288C20.9703 31.6302 22.2471 32.1599 23.1888 33.1015C24.1305 34.0432 24.6602 35.32 24.6616 36.6517C24.6616 37.6452 24.367 38.6164 23.8151 39.4424C23.2632 40.2685 22.4787 40.9123 21.5609 41.2925C20.643 41.6727 19.6331 41.7722 18.6587 41.5784C17.6843 41.3846 16.7893 40.9062 16.0868 40.2037C15.3843 39.5013 14.9059 38.6062 14.712 37.6319C14.5182 36.6575 14.6177 35.6475 14.9979 34.7297C15.378 33.8118 16.0218 33.0273 16.8479 32.4754C17.6739 31.9234 18.6451 31.6288 19.6385 31.6288ZM19.6385 40.0528C18.9659 40.0528 18.3084 39.8534 17.7491 39.4797C17.1899 39.106 16.754 38.5749 16.4966 37.9534C16.2392 37.332 16.1718 36.6482 16.3031 35.9885C16.4343 35.3288 16.7582 34.7229 17.2338 34.2473C17.7094 33.7716 18.3154 33.4478 18.9751 33.3165C19.6348 33.1853 20.3186 33.2527 20.94 33.5101C21.5614 33.7675 22.0925 34.2033 22.4662 34.7626C22.8399 35.3219 23.0394 35.9794 23.0394 36.652C23.0394 37.0987 22.9515 37.541 22.7806 37.9537C22.6098 38.3663 22.3593 38.7413 22.0435 39.0572C21.7277 39.3731 21.3528 39.6237 20.9401 39.7947C20.5275 39.9656 20.0852 40.0528 19.6385 40.0528Z" fill="white"/>
</svg>
