<svg width="149" height="112" viewBox="0 0 149 112" fill="none" xmlns="http://www.w3.org/2000/svg">
<path d="M-0.00390625 45.3594H11.5258V54.2231H-0.00390625V45.3594Z" fill="white"/>
<path d="M10.1875 45.3594H21.7313V54.2231H10.1875V45.3594Z" fill="white"/>
<path d="M20.3945 45.3594H31.9384V54.2231H20.3945V45.3594Z" fill="white"/>
<path fill-rule="evenodd" clip-rule="evenodd" d="M74.2575 35.9571C74.2575 45.5243 67.9647 54.1347 57.2233 54.1347C51.9019 54.1347 47.5518 52.1791 44.3562 48.9853C41.4561 52.1369 37.3173 53.8814 31.9395 54.1769C31.3858 54.205 30.8227 54.2191 30.2502 54.2191H27.9414V45.3554H28.8283C36.9935 45.3554 39.1192 42.429 39.3022 34.5361C39.3022 25.1378 45.8625 16.5273 56.4209 16.5273C67.9647 16.5273 74.2575 25.2222 74.2575 35.9571ZM65.3885 34.8034C65.3885 28.5003 62.6433 23.9841 57.2233 23.9841C50.9305 23.9841 48.1713 28.5004 48.1713 35.9571C48.1713 42.2461 50.9305 46.6779 56.4209 46.6779C62.7277 46.6779 65.3885 42.2461 65.3885 34.8034Z" fill="white"/>
<path d="M65.3891 34.8037C65.3891 42.2464 62.7284 46.6782 56.4215 46.6782C50.9311 46.6782 48.1719 42.2464 48.1719 35.9574C48.1719 28.5006 50.9311 23.9844 57.2239 23.9844C62.6439 23.9844 65.3891 28.5006 65.3891 34.8037Z" fill="#EAB977"/>
<path d="M148.306 7.31274V39.1517C148.306 47.3963 143.337 53.8682 135.65 54.2199H87.5184C79.86 54.2199 74.9609 52.0111 74.9609 47.9309V45.3562H93.0087V0.475042H97.6263C100.118 0.475042 103.3 2.61358 103.3 5.54001V45.3562H132.427C136.594 45.0045 138.1 42.6971 138.1 38.617V0.390625H141.296C145.913 0.390625 148.306 2.78242 148.306 7.31274Z" fill="white"/>
<path d="M21.6477 11.0851C21.6477 15.4466 20.085 18.0354 16.3967 18.0354C13.1869 18.0354 11.582 15.4466 11.582 11.7604C11.582 7.39894 13.1869 4.75391 16.8612 4.75391C20.0428 4.75391 21.6477 7.39894 21.6477 11.0851Z" fill="#EAB977"/>
<path d="M33.2765 111.625H29.6867C18.6074 111.625 12.5117 105.463 12.5117 94.2216V64.1836H16.3409C20.1701 64.1836 22.1973 66.3643 22.1973 71.0494V93.6026C22.1973 100.694 23.8303 103.353 30.8551 103.353H33.2765C37.7251 103.353 41.3994 102.34 43.1169 101.636V104.83C43.1169 108.966 41.0897 111.625 33.2765 111.625Z" fill="white"/>
<path fill-rule="evenodd" clip-rule="evenodd" d="M76.0593 91.0296V99.1335C76.0593 106.632 70.5267 111.852 62.7135 111.852H60.9116C52.493 111.852 46.707 107.097 46.707 100.625C46.707 94.2937 51.3105 89.5382 64.3606 89.5382H67.4015V89.0739C67.4015 84.0793 65.0645 82.602 59.8276 82.602C53.4222 82.602 49.9168 85.0079 48.5794 86.654H48.2697V83.8401C48.2697 79.8726 51.7891 75.1875 61.0805 75.1875C68.9641 75.1875 76.0593 78.8596 76.0593 91.0296ZM67.4718 95.8554H64.3606C57.6455 95.8554 55.7591 97.4171 55.7591 100.301C55.7591 103.031 57.9552 104.677 61.8548 104.677C65.5995 104.677 67.4718 102.806 67.4718 99.2179V95.8554Z" fill="white"/>
<path d="M67.4706 95.8516V99.2141C67.4706 102.802 65.5982 104.673 61.8535 104.673C57.954 104.673 55.7578 103.027 55.7578 100.297C55.7578 97.4133 57.6442 95.8516 64.3594 95.8516H67.4706Z" fill="#EAB977"/>
<path d="M133.61 111.232C128.852 111.232 126.965 108.967 126.965 104.83V91.1829C126.965 85.33 124.318 82.8257 120.489 82.8257C116.899 82.8257 114.478 85.33 114.478 90.1699V111.232H112.141C108.228 111.232 105.736 108.967 105.736 104.83V91.1829C105.736 85.33 103.005 82.8257 99.1755 82.8257C95.7405 82.8257 93.1642 85.5551 93.1642 90.395V111.232H90.8273C87.2234 111.232 84.4219 108.896 84.4219 104.83V91.0984C84.4219 81.5031 89.4899 75.0312 100.189 75.0312C104.793 75.0312 108.382 77.1276 110.959 80.5605C113 77.2823 116.815 75.0312 121.109 75.0312C129.232 75.0312 135.792 79.9415 135.792 90.001V111.232H133.61Z" fill="white"/>
<path d="M110.578 10.2253H131.048C132.033 10.2253 132.821 9.43741 132.821 8.46662V6.56726C132.821 5.59648 132.033 4.80859 131.048 4.80859H110.578C109.593 4.80859 108.805 5.59648 108.805 6.56726V8.46662C108.805 9.43741 109.593 10.2253 110.578 10.2253Z" fill="#EAB977"/>
<path d="M110.578 23.6472H131.048C132.033 23.6472 132.821 22.8593 132.821 21.8744V19.9891C132.821 19.0184 132.033 18.2305 131.048 18.2305H110.578C109.593 18.2305 108.805 19.0184 108.805 19.9891V21.8744C108.805 22.8593 109.593 23.6472 110.578 23.6472Z" fill="#EAB977"/>
<path d="M110.578 37.0675H131.048C132.033 37.0675 132.821 36.2655 132.821 35.2947V33.4095C132.821 32.4246 132.033 31.6367 131.048 31.6367H110.578C109.593 31.6367 108.805 32.4246 108.805 33.4095V35.2947C108.805 36.2655 109.593 37.0675 110.578 37.0675Z" fill="#EAB977"/>
<path fill-rule="evenodd" clip-rule="evenodd" d="M26.8418 11.7587C26.8418 17.3582 23.1534 22.3951 16.8606 22.3951C13.7494 22.3951 11.2154 21.2414 9.34306 19.3842C9.34306 19.3842 6.4008 16.9643 6.38672 10.7457V10.7175C6.38672 10.6894 6.38672 10.6753 6.38672 10.6472C6.51342 5.25862 10.3285 0.390625 16.3961 0.390625C23.1534 0.390625 26.8418 5.46966 26.8418 11.7587ZM21.6471 11.0833C21.6471 7.39716 20.0422 4.75212 16.8606 4.75212C13.1863 4.75212 11.5814 7.39716 11.5814 11.7587C11.5814 15.4448 13.1863 18.0336 16.3961 18.0336C20.0845 18.0336 21.6471 15.4448 21.6471 11.0833Z" fill="white"/>
</svg>
