<svg width="66" height="66" viewBox="0 0 66 66" fill="none" xmlns="http://www.w3.org/2000/svg">
<g clip-path="url(#clip0_4533_14218)">
<path d="M65.0332 51.8164C65.2896 51.8164 65.5355 51.7145 65.7168 51.5332C65.8981 51.3519 66 51.106 66 50.8496V46.9824C66 46.726 65.8981 46.4801 65.7168 46.2988C65.5355 46.1175 65.2896 46.0156 65.0332 46.0156H3.54492C2.60517 46.017 1.7043 46.3909 1.03979 47.0554C0.375284 47.7199 0.00136394 48.6208 0 49.5605L0 62.4512C0.00136394 63.3909 0.375284 64.2918 1.03979 64.9563C1.7043 65.6208 2.60517 65.9947 3.54492 65.9961H65.0332C65.2896 65.9961 65.5355 65.8942 65.7168 65.7129C65.8981 65.5316 66 65.2857 66 65.0293V61.1621C66 60.9057 65.8981 60.6598 65.7168 60.4785C65.5355 60.2972 65.2896 60.1953 65.0332 60.1953H60.8438V51.8164H65.0332ZM58.9102 60.1953H7.41211C7.32664 60.1953 7.24467 60.1614 7.18423 60.1009C7.1238 60.0405 7.08984 59.9585 7.08984 59.873V56.9727H53.4316C53.688 56.9727 53.934 56.8708 54.1153 56.6895C54.2966 56.5082 54.3984 56.2623 54.3984 56.0059C54.3984 55.7494 54.2966 55.5035 54.1153 55.3222C53.934 55.1409 53.688 55.0391 53.4316 55.0391H7.08984V52.1387C7.08984 52.0532 7.1238 51.9712 7.18423 51.9108C7.24467 51.8504 7.32664 51.8164 7.41211 51.8164H58.9102V60.1953ZM7.41211 49.8828C6.81403 49.8835 6.24064 50.1214 5.81773 50.5443C5.39482 50.9672 5.15693 51.5406 5.15625 52.1387V59.873C5.15693 60.4711 5.39482 61.0445 5.81773 61.4674C6.24064 61.8903 6.81403 62.1282 7.41211 62.1289H64.0664V64.0625H3.54492C3.11778 64.0618 2.70833 63.8918 2.40629 63.5898C2.10426 63.2878 1.93428 62.8783 1.93359 62.4512V49.5605C1.93428 49.1334 2.10426 48.724 2.40629 48.4219C2.70833 48.1199 3.11778 47.9499 3.54492 47.9492H64.0664V49.8828H7.41211Z" fill="white"/>
<path d="M25.2198 33.6445L30.1686 40.4495C30.4931 40.8958 30.9187 41.259 31.4104 41.5095C31.9022 41.7599 32.4462 41.8904 32.998 41.8904C33.5499 41.8904 34.0939 41.7599 34.5857 41.5095C35.0774 41.259 35.503 40.8958 35.8275 40.4495L40.7762 33.6445C43.7567 32.1861 46.2685 29.9214 48.0267 27.1073C49.7848 24.2933 50.7188 21.0427 50.7227 17.7246C50.7227 7.95094 42.7717 0 32.998 0C23.2244 0 15.2734 7.95094 15.2734 17.7246C15.2773 21.0427 16.2113 24.2933 17.9694 27.1073C19.7276 29.9214 22.2394 32.1861 25.2198 33.6445ZM34.2639 39.3164C34.1187 39.5161 33.9284 39.6787 33.7084 39.7907C33.4884 39.9028 33.245 39.9612 32.998 39.9612C32.7511 39.9612 32.5077 39.9028 32.2877 39.7907C32.0677 39.6787 31.8774 39.5161 31.7322 39.3164L28.4992 34.8704C31.4488 35.6422 34.5473 35.6422 37.4969 34.8704L34.2639 39.3164ZM32.998 1.93359C36.1212 1.93359 39.1742 2.85972 41.7711 4.59486C44.3679 6.33 46.3919 8.79622 47.587 11.6816C48.7822 14.5671 49.0949 17.7421 48.4856 20.8053C47.8763 23.8684 46.3724 26.6821 44.164 28.8905C41.9556 31.099 39.1419 32.6029 36.0787 33.2122C33.0156 33.8215 29.8405 33.5088 26.9551 32.3136C24.0697 31.1184 21.6034 29.0944 19.8683 26.4976C18.1332 23.9008 17.207 20.8478 17.207 17.7246C17.2115 13.5379 18.8766 9.524 21.837 6.56357C24.7974 3.60315 28.8114 1.93803 32.998 1.93359Z" fill="white"/>
<path d="M24.0688 23.2173H29.354C30.4316 23.2173 31.4861 23.7806 32.244 24.7642C32.3344 24.8809 32.4503 24.9753 32.5828 25.0403C32.7153 25.1053 32.8609 25.1391 33.0084 25.1391C33.156 25.1391 33.3016 25.1053 33.4341 25.0403C33.5666 24.9753 33.6825 24.8809 33.7729 24.7642C34.5308 23.7832 35.5853 23.2173 36.6629 23.2173H41.9352C43.2243 23.2173 44.2813 22.0352 44.2813 20.5825V12.531C44.2813 12.3605 44.2362 12.1931 44.1506 12.0456C44.0651 11.8982 43.942 11.776 43.794 11.6915C43.646 11.6069 43.4782 11.563 43.3078 11.5642C43.1373 11.5654 42.9702 11.6116 42.8234 11.6982L42.2407 12.0424C42.1878 12.076 42.1248 12.0901 42.0626 12.0821C42.0005 12.0741 41.9431 12.0445 41.9004 11.9986C40.5972 10.8952 39.0606 10.3125 37.4557 10.3125C35.8172 10.3298 34.2384 10.9298 33.002 12.005C31.7657 10.9296 30.1868 10.3296 28.5483 10.3125C26.9434 10.3125 25.4068 10.8952 24.1075 11.9986C24.0648 12.0445 24.0074 12.0741 23.9452 12.0821C23.8831 12.0901 23.8201 12.076 23.7672 12.0424L23.1845 11.6982C23.0377 11.6116 22.8706 11.5654 22.7001 11.5642C22.5296 11.563 22.3619 11.6069 22.2139 11.6915C22.0658 11.776 21.9428 11.8982 21.8572 12.0456C21.7717 12.1931 21.7266 12.3605 21.7266 12.531V20.5825C21.7227 22.0352 22.7759 23.2173 24.0688 23.2173ZM37.4557 12.2461C38.6334 12.2597 39.7672 12.6951 40.6513 13.4733C40.8827 13.673 41.1527 13.823 41.4446 13.9139C41.7364 14.0048 42.0438 14.0347 42.3477 14.0018V20.576C42.3477 21.004 42.1028 21.2773 41.9352 21.2773H36.6565C35.7094 21.2821 34.781 21.5416 33.9688 22.0288V13.7362L33.992 13.7143C34.9833 12.7617 36.2131 12.2461 37.4557 12.2461ZM23.6627 14.0018C23.9666 14.0347 24.2741 14.0048 24.5659 13.9139C24.8577 13.823 25.1277 13.673 25.3592 13.4733C26.2419 12.6963 27.3737 12.261 28.5496 12.2461C29.7909 12.2461 31.0207 12.7617 32.012 13.7143L32.0352 13.7362V22.0352C31.223 21.5481 30.2946 21.2885 29.3475 21.2837H24.0624C23.8948 21.2837 23.6499 21.0104 23.6499 20.5825L23.6627 14.0018Z" fill="white"/>
</g>
<defs>
<clipPath id="clip0_4533_14218">
<rect width="66" height="66" fill="white"/>
</clipPath>
</defs>
</svg>
