<svg width="62" height="63" viewBox="0 0 62 63" fill="none" xmlns="http://www.w3.org/2000/svg">
<path d="M60.2364 4.19167H56.9898C56.7779 3.581 56.3878 3.05218 55.8726 2.67717C55.3575 2.30216 54.7422 2.09918 54.1107 2.09584H52.0688V0H50.0269V2.09584H45.943V0H43.9011V2.09584H39.8173V0H37.7754V2.09584H34.7125C33.9009 2.09832 33.1233 2.43034 32.5494 3.01937C31.9755 3.6084 31.6521 4.40658 31.6496 5.23959H29.6077C29.6053 4.40658 29.2818 3.6084 28.708 3.01937C28.1341 2.43034 27.3564 2.09832 26.5449 2.09584H23.482V0H21.4401V2.09584H17.3563V0H15.3143V2.09584H11.2305V0H9.18861V2.09584H7.14669C6.33512 2.09832 5.55747 2.43034 4.9836 3.01937C4.40972 3.6084 4.08625 4.40658 4.08383 5.23959H1.02096C0.750182 5.23959 0.490498 5.35 0.299031 5.54652C0.107565 5.74304 0 6.00958 0 6.28751V51.348C0 51.6259 0.107565 51.8925 0.299031 52.089C0.490498 52.2855 0.750182 52.3959 1.02096 52.3959H60.2364C60.5072 52.3959 60.7669 52.2855 60.9584 52.089C61.1498 51.8925 61.2574 51.6259 61.2574 51.348V5.23959C61.2574 4.96167 61.1498 4.69512 60.9584 4.4986C60.7669 4.30208 60.5072 4.19167 60.2364 4.19167ZM33.6916 5.23959C33.6916 4.96167 33.7991 4.69512 33.9906 4.4986C34.1821 4.30208 34.4417 4.19167 34.7125 4.19167H37.7754V6.28751H39.8173V4.19167H43.9011V6.28751H45.943V4.19167H50.0269V6.28751H52.0688V4.19167H54.1107C54.3815 4.19167 54.6411 4.30208 54.8326 4.4986C55.0241 4.69512 55.1316 4.96167 55.1316 5.23959V8.38335H33.6916V5.23959ZM33.6916 10.4792H55.1316V45.0605C55.1316 45.3384 55.0241 45.6049 54.8326 45.8015C54.6411 45.998 54.3815 46.1084 54.1107 46.1084H33.6916V10.4792ZM29.6077 7.33543H31.6496V47.1563C31.6496 47.4342 31.5421 47.7008 31.3506 47.8973C31.1592 48.0938 30.8995 48.2042 30.6287 48.2042C30.3579 48.2042 30.0982 48.0938 29.9068 47.8973C29.7153 47.7008 29.6077 47.4342 29.6077 47.1563V7.33543ZM6.12574 5.23959C6.12574 4.96167 6.2333 4.69512 6.42477 4.4986C6.61624 4.30208 6.87592 4.19167 7.14669 4.19167H9.18861V6.28751H11.2305V4.19167H15.3143V6.28751H17.3563V4.19167H21.4401V6.28751H23.482V4.19167H26.5449C26.8156 4.19167 27.0753 4.30208 27.2668 4.4986C27.4583 4.69512 27.5658 4.96167 27.5658 5.23959V8.38335H6.12574V5.23959ZM6.12574 10.4792H27.5658V46.1084H7.14669C6.87592 46.1084 6.61624 45.998 6.42477 45.8015C6.2333 45.6049 6.12574 45.3384 6.12574 45.0605V10.4792ZM59.2155 50.3001H2.04191V7.33543H4.08383V45.0605C4.08625 45.8935 4.40972 46.6917 4.9836 47.2807C5.55747 47.8697 6.33512 48.2017 7.14669 48.2042H27.7496C27.9586 48.8168 28.348 49.3476 28.8638 49.7231C29.3796 50.0986 29.9963 50.3003 30.6287 50.3003C31.2611 50.3003 31.8778 50.0986 32.3936 49.7231C32.9094 49.3476 33.2987 48.8168 33.5078 48.2042H54.1107C54.9223 48.2017 55.6999 47.8697 56.2738 47.2807C56.8477 46.6917 57.1711 45.8935 57.1736 45.0605V6.28751H59.2155V50.3001Z" fill="white"/>
<path d="M58.1944 56.5859H9.1885C9.10486 56.5859 9.02154 56.5965 8.94041 56.6174L0.772757 58.7132C0.551998 58.77 0.356055 58.9009 0.216049 59.085C0.0760422 59.2692 0 59.4961 0 59.7297C0 59.9633 0.0760422 60.1902 0.216049 60.3744C0.356055 60.5585 0.551998 60.6894 0.772757 60.7462L8.94041 62.842C9.02154 62.8629 9.10486 62.8734 9.1885 62.8734H58.1944C59.0067 62.8734 59.7858 62.5422 60.3602 61.9527C60.9346 61.3631 61.2573 60.5635 61.2573 59.7297C61.2573 58.8959 60.9346 58.0963 60.3602 57.5067C59.7858 56.9172 59.0067 56.5859 58.1944 56.5859ZM58.1944 60.7776H9.31408L5.23025 59.7297L9.31408 58.6818H58.1944C58.4652 58.6818 58.7249 58.7922 58.9163 58.9887C59.1078 59.1852 59.2154 59.4518 59.2154 59.7297C59.2154 60.0076 59.1078 60.2742 58.9163 60.4707C58.7249 60.6672 58.4652 60.7776 58.1944 60.7776Z" fill="white"/>
<path d="M10.2124 18.8578H14.2962C14.567 18.8578 14.8266 18.7474 15.0181 18.5509C15.2096 18.3544 15.3171 18.0878 15.3171 17.8099V13.6182C15.3171 13.3403 15.2096 13.0738 15.0181 12.8772C14.8266 12.6807 14.567 12.5703 14.2962 12.5703H10.2124C9.94159 12.5703 9.6819 12.6807 9.49044 12.8772C9.29897 13.0738 9.19141 13.3403 9.19141 13.6182V17.8099C9.19141 18.0878 9.29897 18.3544 9.49044 18.5509C9.6819 18.7474 9.94159 18.8578 10.2124 18.8578ZM11.2333 14.6661H13.2752V16.762H11.2333V14.6661Z" fill="white"/>
<path d="M19.3999 18.8578H23.4837C23.7545 18.8578 24.0141 18.7474 24.2056 18.5509C24.3971 18.3544 24.5046 18.0878 24.5046 17.8099V13.6182C24.5046 13.3403 24.3971 13.0738 24.2056 12.8772C24.0141 12.6807 23.7545 12.5703 23.4837 12.5703H19.3999C19.1291 12.5703 18.8694 12.6807 18.6779 12.8772C18.4865 13.0738 18.3789 13.3403 18.3789 13.6182V17.8099C18.3789 18.0878 18.4865 18.3544 18.6779 18.5509C18.8694 18.7474 19.1291 18.8578 19.3999 18.8578ZM20.4208 14.6661H22.4627V16.762H20.4208V14.6661Z" fill="white"/>
<path d="M10.2124 27.2484H14.2962C14.567 27.2484 14.8266 27.138 15.0181 26.9415C15.2096 26.745 15.3171 26.4785 15.3171 26.2005V22.0089C15.3171 21.7309 15.2096 21.4644 15.0181 21.2679C14.8266 21.0713 14.567 20.9609 14.2962 20.9609H10.2124C9.94159 20.9609 9.6819 21.0713 9.49044 21.2679C9.29897 21.4644 9.19141 21.7309 9.19141 22.0089V26.2005C9.19141 26.4785 9.29897 26.745 9.49044 26.9415C9.6819 27.138 9.94159 27.2484 10.2124 27.2484ZM11.2333 23.0568H13.2752V25.1526H11.2333V23.0568Z" fill="white"/>
<path d="M19.3999 27.2484H23.4837C23.7545 27.2484 24.0141 27.138 24.2056 26.9415C24.3971 26.745 24.5046 26.4785 24.5046 26.2005V22.0089C24.5046 21.7309 24.3971 21.4644 24.2056 21.2679C24.0141 21.0713 23.7545 20.9609 23.4837 20.9609H19.3999C19.1291 20.9609 18.8694 21.0713 18.6779 21.2679C18.4865 21.4644 18.3789 21.7309 18.3789 22.0089V26.2005C18.3789 26.4785 18.4865 26.745 18.6779 26.9415C18.8694 27.138 19.1291 27.2484 19.3999 27.2484ZM20.4208 23.0568H22.4627V25.1526H20.4208V23.0568Z" fill="white"/>
<path d="M37.7749 18.8578H41.8587C42.1295 18.8578 42.3891 18.7474 42.5806 18.5509C42.7721 18.3544 42.8796 18.0878 42.8796 17.8099V13.6182C42.8796 13.3403 42.7721 13.0738 42.5806 12.8772C42.3891 12.6807 42.1295 12.5703 41.8587 12.5703H37.7749C37.5041 12.5703 37.2444 12.6807 37.0529 12.8772C36.8615 13.0738 36.7539 13.3403 36.7539 13.6182V17.8099C36.7539 18.0878 36.8615 18.3544 37.0529 18.5509C37.2444 18.7474 37.5041 18.8578 37.7749 18.8578ZM38.7958 14.6661H40.8377V16.762H38.7958V14.6661Z" fill="white"/>
<path d="M51.0462 12.5703H46.9624C46.6916 12.5703 46.4319 12.6807 46.2404 12.8772C46.049 13.0738 45.9414 13.3403 45.9414 13.6182V17.8099C45.9414 18.0878 46.049 18.3544 46.2404 18.5509C46.4319 18.7474 46.6916 18.8578 46.9624 18.8578H51.0462C51.317 18.8578 51.5766 18.7474 51.7681 18.5509C51.9596 18.3544 52.0671 18.0878 52.0671 17.8099V13.6182C52.0671 13.3403 51.9596 13.0738 51.7681 12.8772C51.5766 12.6807 51.317 12.5703 51.0462 12.5703ZM50.0252 16.762H47.9833V14.6661H50.0252V16.762Z" fill="white"/>
<path d="M37.7749 27.2484H41.8587C42.1295 27.2484 42.3891 27.138 42.5806 26.9415C42.7721 26.745 42.8796 26.4785 42.8796 26.2005V22.0089C42.8796 21.7309 42.7721 21.4644 42.5806 21.2679C42.3891 21.0713 42.1295 20.9609 41.8587 20.9609H37.7749C37.5041 20.9609 37.2444 21.0713 37.0529 21.2679C36.8615 21.4644 36.7539 21.7309 36.7539 22.0089V26.2005C36.7539 26.4785 36.8615 26.745 37.0529 26.9415C37.2444 27.138 37.5041 27.2484 37.7749 27.2484ZM38.7958 23.0568H40.8377V25.1526H38.7958V23.0568Z" fill="white"/>
<path d="M51.0462 20.9609H46.9624C46.6916 20.9609 46.4319 21.0713 46.2404 21.2679C46.049 21.4644 45.9414 21.7309 45.9414 22.0089V26.2005C45.9414 26.4785 46.049 26.745 46.2404 26.9415C46.4319 27.138 46.6916 27.2484 46.9624 27.2484H51.0462C51.317 27.2484 51.5766 27.138 51.7681 26.9415C51.9596 26.745 52.0671 26.4785 52.0671 26.2005V22.0089C52.0671 21.7309 51.9596 21.4644 51.7681 21.2679C51.5766 21.0713 51.317 20.9609 51.0462 20.9609ZM50.0252 25.1526H47.9833V23.0568H50.0252V25.1526Z" fill="white"/>
<path d="M9.19141 31.4375H11.2333V33.5333H9.19141V31.4375Z" fill="white"/>
<path d="M13.2734 31.4375H15.3154V33.5333H13.2734V31.4375Z" fill="white"/>
<path d="M18.3789 31.4375H20.4208V33.5333H18.3789V31.4375Z" fill="white"/>
<path d="M22.4609 31.4375H24.5029V33.5333H22.4609V31.4375Z" fill="white"/>
<path d="M9.19141 36.6797H11.2333V38.7755H9.19141V36.6797Z" fill="white"/>
<path d="M13.2734 36.6797H15.3154V38.7755H13.2734V36.6797Z" fill="white"/>
<path d="M18.3789 36.6797H20.4208V38.7755H18.3789V36.6797Z" fill="white"/>
<path d="M22.4609 36.6797H24.5029V38.7755H22.4609V36.6797Z" fill="white"/>
<path d="M9.19141 41.9141H11.2333V44.0099H9.19141V41.9141Z" fill="white"/>
<path d="M13.2734 41.9141H15.3154V44.0099H13.2734V41.9141Z" fill="white"/>
<path d="M18.3789 41.9141H20.4208V44.0099H18.3789V41.9141Z" fill="white"/>
<path d="M22.4609 41.9141H24.5029V44.0099H22.4609V41.9141Z" fill="white"/>
<path d="M36.7539 31.4375H52.0683V33.5333H36.7539V31.4375Z" fill="white"/>
<path d="M36.7539 36.6797H52.0683V38.7755H36.7539V36.6797Z" fill="white"/>
<path d="M36.7539 41.9141H52.0683V44.0099H36.7539V41.9141Z" fill="white"/>
</svg>
