<svg width="60" height="75" viewBox="0 0 60 75" fill="none" xmlns="http://www.w3.org/2000/svg">
<path fill-rule="evenodd" clip-rule="evenodd" d="M59.0712 16.5743C59.0979 16.6174 59.1171 16.6485 59.1676 16.6485C59.1676 16.7301 59.188 16.8322 59.2084 16.9342C59.2288 17.0362 59.2492 17.1382 59.2492 17.2198V65.778C59.2492 70.8379 55.087 75 50.0272 75H9.22198C4.16214 75 0 70.8379 0 65.778V9.22198C0 4.16213 4.16214 0 9.22198 0H43.6616C43.9064 0 44.1512 0.0816107 44.3145 0.163221C44.3553 0.163221 44.3757 0.183624 44.3961 0.204027C44.4165 0.22443 44.4369 0.244831 44.4777 0.244831C44.5185 0.285637 44.5797 0.326442 44.6409 0.367247C44.7021 0.408052 44.7633 0.448858 44.8041 0.489663L58.8411 16.2405C58.8819 16.2813 58.9023 16.3221 58.9227 16.3629C58.9431 16.4037 58.9635 16.4445 59.0043 16.4853C59.0355 16.5165 59.0548 16.5477 59.0712 16.5743ZM54.2709 15.7508L45.2122 5.54951V15.7508H54.2709ZM50.0272 71.8988C53.4548 71.8988 56.148 69.1241 56.148 65.6964V18.7704H43.6616C42.7639 18.7704 42.111 18.0359 42.111 17.2198V3.01959H9.22198C5.87595 3.01959 3.1012 5.71273 3.1012 9.14037V65.778C3.1012 69.124 5.79434 71.8988 9.22198 71.8988H50.0272ZM14.7831 35.52C13.4898 35.52 12.2098 35.9333 10.9431 36.76L12.1631 38.48C12.9098 37.96 13.6431 37.7 14.3631 37.7C14.9765 37.7 15.4698 37.8867 15.8431 38.26C16.2298 38.62 16.4231 39.0933 16.4231 39.68C16.4231 40.4267 16.0831 41.2867 15.4031 42.26C15.0831 42.7267 14.3698 43.5733 13.2631 44.8L11.8231 46.44L10.3431 47.96V50H17.9231L18.9231 48.76V47.96H13.0631L14.2431 46.76C14.3631 46.64 14.9631 45.9267 16.0431 44.62C17.0031 43.4467 17.6765 42.4667 18.0631 41.68C18.4498 40.8933 18.6431 40.0933 18.6431 39.28C18.6431 38.1867 18.3431 37.3133 17.7431 36.66C17.0631 35.9 16.0765 35.52 14.7831 35.52ZM36.0783 50L31.4583 42.7L35.8783 35.68H32.4783L29.8383 40.4L27.3383 35.68H23.8383L28.1983 42.78L23.6783 50H27.0983L29.8183 45.04L32.5783 50H36.0783ZM47.1956 37.72V35.68H40.5356L40.1156 43.32C40.209 43.3067 40.3223 43.2933 40.4556 43.28C41.4556 43.1733 42.189 43.12 42.6556 43.12C43.7756 43.12 44.5823 43.3267 45.0756 43.74C45.569 44.1533 45.8156 44.8333 45.8156 45.78C45.8156 46.7133 45.5223 47.3667 44.9356 47.74C44.4423 48.06 43.6023 48.22 42.4156 48.22C41.7356 48.22 40.9356 48.1267 40.0156 47.94V48.88L40.7956 49.82C41.6356 50.0333 42.489 50.14 43.3556 50.14C44.6756 50.14 45.769 49.8333 46.6356 49.22C47.7156 48.4467 48.2556 47.34 48.2556 45.9C48.2556 44.5533 47.9023 43.4667 47.1956 42.64C46.369 41.68 45.1956 41.2 43.6756 41.2C43.3956 41.2 43.0356 41.2333 42.5956 41.3L42.7956 37.72H47.1956Z" fill="white"/>
</svg>
