<svg width="17" height="17" viewBox="0 0 17 17" fill="none" xmlns="http://www.w3.org/2000/svg">
<g clip-path="url(#clip0_2833_6506)">
<path d="M5.84766 13.2363H11.2244C11.3625 13.2363 11.4744 13.1245 11.4744 12.9863C11.4744 12.8481 11.3625 12.7363 11.2244 12.7363H5.84766C5.70947 12.7363 5.59766 12.8481 5.59766 12.9863C5.59766 13.1245 5.70947 13.2363 5.84766 13.2363Z" fill="white"/>
<path d="M5.84766 15.1094H11.2244C11.3625 15.1094 11.4744 14.9976 11.4744 14.8594C11.4744 14.7212 11.3625 14.6094 11.2244 14.6094H5.84766C5.70947 14.6094 5.59766 14.7212 5.59766 14.8594C5.59766 14.9976 5.70947 15.1094 5.84766 15.1094Z" fill="white"/>
<path d="M15.6401 5.58H14.5176V4.3725C14.5176 4.08251 14.2827 3.8475 13.9926 3.8475H13.3026V2.66C13.3026 2.66 13.3026 2.6575 13.3026 2.655C13.2952 2.595 13.2676 2.5425 13.2277 2.5025L11.0502 0.3275C11.0101 0.285005 10.9551 0.257508 10.8951 0.252503H10.8926C10.8901 0.252503 10.8876 0.25 10.8826 0.25H4.02014C3.88013 0.25 3.77014 0.362503 3.77014 0.5V3.8475H3.08014C2.79016 3.8475 2.55264 4.0825 2.55264 4.3725V5.58H1.36267C0.767639 5.58 0.285156 6.0625 0.285156 6.655V12.675C0.285156 13.2675 0.767639 13.75 1.36267 13.75H4.24515V16.225C4.24515 16.515 4.48016 16.75 4.77014 16.75H12.3002C12.5902 16.75 12.8276 16.515 12.8276 16.225V13.75H15.6401C16.2327 13.75 16.7152 13.2675 16.7152 12.675V6.655C16.7152 6.0625 16.2327 5.58 15.6401 5.58ZM4.27014 0.75H10.6201V2.68001C10.6201 2.82001 10.7327 2.93001 10.8701 2.93001H12.8026V5.58H4.27014V0.75ZM12.6902 7.7475C12.6902 8.02428 12.4655 8.2475 12.1902 8.2475C11.9149 8.2475 11.6902 8.02428 11.6902 7.7475C11.6902 7.4722 11.9149 7.2475 12.1902 7.2475C12.4655 7.2475 12.6902 7.4722 12.6902 7.7475ZM12.3276 16.225C12.3276 16.24 12.3152 16.25 12.3002 16.25H4.77014C4.75513 16.25 4.74515 16.24 4.74515 16.225V11.81H12.3276V16.225ZM12.9201 11.31H4.15264C3.97591 11.31 3.83264 11.1667 3.83264 10.99C3.83264 10.8133 3.97591 10.67 4.15264 10.67H12.9201C13.0969 10.67 13.2401 10.8133 13.2401 10.99C13.2401 11.1667 13.0969 11.31 12.9201 11.31ZM14.4907 8.248C14.2151 8.248 13.9901 8.02455 13.9901 7.7475C13.9901 7.47193 14.2151 7.247 14.4907 7.247C14.7677 7.247 14.9926 7.47193 14.9926 7.7475C14.9926 8.02455 14.7677 8.248 14.4907 8.248Z" fill="white"/>
<path d="M7.37329 1.3418H5.36719C5.229 1.3418 5.11719 1.45361 5.11719 1.5918C5.11719 1.72998 5.229 1.8418 5.36719 1.8418H7.37329C7.51147 1.8418 7.62329 1.72998 7.62329 1.5918C7.62329 1.45361 7.51147 1.3418 7.37329 1.3418Z" fill="white"/>
<path d="M8.33667 1.3418H8.24609C8.10791 1.3418 7.99609 1.45361 7.99609 1.5918C7.99609 1.72998 8.10791 1.8418 8.24609 1.8418H8.33667C8.47485 1.8418 8.58667 1.72998 8.58667 1.5918C8.58667 1.45361 8.47485 1.3418 8.33667 1.3418Z" fill="white"/>
</g>
<defs>
<clipPath id="clip0_2833_6506">
<rect width="17" height="17" fill="white"/>
</clipPath>
</defs>
</svg>
