<svg width="28" height="27" viewBox="0 0 28 27" fill="none" xmlns="http://www.w3.org/2000/svg">
<g clip-path="url(#clip0_4533_12873)">
<path d="M9.53573 21.0285H18.0752C18.2947 21.0285 18.4723 20.8509 18.4723 20.6314C18.4723 20.412 18.2947 20.2344 18.0752 20.2344H9.53573C9.31626 20.2344 9.13867 20.412 9.13867 20.6314C9.13867 20.8509 9.31626 21.0285 9.53573 21.0285Z" fill="#0A3A81"/>
<path d="M9.53573 23.9972H18.0752C18.2947 23.9972 18.4723 23.8197 18.4723 23.6002C18.4723 23.3807 18.2947 23.2031 18.0752 23.2031H9.53573C9.31626 23.2031 9.13867 23.3807 9.13867 23.6002C9.13867 23.8197 9.31626 23.9972 9.53573 23.9972Z" fill="#0A3A81"/>
<path d="M25.0905 8.86374H23.3077V6.94593C23.3077 6.48536 22.9345 6.11212 22.4738 6.11212H21.378V4.22609C21.378 4.22609 21.378 4.22211 21.378 4.21814C21.3661 4.12285 21.3224 4.03946 21.2589 3.97594L17.8005 0.521526C17.7369 0.454034 17.6496 0.410361 17.5543 0.402412H17.5503C17.5463 0.402412 17.5424 0.398438 17.5344 0.398438H6.63516C6.41279 0.398438 6.23811 0.577118 6.23811 0.795496V6.11212H5.14222C4.68167 6.11212 4.30443 6.48535 4.30443 6.94593V8.86374H2.41447C1.46942 8.86374 0.703125 9.63006 0.703125 10.5711V20.1323C0.703125 21.0733 1.46942 21.8396 2.41447 21.8396H6.99253V25.7705C6.99253 26.2311 7.36578 26.6043 7.82634 26.6043H19.7858C20.2464 26.6043 20.6235 26.2311 20.6235 25.7705V21.8396H25.0905C26.0315 21.8396 26.7978 21.0733 26.7978 20.1323V10.5711C26.7978 9.63006 26.0315 8.86374 25.0905 8.86374ZM7.03222 1.19256H17.1175V4.25786C17.1175 4.48021 17.2962 4.65492 17.5146 4.65492H20.5838V8.86374H7.03222V1.19256ZM20.4052 12.3062C20.4052 12.7458 20.0483 13.1003 19.6111 13.1003C19.1738 13.1003 18.8169 12.7458 18.8169 12.3062C18.8169 11.869 19.1738 11.5121 19.6111 11.5121C20.0483 11.5121 20.4052 11.869 20.4052 12.3062ZM19.8294 25.7705C19.8294 25.7943 19.8096 25.8102 19.7858 25.8102H7.82634C7.80249 25.8102 7.78664 25.7943 7.78664 25.7705V18.7584H19.8294V25.7705ZM20.7705 17.9643H6.8456C6.56491 17.9643 6.33737 17.7368 6.33737 17.4561C6.33737 17.1754 6.56491 16.9478 6.8456 16.9478H20.7705C21.0511 16.9478 21.2787 17.1754 21.2787 17.4561C21.2787 17.7368 21.0512 17.9643 20.7705 17.9643ZM23.2648 13.1011C22.8271 13.1011 22.4699 12.7463 22.4699 12.3062C22.4699 11.8686 22.8271 11.5113 23.2648 11.5113C23.7048 11.5113 24.0621 11.8686 24.0621 12.3062C24.0621 12.7463 23.7048 13.1011 23.2648 13.1011Z" fill="#0A3A81"/>
<path d="M11.9602 2.13281H8.77401C8.55455 2.13281 8.37695 2.31041 8.37695 2.52987C8.37695 2.74934 8.55455 2.92693 8.77401 2.92693H11.9602C12.1796 2.92693 12.3572 2.74934 12.3572 2.52987C12.3572 2.31041 12.1796 2.13281 11.9602 2.13281Z" fill="#0A3A81"/>
<path d="M13.4882 2.13281H13.3443C13.1249 2.13281 12.9473 2.31041 12.9473 2.52987C12.9473 2.74934 13.1249 2.92693 13.3443 2.92693H13.4882C13.7076 2.92693 13.8852 2.74934 13.8852 2.52987C13.8852 2.31041 13.7076 2.13281 13.4882 2.13281Z" fill="#0A3A81"/>
</g>
<defs>
<clipPath id="clip0_4533_12873">
<rect width="27" height="27" fill="white" transform="translate(0.25)"/>
</clipPath>
</defs>
</svg>
