<svg width="13" height="15" viewBox="0 0 13 15" fill="none" xmlns="http://www.w3.org/2000/svg">
<path fill-rule="evenodd" clip-rule="evenodd" d="M12.6937 13.0814C12.6937 13.59 12.4914 14.0784 12.132 14.4384C11.772 14.7977 11.2837 15 10.7751 15H2.40298C1.89438 15 1.406 14.7977 1.046 14.4384C0.6867 14.0784 0.484375 13.59 0.484375 13.0814V1.9186C0.484375 1.41 0.6867 0.921628 1.046 0.561628C1.406 0.202326 1.89438 0 2.40298 0H8.39321C8.71693 0 9.0274 0.128372 9.25624 0.357907L12.3358 3.43744C12.5653 3.66628 12.6937 3.97674 12.6937 4.30047V13.0814ZM3.79833 12.2093H6.93786C7.2267 12.2093 7.46112 11.9749 7.46112 11.686C7.46112 11.3972 7.2267 11.1628 6.93786 11.1628H3.79833C3.50949 11.1628 3.27507 11.3972 3.27507 11.686C3.27507 11.9749 3.50949 12.2093 3.79833 12.2093ZM3.79833 9.76744H9.37972C9.66856 9.76744 9.90298 9.53302 9.90298 9.24419C9.90298 8.95535 9.66856 8.72093 9.37972 8.72093H3.79833C3.50949 8.72093 3.27507 8.95535 3.27507 9.24419C3.27507 9.53302 3.50949 9.76744 3.79833 9.76744ZM8.33321 1.22093V3.66279C8.33321 4.04791 8.64577 4.36047 9.03089 4.36047H11.4727L8.33321 1.22093ZM3.79833 7.32558H9.37972C9.66856 7.32558 9.90298 7.09116 9.90298 6.80233C9.90298 6.51349 9.66856 6.27907 9.37972 6.27907H3.79833C3.50949 6.27907 3.27507 6.51349 3.27507 6.80233C3.27507 7.09116 3.50949 7.32558 3.79833 7.32558Z" fill="#0A3A81"/>
</svg>
