<svg width="71" height="63" viewBox="0 0 71 63" fill="none" xmlns="http://www.w3.org/2000/svg">
<path d="M62.0305 47.3632V44.4101C62.0261 41.4498 60.9128 38.5988 58.9107 36.4208C56.9085 34.2429 54.1633 32.8963 51.2176 32.6475V32.1255C53.0343 31.4962 54.5948 30.2878 55.6601 28.6853C56.7254 27.0829 57.2366 25.1749 57.1155 23.2537C60.2925 19.8188 62.5392 8.16556 55.1457 9.95073C48.7332 6.79237 41.3608 7.53354 38.2169 11.7075C34.7361 17.0403 36.9272 23.046 39.6578 25.8688C39.9964 27.3059 40.6934 28.6337 41.6835 29.7278C42.6737 30.822 43.9247 31.647 45.3196 32.1255V32.6475C43.1983 32.8273 41.1649 33.5779 39.4345 34.82C37.7042 36.062 36.3412 37.7492 35.4897 39.7033C34.6383 37.7492 33.2753 36.062 31.5449 34.82C29.8146 33.5779 27.7812 32.8273 25.6598 32.6475V32.1346C27.4819 31.5107 29.0474 30.3022 30.1138 28.6965C31.1802 27.0909 31.6877 25.1777 31.5578 23.2538C34.7346 19.8187 36.9815 8.16565 29.5879 9.95073C23.1755 6.79237 15.803 7.53354 12.6592 11.7075C9.17841 17.0437 11.3692 23.0353 14.0945 25.8649C14.4252 27.3079 15.1198 28.642 16.112 29.7397C17.1042 30.8373 18.3608 31.662 19.7619 32.1348V32.6475C16.8162 32.8963 14.0709 34.2429 12.0688 36.4208C10.0666 38.5988 8.95335 41.4498 8.94897 44.4101V47.3632C8.16712 47.3641 7.41753 47.6755 6.86468 48.2291C6.31182 48.7828 6.00085 49.5334 6 50.3164V51.3007C6.00085 52.0837 6.31182 52.8343 6.86468 53.388C7.41753 53.9416 8.16712 54.253 8.94897 54.2539H62.0305C62.8123 54.253 63.5619 53.9416 64.1148 53.388C64.6676 52.8343 64.9786 52.0837 64.9794 51.3007V50.3164C64.9786 49.5334 64.6676 48.7828 64.1148 48.2291C63.5619 47.6755 62.8123 47.3641 62.0305 47.3632ZM41.3877 23.8858V22.3609C45.1703 22.6997 50.2161 19.9543 51.8923 16.6681C51.9587 16.5573 52.0027 16.4344 52.0217 16.3065C52.0407 16.1787 52.0344 16.0483 52.0031 15.9229C51.9717 15.7975 51.9161 15.6795 51.8392 15.5757C51.7623 15.4718 51.6658 15.3842 51.5551 15.3177C51.4444 15.2512 51.3217 15.2072 51.194 15.1883C51.0663 15.1693 50.9361 15.1757 50.8109 15.2071C50.6857 15.2386 50.5679 15.2944 50.4642 15.3714C50.3605 15.4484 50.2731 15.5452 50.2067 15.6561C48.4578 18.9908 43.6273 20.9089 40.4526 20.3336C40.2879 20.3165 40.1217 20.3414 39.9692 20.4058C39.8167 20.4702 39.6828 20.572 39.5801 20.7019C39.4773 20.8319 39.4089 20.9856 39.3812 21.149C39.3535 21.3124 39.3674 21.4802 39.4217 21.6368V22.1011C39.0616 21.3775 38.7942 20.6112 38.6259 19.8204C38.6163 19.7786 37.759 15.5859 39.7874 12.8928C42.0529 9.88246 48.3655 8.64189 54.6129 11.8863C54.7337 11.9491 54.8662 11.986 55.0021 11.9948C55.1379 12.0036 55.2741 11.984 55.402 11.9372C59.4169 10.2991 58.1108 17.4357 57.1155 19.4178V17.3792C57.1105 17.1214 57.0047 16.8759 56.8209 16.6954C56.6371 16.5149 56.3899 16.4138 56.1325 16.4138C55.875 16.4138 55.6279 16.515 55.4441 16.6955C55.2603 16.876 55.1545 17.1215 55.1495 17.3792V23.8857C54.9007 32.8407 41.6348 32.832 41.3877 23.8858ZM48.1208 32.5976C48.4982 32.6044 48.8757 32.5903 49.2516 32.5553V33.582C49.2516 33.8431 49.148 34.0934 48.9637 34.278C48.7793 34.4626 48.5293 34.5664 48.2686 34.5664C48.0079 34.5664 47.7579 34.4626 47.5735 34.278C47.3892 34.0934 47.2856 33.8431 47.2856 33.582V32.5553C47.5607 32.5816 47.8388 32.5976 48.1208 32.5976ZM45.5133 34.6064C45.7255 35.1661 46.1027 35.648 46.5949 35.988C47.087 36.328 47.6708 36.5101 48.2687 36.5101C48.8666 36.5101 49.4503 36.328 49.9424 35.988C50.4346 35.648 50.8118 35.1661 51.0241 34.6064C53.4844 34.8066 55.7797 35.9258 57.4544 37.7419C59.129 39.558 60.0607 41.9382 60.0645 44.4101V47.3632H36.4727V44.4101C36.4765 41.9381 37.4082 39.5579 39.0829 37.7418C40.7576 35.9258 43.0529 34.8066 45.5133 34.6064ZM21.7278 32.5477C22.3814 32.6166 23.0403 32.6166 23.6938 32.5477V33.582C23.6938 33.8431 23.5903 34.0934 23.4059 34.278C23.2216 34.4626 22.9715 34.5664 22.7108 34.5664C22.4501 34.5664 22.2001 34.4626 22.0158 34.278C21.8314 34.0934 21.7278 33.8431 21.7278 33.582V32.5477ZM15.8299 23.8858V22.3609C19.6125 22.6997 24.6583 19.9543 26.3345 16.6681C26.401 16.5573 26.4449 16.4344 26.4639 16.3065C26.483 16.1787 26.4766 16.0483 26.4453 15.9229C26.414 15.7975 26.3583 15.6795 26.2814 15.5757C26.2046 15.4718 26.108 15.3842 25.9973 15.3177C25.8866 15.2512 25.7639 15.2072 25.6362 15.1883C25.5085 15.1693 25.3784 15.1757 25.2531 15.2071C25.1279 15.2386 25.0101 15.2944 24.9065 15.3714C24.8028 15.4484 24.7153 15.5452 24.649 15.6561C22.8999 18.9905 18.0708 20.9089 14.8948 20.3336C14.7302 20.3167 14.564 20.3416 14.4116 20.406C14.2591 20.4704 14.1253 20.5723 14.0226 20.7022C13.9199 20.8321 13.8515 20.9858 13.8237 21.1491C13.796 21.3125 13.8098 21.4802 13.8639 21.6368V22.1011C13.5038 21.3775 13.2365 20.6112 13.0681 19.8204C13.0585 19.7786 12.2013 15.5859 14.2297 12.8928C16.4952 9.88246 22.8078 8.64189 29.0551 11.8863C29.176 11.9491 29.3085 11.986 29.4443 11.9948C29.5802 12.0036 29.7163 11.984 29.8442 11.9372C33.8591 10.2991 32.553 17.4357 31.5578 19.4178V17.3792C31.5527 17.1214 31.447 16.8759 31.2631 16.6954C31.0793 16.5149 30.8322 16.4138 30.5747 16.4138C30.3173 16.4138 30.0701 16.515 29.8863 16.6955C29.7025 16.876 29.5968 17.1215 29.5918 17.3792V23.8857C29.3529 32.8825 16.0615 32.809 15.8299 23.8858ZM10.915 44.4101C10.9187 41.9381 11.8504 39.5579 13.5251 37.7418C15.1998 35.9258 17.4951 34.8066 19.9555 34.6064C20.1678 35.1661 20.545 35.648 21.0371 35.988C21.5293 36.328 22.113 36.5101 22.7109 36.5101C23.3088 36.5101 23.8926 36.328 24.3847 35.988C24.8768 35.648 25.2541 35.1661 25.4663 34.6064C27.9267 34.8066 30.2219 35.9258 31.8966 37.7419C33.5713 39.558 34.503 41.9382 34.5067 44.4101V47.3632H10.915V44.4101ZM63.0135 51.3007C63.0132 51.5617 62.9095 51.8119 62.7253 51.9965C62.541 52.181 62.2911 52.2848 62.0305 52.2851H8.94897C8.68835 52.2848 8.43847 52.181 8.25418 51.9965C8.06989 51.8119 7.96624 51.5617 7.96598 51.3007V50.3164C7.96624 50.0554 8.06989 49.8051 8.25418 49.6206C8.43847 49.436 8.68835 49.3322 8.94897 49.332H62.0305C62.2911 49.3322 62.541 49.436 62.7253 49.6206C62.9095 49.8051 63.0132 50.0554 63.0135 50.3164V51.3007Z" fill="white"/>
<path d="M55.2726 42.8203H60.1876C60.4449 42.8153 60.6901 42.7094 60.8703 42.5253C61.0506 42.3412 61.1516 42.0937 61.1515 41.8359C61.1515 41.5781 61.0506 41.3306 60.8703 41.1465C60.69 40.9625 60.4449 40.8566 60.1875 40.8516H55.2726C55.0152 40.8566 54.7701 40.9625 54.5898 41.1466C54.4096 41.3306 54.3086 41.5781 54.3086 41.8359C54.3086 42.0937 54.4096 42.3412 54.5898 42.5253C54.7701 42.7094 55.0152 42.8153 55.2726 42.8203Z" fill="white"/>
<path d="M34.6289 40.8516H29.714C29.4566 40.8566 29.2114 40.9625 29.0312 41.1466C28.851 41.3306 28.75 41.5782 28.75 41.836C28.75 42.0938 28.851 42.3413 29.0312 42.5253C29.2115 42.7094 29.4567 42.8153 29.714 42.8203H34.6289C34.8863 42.8153 35.1315 42.7094 35.3117 42.5253C35.492 42.3412 35.593 42.0937 35.593 41.8359C35.593 41.5781 35.492 41.3306 35.3117 41.1466C35.1315 40.9625 34.8863 40.8566 34.6289 40.8516Z" fill="white"/>
</svg>
