<svg width="69" height="69" viewBox="0 0 69 69" fill="none" xmlns="http://www.w3.org/2000/svg">
<path d="M44.3975 34.7324H58.6233C59.1817 34.7324 59.6341 34.28 59.6341 33.7217C59.6341 33.1633 59.1817 32.7109 58.6233 32.7109H44.3975C43.8391 32.7109 43.3867 33.1633 43.3867 33.7217C43.3867 34.28 43.8391 34.7324 44.3975 34.7324Z" fill="white"/>
<path d="M44.3975 43.2012H58.6233C59.1817 43.2012 59.6341 42.7488 59.6341 42.1904C59.6341 41.6321 59.1817 41.1797 58.6233 41.1797H44.3975C43.8391 41.1797 43.3867 41.6321 43.3867 42.1904C43.3867 42.7488 43.8391 43.2012 44.3975 43.2012Z" fill="white"/>
<path d="M44.3975 51.6699H58.6233C59.1817 51.6699 59.6341 51.2175 59.6341 50.6592C59.6341 50.1008 59.1817 49.6484 58.6233 49.6484H44.3975C43.8391 49.6484 43.3867 50.1008 43.3867 50.6592C43.3867 51.2175 43.8391 51.6699 44.3975 51.6699Z" fill="white"/>
<path d="M66.6613 26.5698H64.8348V25.2867C64.8348 24.1302 63.894 23.1894 62.7374 23.1894H41.3677C40.5281 23.1894 39.7639 23.5166 39.1944 24.0494C38.625 23.5166 37.8608 23.1895 37.0213 23.1895H33.753V6.45687C33.753 5.00302 32.5703 3.82031 31.1164 3.82031H10.9016C10.3433 3.82031 9.89085 4.27272 9.89085 4.83105C9.89085 5.38939 10.3433 5.8418 10.9016 5.8418H31.1164C31.4556 5.8418 31.7315 6.1178 31.7315 6.45687V47.59C31.7315 47.9292 31.4555 48.205 31.1164 48.205C28.6956 48.205 22.6288 48.205 20.2035 48.205V44.4406C25.2238 42.9937 28.9064 38.3586 28.9064 32.8789C28.9064 26.2454 23.5099 20.8488 16.8764 20.8488C10.243 20.8488 4.84631 26.2454 4.84631 32.8789C4.84631 38.3584 8.52905 42.9937 13.5493 44.4406V48.205C12.255 48.205 3.93543 48.205 2.63642 48.205C2.29721 48.205 2.02135 47.9291 2.02135 47.59V6.45687C2.02135 6.11766 2.29735 5.8418 2.63642 5.8418H6.18453C6.74286 5.8418 7.19527 5.38939 7.19527 4.83105C7.19527 4.27272 6.74286 3.82031 6.18453 3.82031H2.63655C1.1827 3.82018 0 5.00288 0 6.45687V47.59C0 49.0437 1.1827 50.2264 2.63655 50.2264H9.38885V62.8346C9.38885 64.1241 10.438 65.1733 11.7276 65.1733H57.0095C57.5678 65.1733 58.0202 64.7209 58.0202 64.1626C58.0202 63.6042 57.5678 63.1518 57.0095 63.1518H40.2052V61.1892H62.7373C63.8939 61.1892 64.8347 60.2484 64.8347 59.0919V28.5913H66.6611C66.8361 28.5913 66.9784 28.7338 66.9784 28.9085V62.8344C66.9784 63.0094 66.8359 63.1517 66.6611 63.1517H61.7264C61.1681 63.1517 60.7157 63.6041 60.7157 64.1624C60.7157 64.7208 61.1681 65.1732 61.7264 65.1732H66.6611C67.9507 65.1732 68.9999 64.124 68.9999 62.8344V28.9085C69 27.619 67.9509 26.5698 66.6613 26.5698ZM41.3677 25.2107C63.9052 25.2107 62.8133 25.1687 62.8133 25.2866C62.8133 26.3019 62.8132 56.9221 62.8132 59.0917C62.8132 59.1336 62.7792 59.1676 62.7373 59.1676H40.2052V26.3732C40.2052 25.7321 40.7266 25.2107 41.3677 25.2107ZM31.1164 50.2264C32.5703 50.2264 33.753 49.0437 33.753 47.59V25.2108H37.0213C37.6623 25.2108 38.1837 25.7323 38.1837 26.3732V59.1676H15.6517C15.6098 59.1676 15.5758 59.1336 15.5758 59.0917V57.2611C17.7648 58.1947 20.2037 56.5761 20.2037 54.1989V50.2263C22.6302 50.2264 28.6959 50.2264 31.1164 50.2264ZM6.86793 32.8789C6.86793 27.3601 11.3576 22.8702 16.8766 22.8702C22.3952 22.8702 26.8851 27.36 26.8851 32.8789C26.8851 37.816 23.277 41.9877 18.4568 42.7614C12.3987 43.7247 6.86793 39.0394 6.86793 32.8789ZM18.182 44.8377V54.1989C18.182 54.9188 17.5963 55.5045 16.8764 55.5045C16.188 55.5045 15.6239 54.9686 15.5757 54.2923C15.5757 53.7516 15.571 45.3783 15.571 44.8376C16.4433 44.9323 17.3088 44.9324 18.182 44.8377ZM11.4105 62.8344V50.2263H13.5495C13.5495 52.3189 13.5542 56.8479 13.5542 59.0916C13.5542 60.248 14.495 61.189 15.6515 61.189H38.1835V63.1517H11.7277C11.5529 63.1518 11.4105 63.0094 11.4105 62.8344Z" fill="white"/>
<path d="M9.76465 12.3184H23.9905C24.5488 12.3184 25.0012 11.866 25.0012 11.3076C25.0012 10.7493 24.5488 10.2969 23.9905 10.2969H9.76465C9.20631 10.2969 8.75391 10.7493 8.75391 11.3076C8.75391 11.866 9.20645 12.3184 9.76465 12.3184Z" fill="white"/>
<path d="M9.76465 18.248H23.9905C24.5488 18.248 25.0012 17.7956 25.0012 17.2373C25.0012 16.679 24.5488 16.2266 23.9905 16.2266H9.76465C9.20631 16.2266 8.75391 16.679 8.75391 17.2373C8.75391 17.7956 9.20645 18.248 9.76465 18.248Z" fill="white"/>
<path d="M16.8758 40.7124C21.1948 40.7124 24.7085 37.1987 24.7085 32.8797C24.7085 28.5606 21.1948 25.0469 16.8758 25.0469C12.5567 25.0469 9.04297 28.5606 9.04297 32.8797C9.04283 37.1987 12.5567 40.7124 16.8758 40.7124ZM16.8758 27.0684C20.0801 27.0684 22.687 29.6754 22.687 32.8797C22.687 36.084 20.0801 38.691 16.8758 38.691C13.6715 38.691 11.0645 36.084 11.0645 32.8797C11.0645 29.6754 13.6714 27.0684 16.8758 27.0684Z" fill="white"/>
</svg>
