<svg width="69" height="62" viewBox="0 0 69 62" fill="none" xmlns="http://www.w3.org/2000/svg">
<path d="M41.4951 3.67966H41.1947V3.37422C41.1947 2.53553 40.5146 1.85547 39.6759 1.85547C38.8372 1.85547 38.1572 2.53553 38.1572 3.37422V3.67966H28.5182V3.37422C28.5182 2.53553 27.8381 1.85547 26.9994 1.85547C26.1607 1.85547 25.4807 2.53553 25.4807 3.37422V3.67966H15.8417V3.37422C15.8417 2.53553 15.1616 1.85547 14.3229 1.85547C13.4843 1.85547 12.8042 2.53553 12.8042 3.37422V3.67966H12.5122C10.3033 3.63578 8.37281 4.49472 6.85912 6.00166C5.337 7.51534 4.5 9.53359 4.5 11.6852V44.1375C4.5 48.5503 8.091 52.143 12.5055 52.143H41.4951C45.9079 52.143 49.5006 48.5503 49.5006 44.1375V11.6852C49.5006 7.27234 45.9079 3.67966 41.4951 3.67966ZM46.4614 44.1375C46.4614 46.8763 44.2339 49.1038 41.4951 49.1038H12.5055C9.765 49.1038 7.5375 46.8763 7.5375 44.1375V11.6852C7.5375 10.3487 8.05894 9.09484 9.00394 8.15322C9.93544 7.22678 11.1673 6.71716 12.4836 6.71716H12.5072H12.8059V7.01753C12.8059 7.85622 13.4859 8.53628 14.3246 8.53628C15.1633 8.53628 15.8434 7.85622 15.8434 7.01753V6.71716H25.4807V7.01753C25.4807 7.85622 26.1607 8.53628 26.9994 8.53628C27.8381 8.53628 28.5182 7.85622 28.5182 7.01753V6.71716H38.1555V7.01753C38.1555 7.85622 38.8356 8.53628 39.6743 8.53628C40.5129 8.53628 41.193 7.85622 41.193 7.01753V6.71716H41.4934C44.2322 6.71716 46.4597 8.94466 46.4597 11.6835V44.1375H46.4614Z" fill="white"/>
<path d="M27.084 33.1016H15.6242C14.7855 33.1016 14.1055 33.7816 14.1055 34.6203C14.1055 35.459 14.7855 36.1391 15.6242 36.1391H27.084C27.9227 36.1391 28.6028 35.459 28.6028 34.6203C28.6028 33.7816 27.9227 33.1016 27.084 33.1016Z" fill="white"/>
<path d="M38.3751 15.3555H15.6242C14.7855 15.3555 14.1055 16.0355 14.1055 16.8742C14.1055 17.7129 14.7855 18.393 15.6242 18.393H38.3751C39.2138 18.393 39.8938 17.7129 39.8938 16.8742C39.8938 16.0355 39.2138 15.3555 38.3751 15.3555Z" fill="white"/>
<path d="M38.3751 24.2266H15.6242C14.7855 24.2266 14.1055 24.9066 14.1055 25.7453C14.1055 26.584 14.7855 27.2641 15.6242 27.2641H38.3751C39.2138 27.2641 39.8938 26.584 39.8938 25.7453C39.8938 24.9066 39.2138 24.2266 38.3751 24.2266Z" fill="white"/>
<rect x="35" y="24" width="18" height="33" fill="#0A3A81"/>
<g clip-path="url(#clip0_4793_6811)">
<path d="M63.0017 50.9997H61.5017V50.2469C62.8135 49.2196 62.8134 46.2797 61.5017 45.2525V41.1396C61.4997 40.9792 61.4597 40.8216 61.3848 40.6798C61.31 40.5379 61.2026 40.4158 61.0714 40.3236C60.9401 40.2314 60.7889 40.1717 60.6301 40.1494C60.4712 40.1271 60.3094 40.1428 60.1579 40.1953L59.6359 39.1555C59.5319 38.9452 59.3572 38.7782 59.1423 38.684C58.9275 38.5897 58.6863 38.5742 58.4611 38.6401L55.5417 39.497C55.1417 39.1329 54.6921 38.8274 54.2062 38.5896C54.9166 37.6663 55.3034 36.5348 55.3068 35.3698V33.5483C55.7057 33.4447 56.4122 33.4911 56.5036 32.959C57.4711 26.9652 50.4737 24.4436 46.3029 26.9523C44.4417 26.5499 43.1291 28.3223 42.9236 29.1194C42.7472 29.7389 42.7265 30.3924 42.8635 31.0218C43.0004 31.6512 43.2907 32.2371 43.7086 32.7273C43.5705 33.0265 43.5008 33.3526 43.5046 33.682C43.5084 34.0115 43.5855 34.3359 43.7304 34.6319C43.8753 34.9278 44.0843 35.1877 44.3422 35.3927C44.6001 35.5977 44.9004 35.7427 45.2214 35.8171C45.3062 36.7527 45.6404 37.6485 46.1892 38.411C45.5533 38.6661 44.9688 39.0343 44.4641 39.4977L41.5471 38.6415C41.3223 38.5748 41.0813 38.5892 40.8661 38.6822C40.6509 38.7752 40.4752 38.9409 40.3698 39.1503L39.8454 40.1952C39.6939 40.1427 39.532 40.127 39.3732 40.1493C39.2144 40.1716 39.0631 40.2313 38.9319 40.3236C38.8007 40.4158 38.6932 40.5379 38.6184 40.6797C38.5436 40.8216 38.5036 40.9792 38.5017 41.1396V45.2525C37.1898 46.2798 37.1899 49.2197 38.5017 50.2469V50.9997H37.0017C35.6242 51.0228 34.8572 52.1934 35.0017 53.4997C35.0023 54.03 35.2131 54.5383 35.5881 54.9133C35.963 55.2883 36.4714 55.4991 37.0017 55.4997H46.4563L48.6672 55.9416C49.4451 56.0071 50.2262 56.0263 51.0064 55.9992C51.1682 55.9906 53.328 55.5361 53.5471 55.4997L63.0017 55.4997C65.6871 55.5119 65.6998 50.9933 63.0017 50.9997ZM60.8425 49.4997H60.2112C60.1664 49.4886 60.1251 49.4664 60.0912 49.4351C60.0572 49.4039 60.0317 49.3645 60.017 49.3208C60.0023 49.2771 59.9989 49.2303 60.0071 49.1849C60.0152 49.1395 60.0347 49.0969 60.0637 49.061C60.1784 48.8963 60.2399 48.7005 60.2399 48.4998C60.2399 48.2992 60.1784 48.1033 60.0637 47.9387C60.0238 47.8838 60.0023 47.8177 60.0023 47.7498C60.0023 47.682 60.0238 47.6159 60.0637 47.561C60.1784 47.3963 60.2399 47.2005 60.2399 46.9998C60.2399 46.7992 60.1784 46.6033 60.0637 46.4387C60.0348 46.4028 60.0154 46.3603 60.0072 46.315C59.999 46.2697 60.0023 46.223 60.0168 46.1793C60.0314 46.1356 60.0567 46.0963 60.0904 46.0649C60.1241 46.0335 60.1651 46.0111 60.2097 45.9997H60.8425C61.7045 46.6367 61.7044 48.8628 60.8425 49.4997ZM60.5017 41.1396V44.9997H60.0017C59.7981 45.049 59.6095 45.1471 59.4524 45.2856C59.2952 45.4241 59.1741 45.5987 59.0995 45.7945C59.025 45.9902 58.9992 46.2012 59.0244 46.4091C59.0496 46.6171 59.1251 46.8157 59.2443 46.988C59.0876 47.2067 59.0033 47.4689 59.0033 47.738C59.0033 48.007 59.0876 48.2693 59.2443 48.488C59.1236 48.6616 59.0468 48.862 59.0207 49.0719C58.9945 49.2818 59.0198 49.4949 59.0944 49.6929C59.1689 49.8908 59.2904 50.0677 59.4485 50.2082C59.6065 50.3488 59.7964 50.4488 60.0017 50.4997H60.502C60.5023 51.1003 60.5032 52.4764 60.5036 53.0896L52.0017 54.7889V43.4997C52.001 43.423 51.9914 43.3467 51.9732 43.2722L60.5017 41.1396ZM50.9543 54.9997H49.0491L49.0017 54.9908V43.4997H51.0017L51.0022 54.9907L50.9543 54.9997ZM58.7399 39.5991L59.1638 40.4438L51.1049 42.4585C51.1873 42.2428 51.3184 42.049 51.4879 41.8922C51.6574 41.7354 51.8608 41.6198 52.0822 41.5544L58.7399 39.5991ZM43.8674 29.4501C44.015 28.8987 44.9433 27.5726 46.2781 27.9688C46.7426 28.028 47.2677 27.4522 47.7693 27.3531C51.2257 26.1867 56.012 27.9432 55.5515 32.4877C54.8242 32.6915 54.0534 32.6803 53.3323 32.4556C52.6113 32.2308 51.9707 31.802 51.488 31.2211C50.9875 30.5836 50.2743 30.1476 49.4787 29.9929C47.5537 29.7401 45.7668 31.13 44.9885 32.6672C43.9728 31.7031 43.5163 30.4462 43.8674 29.4501ZM45.7019 34.8698C45.5365 34.8707 45.3728 34.8371 45.2212 34.7711C45.0696 34.7052 44.9333 34.6084 44.8212 34.4869C44.709 34.3654 44.6234 34.2219 44.5699 34.0655C44.5163 33.9091 44.4958 33.7432 44.5099 33.5785C44.8479 33.9246 45.4178 34.2604 45.674 33.6398C46.1249 32.1585 47.763 30.7919 49.3244 30.9806C49.9029 31.1066 50.4159 31.4386 50.7678 31.9147C51.2057 32.4302 51.747 32.848 52.3567 33.1409C52.9663 33.4338 53.6307 33.5954 54.3068 33.6151V35.3698C54.0528 41.0079 46.4322 40.8876 46.2019 35.3698C46.2019 35.3041 46.189 35.2391 46.1638 35.1784C46.1387 35.1178 46.1019 35.0626 46.0554 35.0162C46.009 34.9698 45.9539 34.933 45.8932 34.9078C45.8325 34.8827 45.7675 34.8698 45.7019 34.8698ZM46.9067 39.2284C47.7875 40.0683 48.9507 40.5483 50.1675 40.574C51.3843 40.5997 52.5667 40.1692 53.4822 39.3672C53.7937 39.4933 54.0909 39.6522 54.3687 39.8413L51.7985 40.5956C51.362 40.7238 50.969 40.969 50.6619 41.3046C50.3549 41.6403 50.1456 42.0536 50.0568 42.4997H49.9465C49.8574 42.0532 49.6478 41.6396 49.3403 41.3038C49.0329 40.968 48.6393 40.7229 48.2023 40.5949L45.6343 39.8412C46.0253 39.5742 46.4542 39.3676 46.9067 39.2284ZM41.2609 39.5996L47.9187 41.5537C48.1405 41.619 48.3444 41.7346 48.5143 41.8915C48.6842 42.0485 48.8156 42.2425 48.8983 42.4585L40.8387 40.4436L41.2609 39.5996ZM48.0302 43.2722C48.0119 43.3467 48.0023 43.423 48.0017 43.4997V54.7891L39.5017 53.0898V50.4997H40.0017C40.2052 50.4504 40.3938 50.3523 40.5509 50.2138C40.7081 50.0754 40.8292 49.9007 40.9038 49.7049C40.9783 49.5092 41.0041 49.2982 40.9789 49.0903C40.9537 48.8823 40.8782 48.6837 40.759 48.5114C40.9157 48.2928 41 48.0305 41 47.7614C41 47.4924 40.9157 47.2301 40.759 47.0114C40.8798 46.8378 40.9565 46.6374 40.9826 46.4275C41.0088 46.2176 40.9835 46.0045 40.909 45.8066C40.8344 45.6086 40.7129 45.4317 40.5549 45.2912C40.3968 45.1506 40.207 45.0506 40.0017 44.9997H39.5016L39.5007 41.1398L48.0302 43.2722ZM39.1608 45.9997H39.7922C39.837 46.0108 39.8782 46.033 39.9122 46.0643C39.9461 46.0955 39.9716 46.1349 39.9863 46.1786C40.001 46.2223 40.0044 46.2691 39.9963 46.3145C39.9881 46.3599 39.9686 46.4025 39.9396 46.4384C39.825 46.6031 39.7635 46.7989 39.7635 46.9996C39.7635 47.2002 39.825 47.3961 39.9396 47.5607C39.9795 47.6156 40.001 47.6817 40.001 47.7496C40.001 47.8174 39.9795 47.8835 39.9396 47.9384C39.825 48.1031 39.7635 48.2989 39.7635 48.4996C39.7635 48.7002 39.825 48.8961 39.9396 49.0607C39.9685 49.0966 39.988 49.1391 39.9962 49.1844C40.0044 49.2297 40.001 49.2764 39.9865 49.3201C39.972 49.3638 39.9467 49.4031 39.913 49.4345C39.8793 49.4659 39.8382 49.4883 39.7936 49.4997H39.1608C38.2988 48.8627 38.2989 46.6366 39.1608 45.9997ZM37.0017 54.4997C36.7365 54.4994 36.4824 54.3939 36.2949 54.2065C36.1074 54.019 36.002 53.7648 36.0017 53.4997V52.9997C36.002 52.7346 36.1074 52.4804 36.2949 52.2929C36.4824 52.1055 36.7365 52 37.0017 51.9997H38.5017V53.0898C38.5015 53.3207 38.5813 53.5444 38.7274 53.7231C38.8736 53.9018 39.0771 54.0244 39.3034 54.07L41.4532 54.4997H37.0017ZM64.0017 53.4997C64.0014 53.7648 63.8959 54.019 63.7084 54.2065C63.521 54.3939 63.2668 54.4994 63.0017 54.4997H58.5505L60.6979 54.0705C60.9246 54.0251 61.1286 53.9026 61.2751 53.7238C61.4217 53.545 61.5017 53.321 61.5017 53.0898V51.9997H63.0017C63.2668 52 63.521 52.1055 63.7084 52.2929C63.8959 52.4804 64.0014 52.7346 64.0017 52.9997V53.4997Z" fill="white"/>
<path d="M54.5 47.499C54.5408 47.4991 54.5815 47.4941 54.6211 47.4841L58.6211 46.4841C58.7293 46.4571 58.8254 46.3947 58.894 46.3068C58.9627 46.2189 59 46.1106 59 45.999V43.999C58.9993 43.9233 58.9816 43.8487 58.9481 43.7807C58.9146 43.7128 58.8662 43.6533 58.8065 43.6067C58.7468 43.5601 58.6773 43.5275 58.6033 43.5114C58.5293 43.4954 58.4526 43.4962 58.3789 43.5139L54.3789 44.5139C54.2707 44.541 54.1746 44.6034 54.106 44.6913C54.0373 44.7792 54 44.8875 54 44.999V46.999C54.0009 47.1314 54.0538 47.2581 54.1474 47.3516C54.241 47.4452 54.3677 47.4982 54.5 47.499ZM55 45.3894L58 44.6394V45.6087L55 46.3587V45.3894Z" fill="white"/>
</g>
<defs>
<clipPath id="clip0_4793_6811">
<rect width="32" height="32" fill="white" transform="translate(34 25)"/>
</clipPath>
</defs>
</svg>
