<svg width="69" height="62" viewBox="0 0 69 62" fill="none" xmlns="http://www.w3.org/2000/svg">
<path d="M41.4951 3.67966H41.1947V3.37422C41.1947 2.53553 40.5146 1.85547 39.6759 1.85547C38.8372 1.85547 38.1572 2.53553 38.1572 3.37422V3.67966H28.5182V3.37422C28.5182 2.53553 27.8381 1.85547 26.9994 1.85547C26.1607 1.85547 25.4807 2.53553 25.4807 3.37422V3.67966H15.8417V3.37422C15.8417 2.53553 15.1616 1.85547 14.3229 1.85547C13.4843 1.85547 12.8042 2.53553 12.8042 3.37422V3.67966H12.5122C10.3033 3.63578 8.37281 4.49472 6.85912 6.00166C5.337 7.51534 4.5 9.53359 4.5 11.6852V44.1375C4.5 48.5503 8.091 52.143 12.5055 52.143H41.4951C45.9079 52.143 49.5006 48.5503 49.5006 44.1375V11.6852C49.5006 7.27234 45.9079 3.67966 41.4951 3.67966ZM46.4614 44.1375C46.4614 46.8763 44.2339 49.1038 41.4951 49.1038H12.5055C9.765 49.1038 7.5375 46.8763 7.5375 44.1375V11.6852C7.5375 10.3487 8.05894 9.09484 9.00394 8.15322C9.93544 7.22678 11.1673 6.71716 12.4836 6.71716H12.5072H12.8059V7.01753C12.8059 7.85622 13.4859 8.53628 14.3246 8.53628C15.1633 8.53628 15.8434 7.85622 15.8434 7.01753V6.71716H25.4807V7.01753C25.4807 7.85622 26.1607 8.53628 26.9994 8.53628C27.8381 8.53628 28.5182 7.85622 28.5182 7.01753V6.71716H38.1555V7.01753C38.1555 7.85622 38.8356 8.53628 39.6743 8.53628C40.5129 8.53628 41.193 7.85622 41.193 7.01753V6.71716H41.4934C44.2322 6.71716 46.4597 8.94466 46.4597 11.6835V44.1375H46.4614Z" fill="white"/>
<path d="M27.084 33.1016H15.6242C14.7855 33.1016 14.1055 33.7816 14.1055 34.6203C14.1055 35.459 14.7855 36.1391 15.6242 36.1391H27.084C27.9227 36.1391 28.6028 35.459 28.6028 34.6203C28.6028 33.7816 27.9227 33.1016 27.084 33.1016Z" fill="white"/>
<path d="M38.3751 15.3555H15.6242C14.7855 15.3555 14.1055 16.0355 14.1055 16.8742C14.1055 17.7129 14.7855 18.393 15.6242 18.393H38.3751C39.2138 18.393 39.8938 17.7129 39.8938 16.8742C39.8938 16.0355 39.2138 15.3555 38.3751 15.3555Z" fill="white"/>
<path d="M38.3751 24.2266H15.6242C14.7855 24.2266 14.1055 24.9066 14.1055 25.7453C14.1055 26.584 14.7855 27.2641 15.6242 27.2641H38.3751C39.2138 27.2641 39.8938 26.584 39.8938 25.7453C39.8938 24.9066 39.2138 24.2266 38.3751 24.2266Z" fill="white"/>
<rect x="35" y="24" width="18" height="33" fill="#0A3A81"/>
<path d="M49.0016 46.5765C48.8757 46.5765 48.756 46.5207 48.6734 46.4257L45.9998 43.3248C45.9317 43.2464 45.8945 43.1452 45.8945 43.042V40.6699C45.8945 40.4304 46.0886 40.2363 46.3281 40.2363C46.5676 40.2363 46.7616 40.4304 46.7616 40.6699V42.881L49.0016 45.4781L51.2416 42.881V40.6699C51.2416 40.4304 51.4357 40.2363 51.6752 40.2363C51.9147 40.2363 52.1087 40.4304 52.1087 40.6699V43.042C52.1087 43.1452 52.0716 43.2464 52.0034 43.3248L49.3299 46.4257C49.2473 46.5207 49.1276 46.5765 49.0016 46.5765Z" fill="white"/>
<path d="M55.1959 34.5553C54.9564 34.5553 54.7623 34.3613 54.7623 34.1218V31.8364C54.7623 28.6715 52.1879 26.0867 49.0209 26.0743C49.0147 26.0743 49.0064 26.0743 49.0003 26.0743C47.4849 26.0743 46.0501 26.673 44.96 27.759C43.8493 28.8655 43.2382 30.3313 43.2382 31.8839V34.1218C43.2382 34.3613 43.0441 34.5553 42.8046 34.5553C42.5652 34.5553 42.3711 34.3613 42.3711 34.1218V31.8839C42.3711 30.9837 42.5507 30.1063 42.9037 29.2784C43.2444 28.4795 43.7316 27.761 44.3489 27.1437C44.96 26.5347 45.6681 26.0557 46.4547 25.7233C47.2723 25.3765 48.1373 25.201 49.025 25.2051C50.7902 25.2113 52.4501 25.905 53.697 27.1561C54.944 28.4072 55.6315 30.0691 55.6315 31.8364V34.1218C55.6294 34.3613 55.4354 34.5553 55.1959 34.5553Z" fill="white"/>
<path d="M49.0015 41.9336C47.641 41.9336 46.361 41.403 45.3989 40.441C44.4368 39.4789 43.9062 38.1989 43.9062 36.8384V32.6185C43.9062 32.5008 43.9537 32.3894 44.0384 32.3068C44.123 32.2242 44.2366 32.1808 44.3543 32.185C44.4141 32.187 49.3463 32.3047 51.4583 30.1906C51.5429 30.106 51.6585 30.0606 51.7762 30.0647C51.8959 30.0688 52.0074 30.1205 52.0879 30.2092L53.9873 32.3316C54.0595 32.4121 54.0988 32.5132 54.0988 32.6206V36.8405C54.0988 38.201 53.5682 39.481 52.6061 40.443C51.642 41.4051 50.362 41.9336 49.0015 41.9336ZM44.7733 33.0521V36.8384C44.7733 39.1692 46.6706 41.0665 49.0015 41.0665C51.3323 41.0665 53.2296 39.1692 53.2296 36.8384V32.7837L51.7308 31.1114C51.2126 31.5388 50.5643 31.9021 49.7963 32.1953C49.0572 32.4761 48.2066 32.6928 47.2632 32.8415C46.2123 33.0046 45.2915 33.0438 44.7733 33.0521Z" fill="white"/>
<path d="M41.0898 56.7943C40.8503 56.7943 40.6562 56.6003 40.6562 56.3608V50.5781C40.6562 50.3386 40.8503 50.1445 41.0898 50.1445C41.3293 50.1445 41.5233 50.3386 41.5233 50.5781V56.3608C41.5233 56.6003 41.3293 56.7943 41.0898 56.7943Z" fill="white"/>
<path d="M56.914 56.7943C56.6745 56.7943 56.4805 56.6003 56.4805 56.3608V50.5781C56.4805 50.3386 56.6745 50.1445 56.914 50.1445C57.1535 50.1445 57.3476 50.3386 57.3476 50.5781V56.3608C57.3476 56.6003 57.1535 56.7943 56.914 56.7943Z" fill="white"/>
<path d="M51.6176 48.3898C51.5309 48.3898 51.4442 48.363 51.3719 48.3134L49.0019 46.6742L46.6318 48.3134C46.5327 48.3816 46.4068 48.4063 46.2891 48.3795C46.1714 48.3526 46.0682 48.2783 46.0083 48.173L43.7766 44.2773C43.6568 44.0688 43.7291 43.8045 43.9376 43.6848C44.1461 43.565 44.4104 43.6373 44.5301 43.8458L46.5265 47.3328L48.7562 45.7906C48.9048 45.6874 49.101 45.6874 49.2496 45.7906L51.4793 47.3328L53.4757 43.8458C53.5954 43.6373 53.8597 43.5671 54.0682 43.6848C54.2767 43.8045 54.3469 44.0688 54.2292 44.2773L51.9933 48.171C51.9335 48.2763 51.8323 48.3506 51.7126 48.3774C51.6816 48.3857 51.6486 48.3898 51.6176 48.3898Z" fill="white"/>
<path d="M51.0679 56.7936C50.8636 56.7936 50.6798 56.6471 50.6427 56.4385L49.4845 50.117H48.5141L47.3559 56.4385C47.3126 56.6739 47.0876 56.8308 46.8522 56.7874C46.6168 56.7441 46.4599 56.5191 46.5033 56.2837L47.7255 49.6071C47.7627 49.4006 47.9423 49.252 48.1528 49.252H49.8457C50.0543 49.252 50.2339 49.4006 50.2731 49.6071L51.4953 56.2837C51.5387 56.5191 51.3817 56.7461 51.1464 56.7874C51.1196 56.7916 51.0948 56.7936 51.0679 56.7936Z" fill="white"/>
<path d="M49.8438 50.1171H48.1509C47.961 50.1171 47.7938 49.9932 47.736 49.8116L46.9803 47.3816C46.9102 47.1525 47.0361 46.9109 47.2653 46.8387C47.4944 46.7685 47.736 46.8944 47.8082 47.1236L48.4689 49.2479H49.5238L50.1845 47.1215C50.2547 46.8923 50.4983 46.7643 50.7274 46.8366C50.9566 46.9068 51.0846 47.1504 51.0123 47.3796L50.2567 49.8095C50.201 49.9932 50.0338 50.1171 49.8438 50.1171Z" fill="white"/>
<path d="M54.335 37.5835H53.664C53.4245 37.5835 53.2305 37.3894 53.2305 37.1499V33.8632C53.2305 33.6238 53.4245 33.4297 53.664 33.4297H54.335C55.4663 33.4297 56.3871 34.3505 56.3871 35.4818V35.5314C56.3871 36.6627 55.4663 37.5835 54.335 37.5835ZM54.0955 36.7164H54.3329C54.9874 36.7164 55.518 36.1838 55.518 35.5314V35.4818C55.518 34.8274 54.9853 34.2968 54.3329 34.2968H54.0955V36.7164Z" fill="white"/>
<path d="M44.3403 37.5835H43.6693C42.538 37.5835 41.6172 36.6627 41.6172 35.5314V35.4818C41.6172 34.3505 42.538 33.4297 43.6693 33.4297H44.3403C44.5798 33.4297 44.7738 33.6238 44.7738 33.8632V37.152C44.7738 37.3894 44.5798 37.5835 44.3403 37.5835ZM43.6673 34.2968C43.0128 34.2968 42.4822 34.8294 42.4822 35.4818V35.5314C42.4822 36.1858 43.0149 36.7164 43.6673 36.7164H43.9047V34.2968H43.6673Z" fill="white"/>
<path d="M36.8476 56.7949C36.6081 56.7949 36.4141 56.6008 36.4141 56.3613V48.4315C36.4141 47.5293 36.7114 46.6519 37.2523 45.9644C38.1338 44.8413 39.2714 44.5957 40.3717 44.3603C40.6566 44.2984 40.9498 44.2364 41.2388 44.158C42.9999 43.6852 44.6164 43.1877 46.1834 42.6364C46.4084 42.5559 46.6561 42.6757 46.7366 42.9007C46.8172 43.1257 46.6974 43.3735 46.4724 43.454C44.8848 44.0135 43.2455 44.5172 41.4659 44.9962C41.1542 45.0788 40.8507 45.1448 40.5555 45.2088C39.5191 45.4318 38.6252 45.6238 37.9356 46.5012C37.5144 47.038 37.2812 47.7234 37.2812 48.4336V56.3613C37.2812 56.6008 37.0871 56.7949 36.8476 56.7949Z" fill="white"/>
<path d="M61.1563 56.795C60.9168 56.795 60.7228 56.6009 60.7228 56.3615V48.4316C60.7228 47.7235 60.4916 47.036 60.0683 46.4993C59.3788 45.6218 58.4848 45.4298 57.4485 45.2069C57.1532 45.1429 56.8498 45.0789 56.538 44.9942C54.7563 44.5153 53.1192 44.0115 51.5316 43.452C51.3065 43.3715 51.1868 43.1258 51.2673 42.8987C51.3478 42.6737 51.5935 42.554 51.8206 42.6345C53.3876 43.1857 55.0041 43.6833 56.7651 44.156C57.0541 44.2345 57.3494 44.2964 57.6322 44.3584C58.7326 44.5937 59.8701 44.8394 60.7517 45.9625C61.2926 46.652 61.5899 47.5274 61.5899 48.4296V56.3615C61.5899 56.6009 61.3958 56.795 61.1563 56.795Z" fill="white"/>
<path d="M61.1552 56.7948H36.8476C36.6081 56.7948 36.4141 56.6008 36.4141 56.3613C36.4141 56.1218 36.6081 55.9277 36.8476 55.9277H61.1552C61.3947 55.9277 61.5888 56.1218 61.5888 56.3613C61.5888 56.6008 61.3947 56.7948 61.1552 56.7948Z" fill="white"/>
</svg>
