<svg width="48" height="52" viewBox="0 0 48 52" fill="none" xmlns="http://www.w3.org/2000/svg">
<path d="M18.4858 48.1055H10.757C6.94159 48.1055 3.83828 45.0022 3.83828 41.1867V10.8117C3.83828 6.99628 6.94159 3.89297 10.757 3.89297H32.3908C36.2062 3.89297 39.3095 6.99628 39.3095 10.8117V19.5023C39.3095 20.341 39.9896 21.0211 40.8283 21.0211C41.667 21.0211 42.347 20.341 42.347 19.5023V10.8117C42.347 5.32228 37.8802 0.855469 32.3908 0.855469H10.757C5.26759 0.855469 0.800781 5.32059 0.800781 10.8117V41.1867C0.800781 46.6762 5.26759 51.143 10.757 51.143H18.4858C19.3245 51.143 20.0045 50.4629 20.0045 49.6242C20.0045 48.7855 19.3245 48.1055 18.4858 48.1055Z" fill="white"/>
<path d="M34.2696 14.1867C34.2696 13.348 33.5895 12.668 32.7508 12.668H10.4016C9.56288 12.668 8.88281 13.348 8.88281 14.1867C8.88281 15.0254 9.56288 15.7055 10.4016 15.7055H32.7508C33.5895 15.7055 34.2696 15.0254 34.2696 14.1867Z" fill="white"/>
<path d="M10.4016 24.4805C9.56288 24.4805 8.88281 25.1605 8.88281 25.9992C8.88281 26.8379 9.56288 27.518 10.4016 27.518H27.6883C28.527 27.518 29.2071 26.8379 29.2071 25.9992C29.2071 25.1605 28.527 24.4805 27.6883 24.4805H10.4016Z" fill="white"/>
<path d="M18.5859 36.293H10.4016C9.56288 36.293 8.88281 36.973 8.88281 37.8117C8.88281 38.6504 9.56288 39.3305 10.4016 39.3305H18.5859C19.4246 39.3305 20.1047 38.6504 20.1047 37.8117C20.1047 36.973 19.4246 36.293 18.5859 36.293Z" fill="white"/>
<path d="M46.9105 31.0101L44.0389 28.2819C43.1582 27.4419 41.6195 27.4431 40.7387 28.2819L26.2675 42.0407C25.8349 42.452 25.5913 42.9996 25.5835 43.5857L25.5509 46.3461C25.5444 46.9482 25.7867 47.5145 26.2349 47.9419C26.6766 48.3619 27.2603 48.5911 27.8831 48.5911H27.9104L30.8146 48.5601C31.427 48.554 32.0028 48.3235 32.4393 47.9109L46.9105 34.1497C47.8186 33.2836 47.8186 31.8762 46.9105 31.0101ZM30.7833 46.33L27.8961 46.3721L27.9248 43.6179L42.3791 29.8579L45.2506 32.5725L30.7833 46.33Z" fill="white"/>
</svg>
