<svg width="55" height="55" viewBox="0 0 55 55" fill="none" xmlns="http://www.w3.org/2000/svg">
<path d="M42.2622 3.74859H41.9563V3.4375C41.9563 2.58328 41.2636 1.89062 40.4094 1.89062C39.5552 1.89062 38.8625 2.58328 38.8625 3.4375V3.74859H29.045V3.4375C29.045 2.58328 28.3523 1.89062 27.4981 1.89062C26.6439 1.89062 25.9513 2.58328 25.9513 3.4375V3.74859H16.1337V3.4375C16.1337 2.58328 15.4411 1.89062 14.5869 1.89062C13.7327 1.89062 13.04 2.58328 13.04 3.4375V3.74859H12.7427C10.4928 3.70391 8.52656 4.57875 6.98484 6.11359C5.43453 7.65531 4.58203 9.71094 4.58203 11.9023V44.9556C4.58203 49.4502 8.23953 53.1094 12.7358 53.1094H42.2622C46.7567 53.1094 50.4159 49.4502 50.4159 44.9556V11.9023C50.4159 7.40781 46.7567 3.74859 42.2622 3.74859ZM47.3205 44.9556C47.3205 47.7452 45.0517 50.0139 42.2622 50.0139H12.7358C9.94453 50.0139 7.67578 47.7452 7.67578 44.9556V11.9023C7.67578 10.5411 8.20688 9.26406 9.16937 8.305C10.1181 7.36141 11.3728 6.84234 12.7134 6.84234H12.7375H13.0417V7.14828C13.0417 8.0025 13.7344 8.69516 14.5886 8.69516C15.4428 8.69516 16.1355 8.0025 16.1355 7.14828V6.84234H25.9513V7.14828C25.9513 8.0025 26.6439 8.69516 27.4981 8.69516C28.3523 8.69516 29.045 8.0025 29.045 7.14828V6.84234H38.8608V7.14828C38.8608 8.0025 39.5534 8.69516 40.4077 8.69516C41.2619 8.69516 41.9545 8.0025 41.9545 7.14828V6.84234H42.2605C45.05 6.84234 47.3188 9.11109 47.3188 11.9006V44.9556H47.3205Z" fill="white"/>
<path d="M27.5822 33.7148H15.9102C15.0559 33.7148 14.3633 34.4075 14.3633 35.2617C14.3633 36.1159 15.0559 36.8086 15.9102 36.8086H27.5822C28.4364 36.8086 29.1291 36.1159 29.1291 35.2617C29.1291 34.4075 28.4364 33.7148 27.5822 33.7148Z" fill="white"/>
<path d="M39.0823 15.6406H15.9102C15.0559 15.6406 14.3633 16.3333 14.3633 17.1875C14.3633 18.0417 15.0559 18.7344 15.9102 18.7344H39.0823C39.9366 18.7344 40.6292 18.0417 40.6292 17.1875C40.6292 16.3333 39.9366 15.6406 39.0823 15.6406Z" fill="white"/>
<path d="M39.0823 24.6758H15.9102C15.0559 24.6758 14.3633 25.3684 14.3633 26.2227C14.3633 27.0769 15.0559 27.7695 15.9102 27.7695H39.0823C39.9366 27.7695 40.6292 27.0769 40.6292 26.2227C40.6292 25.3684 39.9366 24.6758 39.0823 24.6758Z" fill="white"/>
</svg>
