<svg width="62" height="57" viewBox="0 0 62 57" fill="none" xmlns="http://www.w3.org/2000/svg">
<path d="M48.1788 21.2548V14.2402C48.1788 9.26967 44.1494 5.24023 39.1788 5.24023H11C6.02943 5.24023 2 9.26967 2 14.2402V45.6596C2 50.6302 6.02944 54.6596 11 54.6596H30.3584" stroke="white" stroke-width="3" stroke-linecap="round"/>
<path d="M16.9883 2L16.9883 8.48123" stroke="white" stroke-width="3" stroke-linecap="round"/>
<path d="M24.2773 2L24.2773 8.48123" stroke="white" stroke-width="3" stroke-linecap="round"/>
<path d="M31.5703 2L31.5703 8.48123" stroke="white" stroke-width="3" stroke-linecap="round"/>
<path d="M8.48047 20.6328H36.8359" stroke="white" stroke-width="3" stroke-linecap="round"/>
<path d="M8.48047 31.166H29.5445" stroke="white" stroke-width="3" stroke-linecap="round"/>
<path d="M8.48047 41.6973H24.6836" stroke="white" stroke-width="3" stroke-linecap="round"/>
<path d="M61.5553 43.849L60.5393 41.2764C60.3686 40.8514 59.9881 40.5878 59.5458 40.5878H53.0726V37.5384C53.0726 37.1101 52.9059 36.7322 52.5904 36.446L45.9943 30.4309C45.8535 30.3021 45.6955 30.2052 45.5281 30.1401V28.3883H50.5863C50.8267 28.3883 51.0365 28.2269 51.099 27.9952C51.1614 27.7634 51.0598 27.5184 50.8519 27.3982L48.29 25.9186L50.8519 24.4398C51.0598 24.3196 51.1621 24.0745 51.0996 23.8428C51.0372 23.611 50.8274 23.449 50.587 23.449H45.5288V22.5306C45.5288 22.2371 45.2911 22 44.9982 22C44.7054 22 44.4676 22.2377 44.4676 22.5306V30.1407C44.3016 30.2058 44.1442 30.3014 44.0048 30.4296L37.408 36.4454C37.0926 36.7322 36.9252 37.1101 36.9252 37.5384V40.5878H30.4499C30.0077 40.5878 29.6272 40.8514 29.4558 41.2797L28.4412 43.8497C28.307 44.1903 28.3389 44.5635 28.5295 44.8743C28.7307 45.203 29.0607 45.3916 29.4359 45.3916H30.1943V55.4681C30.1943 55.7616 30.432 55.9987 30.7249 55.9987H59.2709C59.5644 55.9987 59.8015 55.7609 59.8015 55.4681V45.3916H60.5599C60.9351 45.3916 61.2658 45.203 61.4663 44.8743C61.6576 44.5635 61.6894 44.1896 61.5553 43.849ZM48.6041 24.5108L46.9625 25.4591C46.7985 25.5541 46.6969 25.7294 46.6969 25.9186C46.6969 26.1086 46.7985 26.2839 46.9625 26.3782L48.6061 27.3264H45.5281V24.5108H48.6041ZM29.4346 44.3205C29.418 44.2932 29.416 44.27 29.4286 44.2388L30.442 41.6722C30.4466 41.6602 30.4513 41.6529 30.4546 41.6496H36.9239V44.3298H29.4412C29.4399 44.3278 29.4372 44.3251 29.4346 44.3205ZM31.2561 45.3916H36.9239V54.9368H31.2561V45.3916ZM37.9857 37.5384C37.9857 37.4109 38.0276 37.3159 38.1212 37.2303L44.72 31.2132C44.799 31.1408 44.8979 31.1043 44.9976 31.1043H44.9989C45.0985 31.1043 45.1981 31.1408 45.2778 31.2139L51.8759 37.2309C51.9689 37.3159 52.0107 37.4102 52.0107 37.5384V54.9375H48.3139V50.1655C48.3139 48.3374 46.8257 46.8505 44.9969 46.8505C43.1687 46.8505 41.6819 48.3374 41.6819 50.1655V54.9375H37.9857V37.5384ZM47.2521 54.9375H42.7437V50.1655C42.7437 48.9231 43.7544 47.9124 44.9969 47.9124C46.24 47.9124 47.2521 48.9231 47.2521 50.1655V54.9375ZM58.7403 54.9375H53.0726V45.3916H58.7403V54.9375ZM60.5612 44.3205C60.5585 44.3245 60.5565 44.3278 60.5546 44.3298H53.0726V41.6496H59.5419C59.5452 41.6536 59.5492 41.6602 59.5531 41.6695L60.5678 44.2388C60.5798 44.27 60.5785 44.2932 60.5612 44.3205ZM45.1045 40.7498C47.0415 40.7498 48.6174 39.174 48.6174 37.2376C48.6174 35.3012 47.0415 33.7247 45.1045 33.7247C43.1674 33.7247 41.5922 35.3005 41.5922 37.2376C41.5922 39.1747 43.1681 40.7498 45.1045 40.7498ZM45.1045 34.7865C46.4558 34.7865 47.5555 35.8862 47.5555 37.2376C47.5555 38.5889 46.4558 39.6886 45.1045 39.6886C43.7531 39.6886 42.6534 38.5889 42.6534 37.2376C42.6534 35.8862 43.7531 34.7865 45.1045 34.7865ZM44.5739 37.2376V35.9705C44.5739 35.677 44.8116 35.44 45.1045 35.44C45.3973 35.44 45.6351 35.6777 45.6351 35.9705V36.7063H46.3708C46.6644 36.7063 46.9014 36.9441 46.9014 37.2369C46.9014 37.5298 46.6637 37.7675 46.3708 37.7675H45.1045C44.8116 37.7682 44.5739 37.5304 44.5739 37.2376ZM34.7531 46.3067H33.4263C32.7171 46.3067 32.1406 46.8838 32.1406 47.5923V50.3083C32.1406 51.0162 32.7177 51.592 33.4263 51.592H34.7531C35.4623 51.592 36.0387 51.0162 36.0387 50.3083V47.5923C36.0394 46.8838 35.4623 46.3067 34.7531 46.3067ZM34.9775 50.309C34.9775 50.4292 34.8753 50.5308 34.7537 50.5308H33.4263C33.3047 50.5308 33.2025 50.4292 33.2025 50.309V47.593C33.2025 47.4695 33.3028 47.3692 33.4263 47.3692H34.7531C34.8746 47.3692 34.9769 47.4714 34.9769 47.593V50.309H34.9775ZM55.2434 51.5926H56.5702C57.2794 51.5926 57.8558 51.0169 57.8558 50.309V47.593C57.8558 46.8838 57.2787 46.3073 56.5702 46.3073H55.2434C54.5348 46.3073 53.9578 46.8844 53.9578 47.593V50.309C53.9578 51.0162 54.5342 51.5926 55.2434 51.5926ZM55.0189 47.5923C55.0189 47.4708 55.1212 47.3685 55.2427 47.3685H56.5695C56.693 47.3685 56.7933 47.4688 56.7933 47.5923V50.3083C56.7933 50.4285 56.691 50.5301 56.5695 50.5301H55.2427C55.1212 50.5301 55.0189 50.4285 55.0189 50.3083V47.5923ZM43.3367 45.9361C44.046 45.9361 44.6224 45.3591 44.6224 44.6505V43.3237C44.6224 42.6152 44.0453 42.0381 43.3367 42.0381H40.6207C39.9122 42.0381 39.3351 42.6152 39.3351 43.3237V44.6505C39.3351 45.3597 39.9122 45.9361 40.6207 45.9361H43.3367ZM40.3969 44.6505V43.3237C40.3969 43.2022 40.4992 43.0999 40.6207 43.0999H43.3367C43.4583 43.0999 43.5605 43.2022 43.5605 43.3237V44.6505C43.5605 44.772 43.4583 44.8743 43.3367 44.8743H40.6207C40.4992 44.8743 40.3969 44.7714 40.3969 44.6505ZM45.3734 43.323V44.6498C45.3734 45.3591 45.9505 45.9355 46.659 45.9355H49.3751C50.0843 45.9355 50.6607 45.3584 50.6607 44.6498V43.323C50.6607 42.6145 50.0836 42.0374 49.3751 42.0374H46.659C45.9505 42.0374 45.3734 42.6145 45.3734 43.323ZM49.5995 43.323V44.6498C49.5995 44.7714 49.4972 44.8736 49.3757 44.8736H46.6597C46.5382 44.8736 46.4359 44.7714 46.4359 44.6498V43.323C46.4359 43.2015 46.5382 43.0993 46.6597 43.0993H49.3757C49.4972 43.0993 49.5995 43.2015 49.5995 43.323Z" fill="white" stroke="white" stroke-width="0.5"/>
</svg>
