<svg width="69" height="62" viewBox="0 0 69 62" fill="none" xmlns="http://www.w3.org/2000/svg">
<path d="M41.4951 3.67966H41.1947V3.37422C41.1947 2.53553 40.5146 1.85547 39.6759 1.85547C38.8372 1.85547 38.1572 2.53553 38.1572 3.37422V3.67966H28.5182V3.37422C28.5182 2.53553 27.8381 1.85547 26.9994 1.85547C26.1607 1.85547 25.4807 2.53553 25.4807 3.37422V3.67966H15.8417V3.37422C15.8417 2.53553 15.1616 1.85547 14.3229 1.85547C13.4843 1.85547 12.8042 2.53553 12.8042 3.37422V3.67966H12.5122C10.3033 3.63578 8.37281 4.49472 6.85912 6.00166C5.337 7.51534 4.5 9.53359 4.5 11.6852V44.1375C4.5 48.5503 8.091 52.143 12.5055 52.143H41.4951C45.9079 52.143 49.5006 48.5503 49.5006 44.1375V11.6852C49.5006 7.27234 45.9079 3.67966 41.4951 3.67966ZM46.4614 44.1375C46.4614 46.8763 44.2339 49.1038 41.4951 49.1038H12.5055C9.765 49.1038 7.5375 46.8763 7.5375 44.1375V11.6852C7.5375 10.3487 8.05894 9.09484 9.00394 8.15322C9.93544 7.22678 11.1673 6.71716 12.4836 6.71716H12.5072H12.8059V7.01753C12.8059 7.85622 13.4859 8.53628 14.3246 8.53628C15.1633 8.53628 15.8434 7.85622 15.8434 7.01753V6.71716H25.4807V7.01753C25.4807 7.85622 26.1607 8.53628 26.9994 8.53628C27.8381 8.53628 28.5182 7.85622 28.5182 7.01753V6.71716H38.1555V7.01753C38.1555 7.85622 38.8356 8.53628 39.6743 8.53628C40.5129 8.53628 41.193 7.85622 41.193 7.01753V6.71716H41.4934C44.2322 6.71716 46.4597 8.94466 46.4597 11.6835V44.1375H46.4614Z" fill="white"/>
<path d="M27.084 33.1016H15.6242C14.7855 33.1016 14.1055 33.7816 14.1055 34.6203C14.1055 35.459 14.7855 36.1391 15.6242 36.1391H27.084C27.9227 36.1391 28.6028 35.459 28.6028 34.6203C28.6028 33.7816 27.9227 33.1016 27.084 33.1016Z" fill="white"/>
<path d="M38.3751 15.3555H15.6242C14.7855 15.3555 14.1055 16.0355 14.1055 16.8742C14.1055 17.7129 14.7855 18.393 15.6242 18.393H38.3751C39.2138 18.393 39.8938 17.7129 39.8938 16.8742C39.8938 16.0355 39.2138 15.3555 38.3751 15.3555Z" fill="white"/>
<path d="M38.3751 24.2266H15.6242C14.7855 24.2266 14.1055 24.9066 14.1055 25.7453C14.1055 26.584 14.7855 27.2641 15.6242 27.2641H38.3751C39.2138 27.2641 39.8938 26.584 39.8938 25.7453C39.8938 24.9066 39.2138 24.2266 38.3751 24.2266Z" fill="white"/>
<rect x="35" y="24" width="18" height="33" fill="#0A3A81"/>
<g clip-path="url(#clip0_2825_900)">
<path d="M45.7052 40.9988C45.876 40.8279 45.876 40.5509 45.7052 40.38C45.5343 40.2093 45.2573 40.2093 45.0864 40.38C44.7937 40.6729 44.317 40.6729 44.0242 40.38C43.8533 40.2093 43.5764 40.2093 43.4055 40.38C43.2346 40.5509 43.2346 40.8279 43.4055 40.9988C43.7225 41.3158 44.1389 41.4743 44.5553 41.4743C44.9718 41.4743 45.3882 41.3158 45.7052 40.9988Z" fill="white"/>
<path d="M50.4802 49.9551C50.4338 49.718 50.2041 49.5632 49.9667 49.6099C49.7296 49.6563 49.5751 49.8862 49.6215 50.1233L50.0971 52.5508C50.138 52.7595 50.321 52.9043 50.526 52.9043C50.5538 52.9043 50.5821 52.9016 50.6105 52.896C50.8477 52.8496 51.0022 52.6197 50.9558 52.3826L50.4802 49.9551Z" fill="white"/>
<path d="M39.1031 49.6033C38.8634 49.5822 38.6498 49.7589 38.6279 49.9995L38.4081 52.4272C38.3863 52.6678 38.5637 52.8806 38.8043 52.9024C38.8177 52.9035 38.8311 52.9042 38.8443 52.9042C39.0681 52.9042 39.2589 52.7333 39.2795 52.5061L39.4994 50.0785C39.5212 49.8378 39.3438 49.6251 39.1031 49.6033Z" fill="white"/>
<path d="M62.4523 43.2898H61.8441V30.5323H62.4523C62.6939 30.5323 62.8898 30.3364 62.8898 30.0948C62.8898 29.8532 62.6939 29.6573 62.4523 29.6573H61.5069L52.2289 25.1667C52.1085 25.1085 51.9681 25.1085 51.8477 25.1667L44.8038 28.576H43.1388C41.6557 28.576 40.4263 29.6824 40.2326 31.1133C39.3159 31.3036 38.6249 32.1176 38.6249 33.0899V36.1094C38.3211 36.4747 38.1556 36.9302 38.1556 37.4112C38.1556 38.42 38.8919 39.2597 39.8553 39.4222C40.1338 40.783 40.9901 41.9356 42.1557 42.6119V42.9748C42.1557 43.0574 42.0848 43.1161 42.0183 43.1436C41.2166 43.475 40.3804 43.7724 39.6428 44.0348C38.7396 44.3561 37.9595 44.6336 37.3915 44.912C36.26 45.4668 35.5344 46.9329 35.2349 49.2696C35.0213 50.935 35.1056 52.4296 35.1093 52.4925C35.123 52.7249 35.3158 52.9042 35.5456 52.9042C35.5542 52.9042 35.5629 52.904 35.5716 52.9035C35.8128 52.8894 35.9968 52.6824 35.9828 52.4412C35.8904 50.8555 36.0326 46.5528 37.7767 45.6977C38.2998 45.4412 39.0581 45.1715 39.936 44.8592C40.1423 44.7858 40.3567 44.7094 40.5756 44.6306L41.8065 46.7628C41.8677 46.8688 41.9706 46.9443 42.0901 46.9711C42.2093 46.9976 42.3347 46.9731 42.4352 46.9032L44.1187 45.7324V52.4668C44.1187 52.7084 44.3146 52.9043 44.5562 52.9043C44.7979 52.9043 44.9937 52.7084 44.9937 52.4668V45.7324L46.6773 46.9032C46.7512 46.9547 46.8385 46.9816 46.9271 46.9816C46.9589 46.9816 46.9909 46.9781 47.0225 46.9711C47.1419 46.9443 47.2448 46.8688 47.306 46.7628L48.5191 44.6614C49.6528 45.1067 50.6787 45.4858 51.3916 45.7204C51.5161 45.7614 52.0162 46.0315 53.226 47.7875C53.7013 48.4774 54.1169 49.1532 54.3249 49.4989L54.0021 49.965C53.8644 50.1636 53.9139 50.4361 54.1126 50.5737C54.1886 50.6264 54.2754 50.6516 54.3613 50.6516C54.5 50.6516 54.6364 50.5858 54.7213 50.4631L56.8443 47.3979C57.1068 47.9482 57.4576 48.233 58.4574 48.233C58.581 48.233 58.6967 48.2257 58.8054 48.2115C58.0207 50.4053 56.4636 52.1536 56.4454 52.1737C56.2836 52.3532 56.2979 52.6298 56.4773 52.7916C56.561 52.8671 56.6657 52.9043 56.7701 52.9043C56.8897 52.9043 57.0088 52.8556 57.0952 52.7598C57.1887 52.6561 59.3827 50.1973 59.9767 47.2748C60.1135 46.8979 60.176 46.4 60.176 45.7614C60.176 45.0808 60.1629 44.5584 60.0256 44.1648H61.4066H62.4523C62.6939 44.1648 62.8898 43.969 62.8898 43.7273C62.8898 43.4857 62.6939 43.2898 62.4523 43.2898ZM52.0383 26.0466L59.4984 29.6573H49.1127C48.476 29.0804 47.6611 28.6973 46.7616 28.6005L52.0383 26.0466ZM43.1388 29.451H46.3121C48.132 29.451 49.6126 30.9315 49.6126 32.7514V35.4924C49.3925 35.4128 49.158 35.3712 48.917 35.3712C43.7605 35.3712 42.6874 34.3973 42.5687 34.2689C42.4983 34.0728 42.3079 33.9756 42.0994 34.0099C42.0727 34.0143 42.0471 34.0214 42.0228 34.0309C41.4911 33.9529 41.0811 33.495 41.0811 32.9419V31.5087C41.0811 30.3741 42.0042 29.451 43.1388 29.451ZM49.3545 38.4587V36.3308C49.4973 36.3886 49.6285 36.4751 49.7407 36.5874C49.9608 36.8074 50.082 37.1 50.082 37.4112C50.082 37.8989 49.7807 38.3176 49.3545 38.4909V38.4587ZM40.2061 32.0336V32.9419C40.2061 33.8338 40.7999 34.5893 41.6128 34.8347C41.4442 35.0861 41.0623 35.3712 40.1956 35.3712C39.9546 35.3712 39.72 35.4128 39.4999 35.4924V33.0899C39.4999 32.6142 39.792 32.2057 40.2061 32.0336ZM39.7581 38.4909C39.3318 38.3176 39.0306 37.8989 39.0306 37.4112C39.0306 37.1 39.1517 36.8074 39.3718 36.5874C39.484 36.4751 39.6152 36.3886 39.7581 36.3308V38.4587V38.4909ZM40.6331 38.4587V36.224C41.6053 36.1218 42.1385 35.6801 42.4017 35.2276C43.1651 35.6703 44.8386 36.204 48.4795 36.2437V38.4587C48.4795 40.622 46.7196 42.3819 44.5562 42.3819C42.393 42.3819 40.6331 40.622 40.6331 38.4587ZM44.5563 43.2569C45.0898 43.2569 45.6033 43.1692 46.0831 43.0078C46.0914 43.2604 46.1935 43.4972 46.365 43.6805C46.1461 43.9894 45.6365 44.4577 44.5562 44.4577C43.4816 44.4577 42.9701 43.9899 42.7488 43.6791C42.9195 43.496 43.0211 43.2598 43.0294 43.0078C43.5092 43.1692 44.0227 43.2569 44.5563 43.2569ZM42.3264 45.9131L41.409 44.3239C41.5988 44.2523 41.7897 44.1784 41.9803 44.1027C42.2037 44.4482 42.6339 44.9171 43.4032 45.1642L42.3264 45.9131ZM46.7861 45.9131L45.7093 45.1642C46.4771 44.9176 46.9071 44.4501 47.1309 44.1047C47.1516 44.1132 47.1723 44.1216 47.193 44.1301C47.1937 44.1304 47.1944 44.1307 47.1951 44.1309C47.3633 44.1996 47.531 44.2676 47.6974 44.3346L46.7861 45.9131ZM53.9495 47.2953C52.629 45.378 52.0134 45.0038 51.6651 44.8892C51.1419 44.7171 50.4452 44.4649 49.6592 44.1648H56.633C56.255 44.8418 56.2714 45.7394 56.466 46.4075L54.8702 48.7116C54.6394 48.3373 54.3141 47.8247 53.9495 47.2953ZM57.7685 47.2333C57.6644 47.1424 57.5808 46.9164 57.4652 46.6037C57.4325 46.5155 57.3976 46.4209 57.3586 46.3196C57.1549 45.7901 57.1328 44.9678 57.4484 44.5083C57.6071 44.2772 57.8386 44.1648 58.156 44.1648C58.7644 44.1648 59.0499 44.2146 59.1416 44.3364C59.2888 44.532 59.301 45.1476 59.301 45.7614C59.301 46.3139 59.2513 46.722 59.1531 46.9809C59.1519 46.9838 59.1508 46.9867 59.1496 46.9896C59.1197 47.0666 59.0856 47.1306 59.0469 47.1802C58.9612 47.2899 58.8327 47.358 58.4574 47.358C57.9678 47.358 57.8298 47.2868 57.7685 47.2333ZM58.6919 43.2898V38.5937C58.6919 38.3521 58.4961 38.1562 58.2544 38.1562C58.0128 38.1562 57.8169 38.3521 57.8169 38.5937V43.2898H47.4499C47.3315 43.2414 47.2129 43.1926 47.0941 43.1436C47.0278 43.1161 46.9568 43.0574 46.9568 42.9748V42.6119C48.1224 41.9356 48.9788 40.783 49.2573 39.4222C50.2206 39.2597 50.957 38.42 50.957 37.4112C50.957 36.9302 50.7914 36.4747 50.4876 36.1094V32.7514C50.4876 31.9364 50.252 31.1757 49.8465 30.5323H60.9691V43.2898H58.6919Z" fill="white"/>
<path d="M58.2525 33.9297H53.0234C52.7818 33.9297 52.5859 34.1256 52.5859 34.3672C52.5859 34.6088 52.7818 34.8047 53.0234 34.8047H58.2525C58.4941 34.8047 58.69 34.6088 58.69 34.3672C58.69 34.1256 58.4941 33.9297 58.2525 33.9297Z" fill="white"/>
<path d="M56.7684 36.2422H53.0234C52.7818 36.2422 52.5859 36.4381 52.5859 36.6797C52.5859 36.9213 52.7818 37.1172 53.0234 37.1172H56.7684C57.01 37.1172 57.2059 36.9213 57.2059 36.6797C57.2059 36.4381 57.01 36.2422 56.7684 36.2422Z" fill="white"/>
</g>
<defs>
<clipPath id="clip0_2825_900">
<rect width="28" height="28" fill="white" transform="translate(35 25)"/>
</clipPath>
</defs>
</svg>
