<svg width="14" height="14" viewBox="0 0 14 14" fill="none" xmlns="http://www.w3.org/2000/svg">
<g clip-path="url(#clip0_7412_28954)">
<path d="M8.3125 0H1.60417C0.7175 0 0 0.7175 0 1.60417V10.6458C0 11.5325 0.7175 12.25 1.60417 12.25H6.3525C5.83917 11.55 5.54167 10.6983 5.54167 9.77083C5.54167 7.4375 7.4375 5.54167 9.77083 5.54167C9.8175 5.54167 9.87 5.54167 9.91667 5.5475V1.60417C9.91667 0.7175 9.19917 0 8.3125 0ZM2.33333 2.33333H4.66667C4.9875 2.33333 5.25 2.59583 5.25 2.91667C5.25 3.2375 4.9875 3.5 4.66667 3.5H2.33333C2.0125 3.5 1.75 3.2375 1.75 2.91667C1.75 2.59583 2.0125 2.33333 2.33333 2.33333ZM5.25 8.16667H2.33333C2.0125 8.16667 1.75 7.90417 1.75 7.58333C1.75 7.2625 2.0125 7 2.33333 7H5.25C5.57083 7 5.83333 7.2625 5.83333 7.58333C5.83333 7.90417 5.57083 8.16667 5.25 8.16667ZM7.58333 5.83333H2.33333C2.0125 5.83333 1.75 5.57083 1.75 5.25C1.75 4.92917 2.0125 4.66667 2.33333 4.66667H7.58333C7.90417 4.66667 8.16667 4.92917 8.16667 5.25C8.16667 5.57083 7.90417 5.83333 7.58333 5.83333Z" fill="#0A3A81"/>
<path d="M9.76953 12.834C8.08078 12.834 6.70703 11.4602 6.70703 9.77148C6.70703 8.08273 8.08078 6.70898 9.76953 6.70898C11.4583 6.70898 12.832 8.08273 12.832 9.77148C12.832 11.4602 11.4583 12.834 9.76953 12.834ZM9.76953 7.87565C8.7242 7.87565 7.8737 8.72615 7.8737 9.77148C7.8737 10.8168 8.7242 11.6673 9.76953 11.6673C10.8149 11.6673 11.6654 10.8168 11.6654 9.77148C11.6654 8.72615 10.8149 7.87565 9.76953 7.87565Z" fill="#0A3A81"/>
<path d="M13.4168 14.0001C13.2675 14.0001 13.1181 13.943 13.0044 13.8292L11.1086 11.9334C10.8805 11.7053 10.8805 11.3366 11.1086 11.1086C11.3366 10.8805 11.7053 10.8805 11.9334 11.1086L13.8292 13.0044C14.0573 13.2325 14.0573 13.6011 13.8292 13.8292C13.7155 13.943 13.5661 14.0001 13.4168 14.0001Z" fill="#0A3A81"/>
</g>
<defs>
<clipPath id="clip0_7412_28954">
<rect width="14" height="14" fill="white"/>
</clipPath>
</defs>
</svg>
