<svg width="59" height="57" viewBox="0 0 59 57" fill="none" xmlns="http://www.w3.org/2000/svg">
<path d="M11.2983 26.0257C11.2983 25.4074 10.9311 24.9062 10.478 24.9062H6.14837C5.69526 24.9062 5.32812 25.4074 5.32812 26.0257C5.32812 26.6439 5.69526 27.1451 6.14837 27.1451H10.478C10.9311 27.1451 11.2983 26.6439 11.2983 26.0257Z" fill="white"/>
<path d="M6.32201 31.6216H9.55812C10.1071 31.6216 10.552 31.1204 10.552 30.5022C10.552 29.884 10.1071 29.3828 9.55812 29.3828H6.32201C5.77299 29.3828 5.32812 29.884 5.32812 30.5022C5.32812 31.1204 5.77312 31.6216 6.32201 31.6216Z" fill="white"/>
<path d="M6.2392 35.3556H8.89467C9.39794 35.3556 9.80574 35.1886 9.80574 34.9825C9.80574 34.7764 9.39794 34.6094 8.89467 34.6094H6.2392C5.73592 34.6094 5.32812 34.7764 5.32812 34.9825C5.32812 35.1886 5.73604 35.3556 6.2392 35.3556Z" fill="white"/>
<path d="M6.30067 40.5826H10.3257C10.863 40.5826 11.2983 40.0814 11.2983 39.4632C11.2983 38.8449 10.863 38.3438 10.3257 38.3438H6.30067C5.76344 38.3438 5.32812 38.8449 5.32812 39.4632C5.32812 40.0814 5.76357 40.5826 6.30067 40.5826Z" fill="white"/>
<path d="M18.761 14.0882C18.761 13.4699 18.3694 12.9688 17.8862 12.9688H6.20289C5.71967 12.9688 5.32812 13.4699 5.32812 14.0882C5.32812 14.7064 5.71967 15.2076 6.20289 15.2076H17.8862C18.3694 15.2076 18.761 14.7064 18.761 14.0882Z" fill="white"/>
<path d="M58.0132 50.1318C57.4078 48.392 55.8971 46.6647 53.5231 44.9977C51.8187 43.8016 49.9789 42.8624 48.2343 42.2881C48.659 41.5064 48.81 40.6138 48.6581 39.7249C48.5856 39.3009 48.447 38.8989 48.2512 38.5285L48.2517 22.2452C48.2517 18.6341 46.8271 15.2394 44.2404 12.6862L35.6837 4.2405C33.0969 1.68733 29.6577 0.28125 25.9992 0.28125H25.9991H6.16792C3.23651 0.28125 0.851562 2.63569 0.851562 5.52972L0.918902 44.8471C0.922045 45.3039 1.29836 45.6721 1.76054 45.6721H1.76648C2.23135 45.6689 2.60554 45.2944 2.60239 44.8355L2.53505 5.52972C2.53505 3.55192 4.16479 1.94289 6.16803 1.94289H24.106C27.6218 1.94289 30.482 4.76602 30.482 8.2362V12.5722C30.482 15.4661 32.8673 17.8204 35.7992 17.8204H40.1922C43.7007 17.8204 46.556 20.6322 46.5678 24.0925V36.8505C45.7734 36.4272 44.8651 36.2762 43.9606 36.4267C43.8116 36.4516 43.6654 36.4849 43.522 36.5249C44.2299 32.5584 43.4246 28.4537 41.2106 25.0036C40.9619 24.616 40.4417 24.5008 40.0492 24.7463C39.6564 24.9918 39.5397 25.5051 39.7885 25.8927C42.0795 29.4629 42.6912 33.8131 41.4784 37.8543C41.4229 37.9218 41.3686 37.9905 41.3172 38.0619L36.0537 45.3652C36.0024 45.4363 35.9546 45.5092 35.9085 45.5826C30.77 49.2204 23.8824 49.2398 18.7154 45.6122C12.0678 40.944 10.5067 31.8088 15.2356 25.2483C17.5256 22.07 20.9327 19.9624 24.8292 19.3137C28.7252 18.6651 32.6452 19.5529 35.8659 21.8137C36.4592 22.2303 37.0228 22.6903 37.5411 23.1809C37.8767 23.4985 38.4095 23.4875 38.7312 23.1563C39.053 22.8251 39.0419 22.2992 38.7063 21.9816C38.1291 21.4352 37.5018 20.9232 36.8417 20.4597C33.2546 17.9415 28.8889 16.9526 24.5492 17.6752C20.2092 18.3977 16.4143 20.7453 13.8638 24.2851C8.59652 31.592 10.3352 41.7667 17.7393 46.9662C20.6079 48.9801 23.9525 49.9852 27.2952 49.9852C30.0571 49.9852 32.8172 49.2978 35.3057 47.927C35.3144 48.0733 35.3305 48.2199 35.3555 48.3664C35.5366 49.4262 36.125 50.3529 37.0122 50.9758C37.7274 51.4779 38.5521 51.7193 39.3695 51.7193C40.4808 51.7193 41.5783 51.2726 42.3676 50.429C43.3046 51.6301 44.5065 52.8089 45.8687 53.8614C45.1916 54.7727 44.101 55.3361 42.9348 55.3361H6.16792C5.74805 55.3361 5.33694 55.2662 4.94593 55.1285C3.58353 54.6482 2.66109 53.3296 2.65088 51.8475L2.62809 48.5522C2.62495 48.0952 2.24864 47.727 1.78646 47.727C1.78455 47.727 1.78253 47.727 1.78063 47.727C1.31564 47.7301 0.941461 48.1047 0.944603 48.5635L0.967387 51.8588C0.982538 54.0363 2.35369 55.9792 4.37971 56.6932C4.95277 56.8953 5.55445 56.9977 6.1678 56.9977H42.9346C44.6431 56.9977 46.2426 56.173 47.2329 54.8369C49.6363 56.4202 51.5506 56.9707 53.0501 56.9706C55.3828 56.9705 56.7126 55.6395 57.3197 54.797C58.342 53.3787 58.5817 51.7655 58.0132 50.1318ZM40.1921 16.1588H35.799C33.7955 16.1588 32.1654 14.5499 32.1654 12.5722V8.2362C32.1654 5.9911 31.2185 3.96046 29.6977 2.51261C31.4868 3.08167 33.1258 4.06581 34.4932 5.4155L43.05 13.8612C44.4174 15.2109 45.4146 16.8287 45.991 18.5945C44.5241 17.0935 42.4667 16.1588 40.1921 16.1588ZM37.9881 49.6217C37.4672 49.2561 37.1218 48.7122 37.0155 48.0901C36.9093 47.468 37.0548 46.8424 37.4252 46.3283L42.6887 39.025C43.1549 38.3782 43.8929 38.0331 44.6418 38.0331C45.1214 38.0331 45.6057 38.1748 46.0255 38.4696C46.5465 38.8352 46.8918 39.3792 46.9981 40.0012C47.1044 40.6233 46.9588 41.2489 46.5884 41.7631L41.3249 49.0663C40.56 50.1274 39.0632 50.3766 37.9881 49.6217ZM55.9481 53.8339C55.1752 54.9062 54.1566 55.3052 53.0681 55.3051C51.169 55.305 49.0576 54.0905 47.6715 53.1175C45.9467 51.9063 44.4552 50.4717 43.4146 49.0331L47.242 43.7224C48.9587 44.2201 50.821 45.1402 52.5472 46.3516C54.7279 47.8828 58.0692 50.8908 55.9481 53.8339Z" fill="white"/>
<path d="M34.4862 24.1348C31.8058 22.2864 28.5438 21.5608 25.3002 22.0911C22.0569 22.6215 19.2206 24.3445 17.3141 26.9427C15.4074 29.5409 14.6587 32.7034 15.2058 35.8477C15.753 38.9918 17.5303 41.7413 20.2105 43.5895C22.3186 45.0432 24.7864 45.8025 27.3221 45.8025C28.0104 45.8025 28.704 45.7465 29.3965 45.6333C32.6398 45.103 35.476 43.38 37.3826 40.7817C41.3185 35.418 40.019 27.9503 34.4862 24.1348ZM18.813 27.8142H31.5038C31.8429 27.8142 32.1618 27.9424 32.402 28.1752C32.6422 28.4082 32.7746 28.7174 32.7746 29.046C32.7746 29.7247 32.2045 30.2768 31.5038 30.2768H17.4393C17.7591 29.4505 18.1895 28.6583 18.7312 27.9199C18.7577 27.884 18.7861 27.8498 18.813 27.8142ZM16.9732 35.8295H31.5038C31.8436 35.8295 32.1625 35.9574 32.402 36.1896C32.6422 36.4225 32.7746 36.7317 32.7746 37.0603C32.7746 37.7395 32.2045 38.2922 31.5038 38.2922H17.8095C17.4282 37.5175 17.1467 36.6918 16.9732 35.8295ZM35.9653 39.8043C34.328 42.0356 31.8925 43.5153 29.1072 43.9707C26.3221 44.4261 23.5203 43.8028 21.2187 42.2156C20.3024 41.5838 19.5114 40.8278 18.8588 39.9781H31.5039C33.1636 39.9781 34.514 38.6692 34.514 37.0602C34.514 36.2812 34.2008 35.5486 33.6321 34.9973C33.0642 34.4467 32.3083 34.1433 31.5041 34.1433H16.7774C16.755 33.4075 16.8142 32.6775 16.9528 31.9627H31.5038C33.1635 31.9627 34.5139 30.6542 34.5139 29.046C34.5139 28.2671 34.2007 27.5345 33.632 26.9831C33.0632 26.4317 32.3074 26.1281 31.5039 26.1281H20.4045C21.8586 24.8966 23.6375 24.0727 25.5895 23.7535C26.1843 23.6563 26.7796 23.6083 27.3708 23.6083C29.5482 23.6083 31.6679 24.2605 33.478 25.5086C38.2293 28.7852 39.3452 35.1982 35.9653 39.8043Z" fill="white"/>
</svg>
