<svg width="43" height="43" viewBox="0 0 43 43" fill="none" xmlns="http://www.w3.org/2000/svg">
<path d="M28.4081 16.759C28.9281 16.2525 29.1118 15.509 28.8877 14.8188C28.6635 14.1287 28.0782 13.6349 27.3599 13.5308L25.0311 13.1925C24.6883 13.1424 24.392 12.9276 24.2387 12.6171L23.195 10.5031C22.8737 9.85318 22.2237 9.44922 21.4985 9.44922C21.4983 9.44922 21.4981 9.44922 21.4979 9.44922C20.7725 9.44922 20.1225 9.85352 19.8014 10.5043L18.7599 12.6162C18.6065 12.927 18.3102 13.1423 17.9674 13.1923L15.6373 13.531C14.9192 13.6347 14.3339 14.1285 14.1096 14.8187C13.8855 15.5089 14.069 16.2519 14.5888 16.758L16.274 18.4008C16.5221 18.6427 16.6355 18.9909 16.5768 19.3321L16.1797 21.6523C16.0572 22.3675 16.346 23.0765 16.933 23.5026C17.5213 23.9297 18.2852 23.9837 18.9256 23.6461L21.0082 22.5508C21.3149 22.3892 21.6809 22.3896 21.9877 22.5504L24.0719 23.6461C24.7148 23.9844 25.4779 23.929 26.0651 23.5022C26.6519 23.0757 26.9403 22.3663 26.8172 21.6515L26.4191 19.3329V19.3325C26.3604 18.9909 26.4736 18.6427 26.7221 18.4008L28.4081 16.759ZM26.1359 17.7989C25.6891 18.2341 25.4855 18.8607 25.5913 19.4754L25.9895 21.7936C26.0588 22.1975 25.9023 22.5822 25.571 22.8229C25.2394 23.0636 24.8255 23.0932 24.4626 22.9033L22.3783 21.8075C21.8265 21.5168 21.1679 21.518 20.617 21.8079L18.5346 22.9033C18.1723 23.094 17.7577 23.0644 17.4262 22.8233C17.0949 22.5826 16.9384 22.198 17.0075 21.7944L17.4047 19.4742C17.5097 18.8607 17.3062 18.2345 16.8601 17.7998L15.1747 16.1566C14.8813 15.8713 14.7818 15.4681 14.9084 15.0785C15.035 14.6889 15.3525 14.4212 15.7581 14.3621L18.0884 14.0234C18.7048 13.9341 19.2375 13.5469 19.5132 12.988L20.5548 10.8761C20.736 10.5087 21.0887 10.2893 21.4982 10.2893H21.4986C21.9081 10.2893 22.2607 10.5083 22.4421 10.8754L23.4858 12.9889C23.7614 13.5474 24.2939 13.9342 24.9104 14.0235L27.2395 14.3618C27.6449 14.4208 27.9624 14.6887 28.089 15.0782C28.2155 15.4682 28.1159 15.8713 27.8223 16.1571L26.1359 17.7989Z" fill="black"/>
<path d="M13.0651 32.7227L14.3505 33.3985C14.8012 33.6359 15.3372 33.5965 15.7488 33.2976C16.1608 32.9983 16.3634 32.5004 16.277 31.9985L16.0314 30.569C16.0043 30.4102 16.0566 30.2487 16.172 30.1368L17.2118 29.1238C17.5768 28.7687 17.7057 28.2471 17.5485 27.7628C17.3912 27.2781 16.9805 26.9316 16.4765 26.8585L15.0402 26.6498C14.881 26.6265 14.7437 26.5268 14.6726 26.3828L14.0289 25.0792C13.8033 24.6232 13.3474 24.3398 12.8385 24.3398C12.8383 24.3398 12.8383 24.3398 12.838 24.3398C12.3289 24.3398 11.8727 24.6236 11.6474 25.08L11.005 26.3824C10.934 26.5268 10.7965 26.6264 10.6377 26.6498L9.20042 26.8585C8.69659 26.9315 8.28574 27.278 8.12844 27.7624C7.97114 28.2467 8.09997 28.7683 8.46471 29.1234L9.50385 30.1364C9.61891 30.2487 9.67157 30.4099 9.64427 30.5682L9.39946 31.9994C9.31371 32.5014 9.51611 32.9987 9.92806 33.2977C10.3381 33.5953 10.8736 33.6372 11.3266 33.3986L12.6106 32.7227C12.7531 32.648 12.9229 32.648 13.0651 32.7227ZM10.9358 32.6554C10.7675 32.7436 10.5757 32.7305 10.4217 32.6181C10.2681 32.5066 10.1954 32.3282 10.2275 32.1412L10.4724 30.71C10.5459 30.2794 10.4032 29.8402 10.0901 29.5351L9.05084 28.5222C8.91487 28.3893 8.86859 28.2023 8.92738 28.0219C8.98601 27.8411 9.13323 27.7168 9.32127 27.6893L10.7586 27.4806C11.1912 27.4179 11.565 27.146 11.7583 26.754L12.4005 25.4515C12.4845 25.2814 12.6484 25.1797 12.8382 25.1797H12.8384C13.0283 25.1797 13.1919 25.2814 13.2759 25.4511L13.9196 26.7544C14.1129 27.1464 14.4867 27.4179 14.9192 27.4806L16.3555 27.6893C16.5437 27.7168 16.6909 27.8411 16.7495 28.0219C16.8081 28.2027 16.762 28.3893 16.6259 28.5218L15.5862 29.5347C15.2725 29.8398 15.1295 30.2794 15.2038 30.7108L15.4494 32.1403C15.4814 32.3277 15.4089 32.5061 15.2551 32.618C15.1015 32.7295 14.9098 32.7435 14.7413 32.6553L13.4559 31.9795C13.0688 31.7761 12.6068 31.7761 12.2197 31.9795L10.9358 32.6554Z" fill="black"/>
<path d="M33.8007 26.8586L32.3644 26.6499C32.2053 26.6266 32.0679 26.5269 31.9968 26.3829L31.3531 25.0797C31.1278 24.6232 30.6716 24.3398 30.1625 24.3398C29.6534 24.3398 29.1972 24.6236 28.9716 25.08L28.3292 26.3824C28.2582 26.5268 28.1207 26.6264 27.9619 26.6498L26.5246 26.8585C26.0208 26.9315 25.61 27.278 25.4527 27.7624C25.2954 28.2467 25.4242 28.7683 25.7889 29.1234L26.8282 30.1364C26.9433 30.2487 26.9958 30.4103 26.9687 30.5682L26.7237 31.9994C26.6379 32.5014 26.8403 32.9987 27.2523 33.2977C27.6623 33.5953 28.1979 33.6372 28.6509 33.3986L29.9348 32.7227C30.0771 32.6481 30.2469 32.6481 30.3892 32.7227L31.6746 33.3986C32.1255 33.636 32.661 33.5966 33.0729 33.2977C33.4848 32.9984 33.6874 32.5005 33.6011 31.9985L33.3554 30.5691C33.3284 30.4103 33.3806 30.2488 33.4961 30.1369L34.5358 29.1239C34.9008 28.7688 35.0297 28.2472 34.8725 27.7629C34.7154 27.2781 34.3047 26.9316 33.8007 26.8586ZM33.9501 28.5218L32.9104 29.5348C32.5967 29.8399 32.4538 30.2795 32.528 30.7109L32.7737 32.1404C32.8057 32.3278 32.7331 32.5061 32.5793 32.6181C32.426 32.7296 32.2338 32.7436 32.0655 32.6554L30.7801 31.9796C30.393 31.7762 29.931 31.7762 29.544 31.9796L28.26 32.6554C28.0917 32.7436 27.9 32.7305 27.7459 32.6181C27.5923 32.5066 27.5196 32.3282 27.5518 32.1412L27.7967 30.7096C27.8702 30.2794 27.7275 29.8401 27.4145 29.5351L26.375 28.5222C26.239 28.3893 26.1929 28.2023 26.2515 28.0219C26.3101 27.8411 26.4576 27.7168 26.6454 27.6893L28.0827 27.4806C28.5153 27.4179 28.8891 27.146 29.0825 26.754L29.7246 25.4515C29.8088 25.2814 29.9725 25.1797 30.1626 25.1797C30.3525 25.1797 30.5161 25.281 30.6001 25.4511L31.2438 26.7544C31.4371 27.1464 31.8109 27.4179 32.2434 27.4806L33.6797 27.6893C33.8679 27.7168 34.0151 27.8411 34.0737 28.0219C34.1324 28.2027 34.0863 28.3894 33.9501 28.5218Z" fill="black"/>
<path d="M12.084 21.8113C12.2857 21.9251 12.5418 21.8551 12.6565 21.653L13.1098 20.8534C13.224 20.6517 13.1533 20.3954 12.9515 20.281C12.7495 20.167 12.4932 20.2379 12.3791 20.4393L11.9257 21.2389C11.8115 21.4406 11.8822 21.6969 12.084 21.8113Z" fill="black"/>
<path d="M9.50586 17.0781H10.4241C10.6559 17.0781 10.844 16.8903 10.844 16.6582C10.844 16.4261 10.6559 16.2383 10.4241 16.2383H9.50586C9.27398 16.2383 9.08594 16.4261 9.08594 16.6582C9.08594 16.8903 9.27398 17.0781 9.50586 17.0781Z" fill="black"/>
<path d="M12.379 12.8794C12.4936 13.0818 12.75 13.1514 12.9515 13.0377C13.1532 12.9233 13.224 12.667 13.1098 12.4653L12.6564 11.666C12.542 11.4639 12.2861 11.3937 12.084 11.5077C11.8823 11.6221 11.8115 11.8784 11.9257 12.0801L12.379 12.8794Z" fill="black"/>
<path d="M29.8905 20.8535L30.3438 21.6531C30.4584 21.8555 30.7148 21.925 30.9163 21.8114C31.118 21.697 31.1888 21.4407 31.0746 21.239L30.6212 20.4394C30.5069 20.2376 30.2505 20.1671 30.0488 20.281C29.8471 20.3954 29.7764 20.6518 29.8905 20.8535Z" fill="black"/>
<path d="M33.4944 17.0781C33.7263 17.0781 33.9143 16.8903 33.9143 16.6582C33.9143 16.4261 33.7263 16.2383 33.4944 16.2383H32.5762C32.3443 16.2383 32.1562 16.4261 32.1562 16.6582C32.1562 16.8903 32.3443 17.0781 32.5762 17.0781H33.4944Z" fill="black"/>
<path d="M30.0488 13.0376C30.2505 13.1514 30.5066 13.0813 30.6212 12.8793L31.0746 12.08C31.1888 11.8782 31.1181 11.6219 30.9163 11.5075C30.7145 11.3936 30.4582 11.4645 30.3438 11.6658L29.8905 12.4651C29.7764 12.6669 29.8471 12.9232 30.0488 13.0376Z" fill="black"/>
</svg>
