<svg width="15" height="20" viewBox="0 0 15 20" fill="none" xmlns="http://www.w3.org/2000/svg">
<path d="M13.9998 17.8436V3.19476C14.0023 2.89493 13.8936 2.60624 13.6973 2.39179C13.5011 2.17735 13.2334 2.0546 12.9527 2.05038H10.5588V1.25012C10.5588 1.18379 10.5342 1.12018 10.4903 1.07328C10.4463 1.02638 10.3868 1.00003 10.3247 1.00003H5.06492C5.03354 0.999492 5.00238 1.00569 4.97329 1.01827C4.9442 1.03085 4.91777 1.04955 4.89558 1.07325C4.87339 1.09695 4.85588 1.12518 4.84411 1.15625C4.83233 1.18732 4.82652 1.2206 4.82703 1.25412V2.05438H2.04729C1.76724 2.0586 1.50008 2.1808 1.30398 2.39437C1.10787 2.60795 0.998692 2.89562 1.0002 3.19476V17.8436C0.997473 17.9931 1.02243 18.1417 1.07365 18.2808C1.12486 18.4199 1.20132 18.5469 1.29863 18.6543C1.39594 18.7618 1.51217 18.8477 1.64066 18.907C1.76914 18.9663 1.90733 18.9979 2.04729 19H12.9527C13.0927 18.9979 13.2309 18.9663 13.3593 18.907C13.4878 18.8477 13.6041 18.7618 13.7014 18.6543C13.7987 18.5469 13.8751 18.4199 13.9264 18.2808C13.9776 18.1417 14.0025 17.9931 13.9998 17.8436ZM5.29531 1.5042H10.0906V3.10473H5.29531V1.5042ZM13.5371 17.8436C13.5389 17.9266 13.5253 18.0092 13.4971 18.0866C13.469 18.1641 13.4268 18.2348 13.3731 18.2948C13.3193 18.3548 13.255 18.4029 13.1839 18.4364C13.1127 18.4699 13.0361 18.488 12.9583 18.4898H2.04729C1.96955 18.488 1.89291 18.4699 1.82175 18.4364C1.75058 18.4029 1.68629 18.3548 1.63254 18.2948C1.57879 18.2348 1.53664 18.1641 1.50849 18.0866C1.48034 18.0092 1.46675 17.9266 1.46849 17.8436V3.19476C1.46547 3.02742 1.52471 2.86563 1.63321 2.74487C1.74171 2.6241 1.89062 2.55422 2.04729 2.55055H4.82703V3.35081C4.82751 3.38356 4.83407 3.41589 4.84631 3.44592C4.85855 3.47595 4.87624 3.5031 4.89836 3.52579C4.92048 3.54848 4.94658 3.56627 4.97517 3.57813C5.00376 3.58999 5.03426 3.59569 5.06492 3.59489H10.3284C10.3593 3.59516 10.3898 3.58887 10.4183 3.5764C10.4469 3.56393 10.4728 3.54551 10.4946 3.52224C10.5164 3.49896 10.5336 3.47129 10.5453 3.44083C10.5569 3.41037 10.5628 3.37773 10.5626 3.34481V2.54454H12.9527C13.0308 2.54636 13.1077 2.56465 13.1791 2.59836C13.2506 2.63208 13.315 2.68055 13.3688 2.74099C13.4226 2.80142 13.4647 2.87263 13.4926 2.95051C13.5205 3.02839 13.5338 3.1114 13.5315 3.19476L13.5371 17.8436ZM4.69029 8.99668C5.08233 8.99708 5.46567 8.87327 5.79182 8.64093C6.11797 8.40858 6.37227 8.07814 6.52255 7.6914C6.67284 7.30465 6.71235 6.87899 6.63609 6.46826C6.55984 6.05753 6.37124 5.68018 6.09416 5.38396C5.81707 5.08773 5.46396 4.88594 5.07948 4.8041C4.695 4.72226 4.29643 4.76407 3.9342 4.92421C3.57197 5.08436 3.26234 5.35567 3.0445 5.7038C2.82666 6.05193 2.71038 6.46125 2.71038 6.87998C2.71038 7.44102 2.91892 7.97911 3.29017 8.37601C3.66142 8.77291 4.16501 8.99615 4.69029 8.99668ZM6.1888 6.6319H4.92443V5.28345C5.24161 5.33571 5.53503 5.49431 5.7623 5.73633C5.98957 5.97836 6.13893 6.29128 6.1888 6.6299V6.6319ZM4.46177 5.28545V6.88598C4.46319 6.95024 4.48773 7.01144 4.53028 7.05689C4.57283 7.10234 4.63013 7.12854 4.69029 7.13006H6.1888C6.14535 7.42435 6.02651 7.70005 5.84543 7.92666C5.66436 8.15327 5.42811 8.32195 5.16283 8.41403C4.89756 8.50611 4.6136 8.518 4.34239 8.44838C4.07119 8.37876 3.8233 8.23035 3.62617 8.01958C3.42905 7.8088 3.29036 7.54388 3.22548 7.25413C3.16059 6.96438 3.17203 6.66111 3.25853 6.37788C3.34502 6.09464 3.50321 5.84249 3.71557 5.64933C3.92793 5.45618 4.18619 5.32955 4.46177 5.28345V5.28545ZM12.2952 5.31146C12.2955 5.34438 12.2896 5.37702 12.2779 5.40748C12.2662 5.43794 12.249 5.46562 12.2272 5.48889C12.2054 5.51217 12.1795 5.53058 12.151 5.54305C12.1225 5.55553 12.0919 5.56181 12.0611 5.56155H8.04883C7.98673 5.56155 7.92718 5.5352 7.88327 5.4883C7.83936 5.4414 7.81469 5.37779 7.81469 5.31146C7.81469 5.24514 7.83936 5.18153 7.88327 5.13463C7.92718 5.08773 7.98673 5.06138 8.04883 5.06138H12.0555C12.0861 5.06112 12.1165 5.06734 12.1449 5.07969C12.1733 5.09204 12.1992 5.11027 12.2209 5.13333C12.2427 5.15639 12.26 5.18383 12.2718 5.21406C12.2836 5.24429 12.2896 5.27671 12.2896 5.30946L12.2952 5.31146ZM12.2952 6.88198C12.2955 6.9149 12.2896 6.94754 12.2779 6.978C12.2662 7.00846 12.249 7.03614 12.2272 7.05941C12.2054 7.08269 12.1795 7.1011 12.151 7.11357C12.1225 7.12605 12.0919 7.13233 12.0611 7.13207H8.04883C7.98673 7.13207 7.92718 7.10572 7.88327 7.05882C7.83936 7.01192 7.81469 6.94831 7.81469 6.88198C7.81469 6.81566 7.83936 6.75205 7.88327 6.70515C7.92718 6.65825 7.98673 6.6319 8.04883 6.6319H12.0555C12.0861 6.63164 12.1165 6.63786 12.1449 6.65021C12.1733 6.66256 12.1992 6.68079 12.2209 6.70385C12.2427 6.72691 12.26 6.75435 12.2718 6.78458C12.2836 6.81481 12.2896 6.84723 12.2896 6.87998L12.2952 6.88198ZM12.2952 8.4505C12.2955 8.48342 12.2896 8.51606 12.2779 8.54652C12.2662 8.57698 12.249 8.60466 12.2272 8.62793C12.2054 8.65121 12.1795 8.66962 12.151 8.68209C12.1225 8.69457 12.0919 8.70085 12.0611 8.70059H8.04883C7.98673 8.70059 7.92718 8.67424 7.88327 8.62734C7.83936 8.58044 7.81469 8.51683 7.81469 8.4505C7.81469 8.38418 7.83936 8.32057 7.88327 8.27367C7.92718 8.22677 7.98673 8.20042 8.04883 8.20042H12.0555C12.0861 8.20016 12.1165 8.20638 12.1449 8.21873C12.1733 8.23108 12.1992 8.24931 12.2209 8.27237C12.2427 8.29543 12.26 8.32287 12.2718 8.3531C12.2836 8.38333 12.2896 8.41575 12.2896 8.4485L12.2952 8.4505ZM7.63674 14.4525H8.52648C8.58825 14.4509 8.64694 14.4233 8.68975 14.3757C8.73255 14.3281 8.75601 14.2644 8.755 14.1984V12.1977C8.75525 12.1648 8.74937 12.1322 8.73769 12.1017C8.72601 12.0713 8.70877 12.0436 8.68698 12.0203C8.66519 11.997 8.63928 11.9786 8.61076 11.9662C8.58224 11.9537 8.55168 11.9474 8.52086 11.9477H7.63112C7.6003 11.9474 7.56974 11.9537 7.54122 11.9662C7.5127 11.9786 7.48679 11.997 7.465 12.0203C7.44321 12.0436 7.42597 12.0713 7.41429 12.1017C7.40261 12.1322 7.39673 12.1648 7.39698 12.1977V14.1984C7.39673 14.2314 7.4026 14.2642 7.41426 14.2947C7.42592 14.3253 7.44312 14.3531 7.46489 14.3765C7.48666 14.4 7.51255 14.4186 7.54108 14.4313C7.56961 14.444 7.60021 14.4505 7.63112 14.4505L7.63674 14.4525ZM7.87463 12.4578H8.28672V13.9503H7.87463V12.4578ZM10.2854 14.4585C10.3162 14.4575 10.3465 14.4499 10.3746 14.4362C10.4027 14.4225 10.4279 14.403 10.4488 14.3788C10.4697 14.3546 10.4859 14.3262 10.4965 14.2952C10.507 14.2642 10.5116 14.2313 10.5101 14.1984V11.3975C10.5104 11.3646 10.5045 11.3319 10.4928 11.3015C10.4811 11.271 10.4639 11.2433 10.4421 11.2201C10.4203 11.1968 10.3944 11.1784 10.3659 11.1659C10.3374 11.1534 10.3068 11.1471 10.276 11.1474H9.38813C9.32603 11.1474 9.26647 11.1737 9.22256 11.2206C9.17865 11.2675 9.15398 11.3312 9.15398 11.3975V14.1984C9.15398 14.2647 9.17865 14.3283 9.22256 14.3752C9.26647 14.4221 9.32603 14.4485 9.38813 14.4485L10.2854 14.4585ZM9.63163 11.6576H10.0512V13.9503H9.62227L9.63163 11.6576ZM12.0424 10.3971H11.1451C11.083 10.3971 11.0235 10.4235 10.9796 10.4704C10.9357 10.5173 10.911 10.5809 10.911 10.6472V14.1984C10.911 14.2647 10.9357 14.3283 10.9796 14.3752C11.0235 14.4221 11.083 14.4485 11.1451 14.4485H12.033C12.0951 14.4485 12.1547 14.4221 12.1986 14.3752C12.2425 14.3283 12.2671 14.2647 12.2671 14.1984V10.6312C12.2671 10.5649 12.2425 10.5013 12.1986 10.4544C12.1547 10.4075 12.0951 10.3811 12.033 10.3811L12.0424 10.3971ZM11.8082 13.9503H11.3793V10.8813H11.8082V13.9503ZM2.71038 11.0994C2.71013 11.0665 2.71602 11.0338 2.72769 11.0034C2.73937 10.9729 2.75661 10.9452 2.7784 10.922C2.80019 10.8987 2.8261 10.8803 2.85462 10.8678C2.88315 10.8553 2.9137 10.849 2.94452 10.8493H5.95841C6.0205 10.8493 6.08006 10.8756 6.12397 10.9225C6.16788 10.9694 6.19255 11.0331 6.19255 11.0994C6.19255 11.1657 6.16788 11.2293 6.12397 11.2762C6.08006 11.3231 6.0205 11.3495 5.95841 11.3495H2.94452C2.9137 11.3497 2.88315 11.3434 2.85462 11.331C2.8261 11.3185 2.80019 11.3001 2.7784 11.2768C2.75661 11.2535 2.73937 11.2259 2.72769 11.1954C2.71602 11.1649 2.71013 11.1323 2.71038 11.0994ZM2.71038 12.6699C2.71013 12.637 2.71602 12.6043 2.72769 12.5739C2.73937 12.5434 2.75661 12.5157 2.7784 12.4925C2.80019 12.4692 2.8261 12.4508 2.85462 12.4383C2.88315 12.4258 2.9137 12.4196 2.94452 12.4198H5.95841C6.0205 12.4198 6.08006 12.4462 6.12397 12.4931C6.16788 12.54 6.19255 12.6036 6.19255 12.6699C6.19255 12.7362 6.16788 12.7998 6.12397 12.8467C6.08006 12.8936 6.0205 12.92 5.95841 12.92H2.94452C2.9137 12.9203 2.88315 12.914 2.85462 12.9015C2.8261 12.889 2.80019 12.8706 2.7784 12.8473C2.75661 12.8241 2.73937 12.7964 2.72769 12.7659C2.71602 12.7355 2.71013 12.7028 2.71038 12.6699ZM2.71038 14.2384C2.71233 14.1737 2.73792 14.1123 2.78167 14.0675C2.82543 14.0226 2.88387 13.9978 2.94452 13.9983H5.95841C6.0205 13.9983 6.08006 14.0247 6.12397 14.0716C6.16788 14.1185 6.19255 14.1821 6.19255 14.2484C6.19255 14.3148 6.16788 14.3784 6.12397 14.4253C6.08006 14.4722 6.0205 14.4985 5.95841 14.4985H2.94452C2.91289 14.4988 2.88154 14.4922 2.85238 14.4791C2.82322 14.4661 2.79687 14.4467 2.77495 14.4224C2.75303 14.398 2.73599 14.3692 2.72489 14.3375C2.71378 14.3059 2.70885 14.2722 2.71038 14.2384ZM12.2634 15.887C12.2634 15.9198 12.2573 15.9523 12.2456 15.9827C12.2338 16.013 12.2166 16.0406 12.1948 16.0638C12.1731 16.087 12.1473 16.1054 12.1189 16.118C12.0904 16.1306 12.06 16.1371 12.0293 16.1371H2.94452C2.88242 16.1371 2.82287 16.1107 2.77896 16.0638C2.73505 16.0169 2.71038 15.9533 2.71038 15.887C2.71038 15.8206 2.73505 15.757 2.77896 15.7101C2.82287 15.6632 2.88242 15.6369 2.94452 15.6369H12.033C12.0951 15.6369 12.1547 15.6632 12.1986 15.7101C12.2425 15.757 12.2671 15.8206 12.2671 15.887H12.2634ZM12.2634 17.1274C12.2634 17.1937 12.2387 17.2573 12.1948 17.3042C12.1509 17.3511 12.0914 17.3775 12.0293 17.3775H2.94452C2.88242 17.3775 2.82287 17.3511 2.77896 17.3042C2.73505 17.2573 2.71038 17.1937 2.71038 17.1274C2.71038 17.0611 2.73505 16.9974 2.77896 16.9505C2.82287 16.9036 2.88242 16.8773 2.94452 16.8773H7.48876H12.033C12.0951 16.8773 12.1547 16.9036 12.1986 16.9505C12.2425 16.9974 12.2671 17.0611 12.2671 17.1274H12.2634Z" fill="white" stroke="white" stroke-width="0.15"/>
</svg>
