<svg width="100" height="100" viewBox="0 0 100 100" fill="none" xmlns="http://www.w3.org/2000/svg">
<path d="M50 100C77.6142 100 100 77.6142 100 50C100 22.3858 77.6142 0 50 0C22.3858 0 0 22.3858 0 50C0 77.6142 22.3858 100 50 100Z" fill="#0A3A81"/>
<path d="M45.2303 69.5117C44.0913 69.5136 42.9827 69.1402 42.0715 68.4477L42.0149 68.4047L30.1172 59.1802C29.5662 58.752 29.1038 58.218 28.7564 57.6087C28.4089 56.9994 28.1833 56.3268 28.0924 55.6291C28.0015 54.9314 28.047 54.2224 28.2264 53.5426C28.4059 52.8628 28.7156 52.2254 29.1381 51.6669C29.5605 51.1084 30.0874 50.6397 30.6885 50.2876C31.2897 49.9355 31.9534 49.7068 32.6417 49.6147C33.3301 49.5225 34.0296 49.5687 34.7004 49.7505C35.3711 49.9324 36 50.2463 36.551 50.6745L44.2573 56.6641L62.4679 32.5848C62.8902 32.0266 63.4168 31.5581 64.0177 31.2061C64.6186 30.8541 65.2821 30.6255 65.9701 30.5334C66.6582 30.4413 67.3574 30.4875 68.0279 30.6692C68.6984 30.851 69.3269 31.1649 69.8777 31.5928L69.8793 31.594L69.7663 31.7531L69.8823 31.594C70.9936 32.4596 71.7206 33.7367 71.9039 35.1449C72.0871 36.5532 71.7117 37.9776 70.8599 39.1057L49.4404 67.4155C48.9448 68.0678 48.3077 68.5956 47.5783 68.9581C46.849 69.3205 46.0472 69.5078 45.2349 69.5054L45.2303 69.5117Z" fill="white"/>
</svg>
