<svg width="29" height="29" viewBox="0 0 29 29" fill="none" xmlns="http://www.w3.org/2000/svg">
<g clip-path="url(#clip0_7162_20304)">
<path d="M12.5179 6.67474V4.716C12.5179 4.15475 13.3675 4.15389 13.3675 4.716V6.67474C13.3675 7.23599 12.5179 7.23685 12.5179 6.67474ZM13.3675 8.16399V8.15808C13.3675 7.59683 12.5179 7.59597 12.5179 8.15808V8.16399C12.5179 8.72524 13.3675 8.7261 13.3675 8.16399ZM12.9427 10.2496C10.842 10.2496 9.13303 8.54062 9.13303 6.43999C9.13303 4.33931 10.842 2.6303 12.9427 2.6303C15.0433 2.6303 16.7524 4.33931 16.7524 6.43999C16.7524 8.54062 15.0433 10.2496 12.9427 10.2496ZM12.9427 9.40002C14.5749 9.40002 15.9027 8.07217 15.9027 6.43999C15.9027 4.80782 14.5749 3.47991 12.9427 3.47991C11.3105 3.47991 9.98264 4.80782 9.98264 6.43999C9.98264 8.07217 11.3105 9.40002 12.9427 9.40002ZM22.9639 25.1302V27.7993C22.9639 28.4614 22.4252 29 21.7632 29H13.3099C12.6478 29 12.1092 28.4614 12.1092 27.7993V25.1302C12.1092 24.5858 12.4737 24.1256 12.9713 23.979C12.7041 23.1279 12.4783 22.403 12.2911 21.7947H11.6464C10.5045 21.7947 9.76738 20.5757 10.2988 19.5661C9.33408 19.3596 8.81332 18.2942 9.25201 17.4054H7.0568C6.28236 17.4054 5.65234 16.7754 5.65234 16.0009V1.40446C5.65234 0.630016 6.28236 0 7.0568 0H18.8286C19.603 0 20.233 0.630016 20.233 1.40446V12.0936C21.996 14.311 23.0039 15.8251 23.2711 17.3935C23.5294 18.9101 23.1035 20.4026 22.3977 22.8752C22.297 23.2282 22.1938 23.5901 22.0858 23.9749C22.5914 24.1163 22.9639 24.5801 22.9639 25.1302ZM20.233 13.4752V16.0009C20.233 16.7754 19.603 17.4054 18.8286 17.4054H15.7784C15.8058 17.9353 16.2434 18.3839 16.8112 18.3839C17.3747 18.3839 17.3746 19.2335 16.8148 19.2335C15.5683 19.2335 14.679 18.0607 14.9886 16.8744C14.9888 16.874 14.9888 16.8735 14.9889 16.873L15.9743 13.1079C16.3647 11.6204 14.1047 11.0201 13.7131 12.5159C13.0922 14.8889 12.727 16.1777 12.5315 17.0714C12.4128 17.6123 12.2963 18.2214 12.4001 19.1264C12.4001 19.1265 12.4001 19.1266 12.4001 19.1267C12.4539 19.5095 13.7315 23.5649 13.8463 23.9296H21.2162C21.3452 23.4673 21.4691 23.0333 21.5807 22.6421C22.2535 20.2851 22.6595 18.8625 22.4336 17.5362C22.2489 16.4518 21.6688 15.3591 20.233 13.4752ZM7.0568 16.5558H11.7778C12.0022 15.6129 12.3345 14.4287 12.8912 12.3008C13.5669 9.7203 17.4709 10.7513 16.7962 13.3233L15.9502 16.5558H18.8286C19.1345 16.5558 19.3834 16.3069 19.3834 16.0009C19.3834 15.8334 19.3834 1.72541 19.3834 1.40446C19.3834 1.09852 19.1345 0.849609 18.8286 0.849609H7.0568C6.75086 0.849609 6.50195 1.09852 6.50195 1.40446V16.0009C6.50195 16.3069 6.75086 16.5558 7.0568 16.5558ZM10.6177 18.7504H11.5144C11.4936 18.3846 11.5016 17.9856 11.592 17.4054H10.6177C9.73234 17.4054 9.72903 18.7504 10.6177 18.7504ZM12.0315 20.9451C11.8205 20.2456 11.7048 19.8409 11.6405 19.6C10.7529 19.6078 10.7636 20.9451 11.6464 20.9451H12.0315ZM22.1142 25.1302C22.1142 24.9366 21.9568 24.7792 21.7632 24.7792C21.3956 24.7792 13.68 24.7792 13.3099 24.7792C13.1163 24.7792 12.9588 24.9366 12.9588 25.1302V27.7993C12.9588 27.9929 13.1163 28.1504 13.3099 28.1504H21.7632C21.9568 28.1504 22.1142 27.9929 22.1142 27.7993V25.1302Z" fill="black"/>
</g>
<defs>
<clipPath id="clip0_7162_20304">
<rect width="29" height="29" fill="white"/>
</clipPath>
</defs>
</svg>
