<svg width="14" height="14" viewBox="0 0 14 14" fill="none" xmlns="http://www.w3.org/2000/svg">
<path d="M0.691406 7C1.24004 4.01319 3.85685 1.75 7.00229 1.75C10.1477 1.75 12.7645 4.01319 13.3131 7C12.7645 9.98678 10.1477 12.25 7.00229 12.25C3.85685 12.25 1.24004 9.98678 0.691406 7ZM7.00229 9.91667C8.61311 9.91667 9.91896 8.61082 9.91896 7C9.91896 5.38917 8.61311 4.08333 7.00229 4.08333C5.39144 4.08333 4.0856 5.38917 4.0856 7C4.0856 8.61082 5.39144 9.91667 7.00229 9.91667ZM7.00229 8.75C6.03577 8.75 5.25227 7.96652 5.25227 7C5.25227 6.03347 6.03577 5.25 7.00229 5.25C7.96876 5.25 8.75229 6.03347 8.75229 7C8.75229 7.96652 7.96876 8.75 7.00229 8.75Z" fill="#134085"/>
</svg>
