<svg width="23" height="24" viewBox="0 0 23 24" fill="none" xmlns="http://www.w3.org/2000/svg">
<path d="M21.375 9.94219H17.9632C15.1653 9.94219 12.8868 7.66372 12.8868 4.8658V1.45399C12.8868 0.804688 12.3556 0.273438 11.7063 0.273438H6.70069C3.06458 0.273438 0.125 2.63455 0.125 6.84913V17.3089C0.125 21.5234 3.06458 23.8845 6.70069 23.8845H15.9799C19.616 23.8845 22.5556 21.5234 22.5556 17.3089V11.1227C22.5556 10.4734 22.0243 9.94219 21.375 9.94219ZM11.6708 16.5415L9.30972 18.9026C9.22708 18.9852 9.12083 19.0561 9.01458 19.0915C8.90833 19.1387 8.80208 19.1623 8.68403 19.1623C8.56597 19.1623 8.45972 19.1387 8.35347 19.0915C8.25903 19.0561 8.16458 18.9852 8.09375 18.9144C8.08194 18.9026 8.07014 18.9026 8.07014 18.8908L5.70903 16.5297C5.36667 16.1873 5.36667 15.6207 5.70903 15.2783C6.05139 14.9359 6.61806 14.9359 6.96042 15.2783L7.79861 16.1401V11.1936C7.79861 10.7095 8.2 10.3082 8.68403 10.3082C9.16806 10.3082 9.56944 10.7095 9.56944 11.1936V16.1401L10.4194 15.2901C10.7618 14.9477 11.3285 14.9477 11.6708 15.2901C12.0132 15.6325 12.0132 16.1991 11.6708 16.5415Z" fill="white"/>
<path d="M17.7465 8.31467C18.8681 8.32648 20.4264 8.32648 21.7604 8.32648C22.4333 8.32648 22.7875 7.53551 22.3153 7.06328C20.6153 5.35148 17.5694 2.27023 15.8222 0.523007C15.3382 0.0389797 14.5 0.369535 14.5 1.04245V5.16259C14.5 6.8862 15.9639 8.31467 17.7465 8.31467Z" fill="white"/>
</svg>
