<svg width="25" height="26" viewBox="0 0 25 26" fill="none" xmlns="http://www.w3.org/2000/svg">
<path d="M8.34375 20.1914H16.4088C16.6161 20.1914 16.7838 20.0237 16.7838 19.8164C16.7838 19.6091 16.6161 19.4414 16.4088 19.4414H8.34375C8.13648 19.4414 7.96875 19.6091 7.96875 19.8164C7.96875 20.0237 8.13647 20.1914 8.34375 20.1914Z" fill="white"/>
<path d="M8.34375 23H16.4088C16.6161 23 16.7838 22.8323 16.7838 22.625C16.7838 22.4177 16.6161 22.25 16.4088 22.25H8.34375C8.13648 22.25 7.96875 22.4177 7.96875 22.625C7.96875 22.8323 8.13647 23 8.34375 23Z" fill="white"/>
<path d="M23.0325 8.70594H21.3487V6.89468C21.3487 6.45969 20.9963 6.10719 20.5612 6.10719H19.5262V4.32594C19.5262 4.32594 19.5262 4.32219 19.5262 4.31843C19.515 4.22844 19.4737 4.14968 19.4138 4.08969L16.1475 0.827187C16.0875 0.763445 16.005 0.722199 15.915 0.714691H15.9112C15.9075 0.714691 15.9037 0.710938 15.8962 0.710938H5.60248C5.39246 0.710938 5.22748 0.879691 5.22748 1.08594V6.10719H4.19248C3.75751 6.10719 3.40123 6.45969 3.40123 6.89468V8.70594H1.61627C0.723724 8.70594 0 9.42969 0 10.3184V19.3484C0 20.2372 0.723724 20.9609 1.61627 20.9609H5.93999V24.6735C5.93999 25.1084 6.29251 25.4609 6.72748 25.4609H18.0225C18.4575 25.4609 18.8137 25.1084 18.8137 24.6734V20.9609H23.0325C23.9213 20.9609 24.645 20.2372 24.645 19.3484V10.3184C24.645 9.42969 23.9213 8.70594 23.0325 8.70594ZM5.97748 1.46094H15.5025V4.35595C15.5025 4.56595 15.6713 4.73095 15.8775 4.73095H18.7762V8.70594H5.97748V1.46094ZM18.6075 11.9572C18.6075 12.3724 18.2704 12.7072 17.8575 12.7072C17.4445 12.7072 17.1075 12.3724 17.1075 11.9572C17.1075 11.5442 17.4445 11.2072 17.8575 11.2072C18.2704 11.2072 18.6075 11.5442 18.6075 11.9572ZM18.0637 24.6734C18.0637 24.6959 18.045 24.7109 18.0225 24.7109H6.72748C6.70496 24.7109 6.68999 24.6959 6.68999 24.6734V18.0509H18.0637V24.6734ZM18.9525 17.3009H5.80123C5.53613 17.3009 5.32123 17.086 5.32123 16.8209C5.32123 16.5558 5.53613 16.3409 5.80123 16.3409H18.9525C19.2176 16.3409 19.4325 16.5558 19.4325 16.8209C19.4325 17.086 19.2176 17.3009 18.9525 17.3009ZM21.3083 12.7079C20.8949 12.7079 20.5575 12.3728 20.5575 11.9572C20.5575 11.5438 20.8949 11.2064 21.3083 11.2064C21.7238 11.2064 22.0612 11.5438 22.0612 11.9572C22.0612 12.3728 21.7238 12.7079 21.3083 12.7079Z" fill="white"/>
<path d="M10.6342 2.34766H7.625C7.41773 2.34766 7.25 2.51538 7.25 2.72266C7.25 2.92993 7.41773 3.09766 7.625 3.09766H10.6342C10.8414 3.09766 11.0092 2.92993 11.0092 2.72266C11.0092 2.51538 10.8414 2.34766 10.6342 2.34766Z" fill="white"/>
<path d="M12.0734 2.34766H11.9375C11.7302 2.34766 11.5625 2.51538 11.5625 2.72266C11.5625 2.92993 11.7302 3.09766 11.9375 3.09766H12.0734C12.2806 3.09766 12.4484 2.92993 12.4484 2.72266C12.4484 2.51538 12.2806 2.34766 12.0734 2.34766Z" fill="white"/>
</svg>
