<svg width="52" height="59" viewBox="0 0 52 59" fill="none" xmlns="http://www.w3.org/2000/svg">
<g clip-path="url(#clip0_7412_35542)">
<path opacity="0.939" fill-rule="evenodd" clip-rule="evenodd" d="M25.1784 1.94141C25.7262 1.94141 26.2739 1.94141 26.8218 1.94141C27.8183 2.29284 28.7182 2.82597 29.5215 3.5408C36.531 9.07542 43.5739 14.5647 50.6502 20.0087C51.2877 20.7625 51.718 21.6116 51.9414 22.5559C51.9414 22.9507 51.9414 23.3457 51.9414 23.7406C51.0716 26.767 49.1152 27.8531 46.0723 26.9986C39.2952 21.8963 32.5848 16.7033 25.9414 11.4193C19.5336 16.4007 13.1363 21.3962 6.74953 26.4063C4.43475 27.9372 2.38057 27.641 0.587004 25.5177C0.311299 25.0153 0.0960996 24.5018 -0.0585938 23.9775C-0.0585938 23.4246 -0.0585938 22.8718 -0.0585938 22.3189C0.244025 21.258 0.830933 20.3694 1.70213 19.6533C2.61873 18.9849 3.51865 18.2938 4.4019 17.58C4.51926 14.6192 4.55838 11.6573 4.51928 8.69442C3.64916 8.86833 3.10139 8.53265 2.87594 7.68739C2.95874 7.32035 3.15438 7.0439 3.46285 6.85807C7.17994 6.77909 10.897 6.77909 14.6141 6.85807C14.8293 6.91731 14.9662 7.05553 15.0249 7.27273C15.2253 8.27543 14.8145 8.74933 13.7924 8.69442C13.7729 9.20932 13.7925 9.7227 13.8511 10.2346C17.1289 7.70173 20.396 5.15454 23.6525 2.59301C24.1503 2.31474 24.659 2.09754 25.1784 1.94141ZM25.648 3.83699C26.2901 3.83592 26.8771 4.01363 27.4087 4.37012C34.7948 10.1413 42.1702 15.9268 49.5351 21.7265C50.0829 22.6743 50.0829 23.6221 49.5351 24.5699C48.6994 25.4175 47.7408 25.5952 46.6592 25.1031C39.9473 19.9189 33.2565 14.706 26.587 9.4645C26.0527 9.08042 25.5441 9.1199 25.061 9.58297C18.4486 14.7564 11.836 19.9297 5.22357 25.1031C3.32758 25.8048 2.19289 25.1532 1.81951 23.1482C1.86897 22.3968 2.182 21.7846 2.75856 21.3119C10.1088 15.6705 17.4256 9.98375 24.7089 4.25165C25.0209 4.07654 25.334 3.93833 25.648 3.83699ZM6.51477 8.69442C8.27549 8.69442 10.0362 8.69442 11.7969 8.69442C11.8164 9.76142 11.7969 10.8277 11.7382 11.8932C10.0166 13.2359 8.29506 14.5787 6.57346 15.9213C6.51477 13.5127 6.49521 11.1037 6.51477 8.69442Z" fill="#0A3A81"/>
<path opacity="0.971" fill-rule="evenodd" clip-rule="evenodd" d="M20.6023 22.5701C24.6035 22.5125 28.5945 22.5718 32.5753 22.7478C33.0438 24.7259 32.5156 26.4043 30.9906 27.783C30.9331 27.9362 30.9135 28.0942 30.9319 28.2569C31.3382 28.2149 31.6316 28.3728 31.8123 28.7308C31.9244 30.085 31.8853 31.4277 31.6949 32.7589C31.454 32.9038 31.1997 33.0222 30.9319 33.1143C30.324 35.6823 28.7197 37.1633 26.1193 37.5571C22.7305 37.864 20.5785 36.3831 19.6633 33.1143C19.2746 33.0475 18.9812 32.85 18.7829 32.5219C18.7242 31.4169 18.7048 30.3111 18.7242 29.2047C18.318 29.2466 18.0245 29.0887 17.8439 28.7308C17.7656 27.625 17.7656 26.5192 17.8439 25.4135C18.3186 24.0065 19.238 23.0587 20.6023 22.5701ZM21.424 24.4657C24.515 24.4657 27.6061 24.4657 30.6971 24.4657C30.3361 25.8373 29.4753 26.7258 28.1148 27.1314C25.3021 27.3018 22.4849 27.3611 19.6633 27.3091C19.4351 25.8117 20.022 24.8639 21.424 24.4657ZM28.819 28.9677C28.9748 29.4751 29.053 30.0279 29.0538 30.6263C29.3993 33.569 28.1472 35.3065 25.2976 35.8392C23.1678 35.6048 21.9353 34.4201 21.6001 32.285C21.5414 31.259 21.5219 30.2322 21.5414 29.2047C23.8111 29.2244 26.0805 29.2047 28.3495 29.1454C28.5324 29.1205 28.6889 29.0613 28.819 28.9677Z" fill="#0A3A81"/>
<path opacity="0.936" fill-rule="evenodd" clip-rule="evenodd" d="M45.2486 58.9406C32.3758 58.9406 19.503 58.9406 6.63013 58.9406C5.8293 58.7091 5.57499 58.1957 5.86715 57.4004C6.00965 57.2169 6.18572 57.0787 6.39536 56.9857C9.48641 56.9463 12.5775 56.9067 15.6685 56.8673C14.9785 54.1552 14.4307 51.4105 14.0252 48.6333C14.0558 47.3466 14.6036 46.3593 15.6685 45.6715C15.437 42.3306 16.9239 40.2178 20.129 39.3331C23.0883 38.7378 26.0619 38.6589 29.05 39.0962C31.0457 39.3228 32.6694 40.2114 33.9213 41.7618C34.6379 43.0031 34.8923 44.326 34.6843 45.7307C35.7008 46.4195 36.2486 47.3871 36.3276 48.6333C35.8396 51.3727 35.2919 54.0976 34.6843 56.808C38.2442 56.9067 41.8048 56.966 45.366 56.9857C45.855 57.1024 46.0898 57.4184 46.0703 57.9335C46.0275 58.4697 45.7536 58.8054 45.2486 58.9406ZM22.7114 40.814C24.3552 40.7943 25.9985 40.814 27.6414 40.8733C29.2012 40.9241 30.6098 41.398 31.8671 42.295C32.5561 43.1762 32.9082 44.1832 32.9236 45.3161C27.7979 45.3161 22.6723 45.3161 17.5466 45.3161C17.4639 43.1275 18.4812 41.765 20.5985 41.2287C21.3165 41.0755 22.0208 40.9373 22.7114 40.814ZM16.9597 47.2116C22.5228 47.1542 28.0789 47.2134 33.6279 47.3893C34.1277 47.7072 34.3624 48.1613 34.3322 48.7518C33.9108 51.2534 33.4217 53.7413 32.8649 56.2157C32.645 56.4774 32.3907 56.6945 32.1019 56.8673C27.3968 56.9843 22.7015 56.9449 18.0161 56.7488C17.7324 56.5518 17.5173 56.2952 17.3705 55.9787C16.8589 53.5349 16.3699 51.0864 15.9033 48.6333C15.9899 47.9541 16.342 47.4802 16.9597 47.2116ZM24.8243 51.0028C25.5396 50.9093 26.0091 51.2055 26.2328 51.8914C25.7655 52.8881 25.1199 53.0263 24.296 52.306C24.0884 51.7326 24.2645 51.2982 24.8243 51.0028Z" fill="#0A3A81"/>
<path opacity="0.945" fill-rule="evenodd" clip-rule="evenodd" d="M24.5902 48.752C27.2257 48.7864 28.38 50.1291 28.0529 52.7801C27.2029 54.8772 25.7356 55.4892 23.6511 54.6164C22.4426 53.7623 21.9925 52.5974 22.3012 51.1214C22.615 49.8767 23.378 49.087 24.5902 48.752ZM24.8249 51.003C24.2651 51.2983 24.0891 51.7328 24.2967 52.3062C25.1206 53.0265 25.7662 52.8882 26.2335 51.8915C26.0098 51.2057 25.5403 50.9095 24.8249 51.003Z" fill="#0A3A81"/>
</g>
<defs>
<clipPath id="clip0_7412_35542">
<rect width="52" height="59" fill="white"/>
</clipPath>
</defs>
</svg>
